<?xml version="1.0" encoding="UTF-8"?>
<svg id="Layer_2" data-name="Layer 2" xmlns="http://www.w3.org/2000/svg" viewBox="0 0 324 324">
  <defs>
    <style>
      .cls-1 {
        fill: none;
        stroke: #36393b;
        stroke-miterlimit: 10;
        stroke-width: 12px;
      }

      .cls-2 {
        fill: #36393b;
        stroke-width: 0px;
      }
    </style>
  </defs>
  <g id="Layer_1-2" data-name="Layer 1">
    <g>
      <path class="cls-2" d="m162,10c40.6,0,78.77,15.81,107.48,44.52,28.71,28.71,44.52,66.88,44.52,107.48s-15.81,78.77-44.52,107.48c-28.71,28.71-66.88,44.52-107.48,44.52s-78.77-15.81-107.48-44.52c-28.71-28.71-44.52-66.88-44.52-107.48s15.81-78.77,44.52-107.48C83.23,25.81,121.4,10,162,10m0-10C72.53,0,0,72.53,0,162s72.53,162,162,162,162-72.53,162-162S251.47,0,162,0h0Z"/>
      <path class="cls-1" d="m8,161c9.09-3.72,21.66-6.99,33-2,15.81,6.96,15.6,24,33,47,6.53,8.63,27.7,36.63,46,33,22.19-4.4,38.85-55.04,22-71-10.5-9.94-32.67-5.17-46,4-23,15.84-30.98,52.63-15,73,23.29,29.69,83.71,6.96,85-6,1.2-12.1-49.43-12.96-61-46-6.24-17.84,1.79-36.8,15-68,9.93-23.45,15.51-36.63,24-37,15.67-.68,42.94,42.22,29,77-11.9,29.7-52.37,49.77-80,34-28.97-16.53-32.95-66.25-16-79,17.92-13.48,66.17,9.09,69,33,4.18,35.36-92.12,64.15-87,79,4.04,11.71,70.86,14.08,111-23,26.05-24.06,2-40,46-39,59.47,1.35,64,2,102-13"/>
    </g>
  </g>
</svg>