<svg class="plot-d6a7b5" fill="currentColor" font-family="system-ui, sans-serif" font-size="10" text-anchor="middle" width="640" height="400" viewBox="0 0 640 400" style="overflow: visible;" xmlns="http://www.w3.org/2000/svg" xmlns:xlink="http://www.w3.org/1999/xlink"><style>:where(.plot-d6a7b5) {
  --plot-background: white;
  display: block;
  height: auto;
  height: intrinsic;
  max-width: 100%;
}
:where(.plot-d6a7b5 text),
:where(.plot-d6a7b5 tspan) {
  white-space: pre;
}</style><g aria-label="y-axis tick" aria-hidden="true" fill="none" stroke="currentColor"><path transform="translate(70,370)" d="M0,0L-6,0" style="pointer-events: visiblestroke;"/><path transform="translate(70,343.08696658394473)" d="M0,0L-6,0" style="pointer-events: visiblestroke;"/><path transform="translate(70,316.1739331678895)" d="M0,0L-6,0" style="pointer-events: visiblestroke;"/><path transform="translate(70,289.2608997518342)" d="M0,0L-6,0" style="pointer-events: visiblestroke;"/><path transform="translate(70,262.3478663357789)" d="M0,0L-6,0" style="pointer-events: visiblestroke;"/><path transform="translate(70,235.43483291972373)" d="M0,0L-6,0" style="pointer-events: visiblestroke;"/><path transform="translate(70,208.52179950366838)" d="M0,0L-6,0" style="pointer-events: visiblestroke;"/><path transform="translate(70,181.60876608761313)" d="M0,0L-6,0" style="pointer-events: visiblestroke;"/><path transform="translate(70,154.6957326715579)" d="M0,0L-6,0" style="pointer-events: visiblestroke;"/><path transform="translate(70,127.78269925550262)" d="M0,0L-6,0" style="pointer-events: visiblestroke;"/><path transform="translate(70,100.86966583944738)" d="M0,0L-6,0" style="pointer-events: visiblestroke;"/><path transform="translate(70,73.9566324233921)" d="M0,0L-6,0" style="pointer-events: visiblestroke;"/><path transform="translate(70,47.04359900733681)" d="M0,0L-6,0" style="pointer-events: visiblestroke;"/><path transform="translate(70,20.130565591281567)" d="M0,0L-6,0" style="pointer-events: visiblestroke;"/></g><g aria-label="y-axis tick label" text-anchor="end" font-variant="tabular-nums" transform="translate(-9,0)"><text y="0.32em" transform="translate(70,370)">0</text><text y="0.32em" transform="translate(70,343.08696658394473)">10</text><text y="0.32em" transform="translate(70,316.1739331678895)">20</text><text y="0.32em" transform="translate(70,289.2608997518342)">30</text><text y="0.32em" transform="translate(70,262.3478663357789)">40</text><text y="0.32em" transform="translate(70,235.43483291972373)">50</text><text y="0.32em" transform="translate(70,208.52179950366838)">60</text><text y="0.32em" transform="translate(70,181.60876608761313)">70</text><text y="0.32em" transform="translate(70,154.6957326715579)">80</text><text y="0.32em" transform="translate(70,127.78269925550262)">90</text><text y="0.32em" transform="translate(70,100.86966583944738)">100</text><text y="0.32em" transform="translate(70,73.9566324233921)">110</text><text y="0.32em" transform="translate(70,47.04359900733681)">120</text><text y="0.32em" transform="translate(70,20.130565591281567)">130</text></g><g aria-label="y-axis label" text-anchor="start" transform="translate(-67,-17)"><text y="0.71em" transform="translate(70,20)">↑ Hours streamed</text></g><g aria-label="x-axis tick" aria-hidden="true" fill="none" stroke="currentColor"><path transform="translate(127.29166666666669,370)" d="M0,0L0,6" style="pointer-events: visiblestroke;"/><path transform="translate(196.04166666666666,370)" d="M0,0L0,6" style="pointer-events: visiblestroke;"/><path transform="translate(264.7916666666667,370)" d="M0,0L0,6" style="pointer-events: visiblestroke;"/><path transform="translate(333.5416666666667,370)" d="M0,0L0,6" style="pointer-events: visiblestroke;"/><path transform="translate(402.29166666666663,370)" d="M0,0L0,6" style="pointer-events: visiblestroke;"/><path transform="translate(471.04166666666663,370)" d="M0,0L0,6" style="pointer-events: visiblestroke;"/><path transform="translate(539.7916666666666,370)" d="M0,0L0,6" style="pointer-events: visiblestroke;"/><path transform="translate(608.5416666666666,370)" d="M0,0L0,6" style="pointer-events: visiblestroke;"/></g><g aria-label="x-axis tick label" font-variant="tabular-nums" transform="translate(0,9)"><text transform="translate(127.29166666666669,370)"><tspan x="0" y="0.71em">9 PM</tspan><tspan x="0" dy="1em">Dec 31</tspan></text><text transform="translate(196.04166666666666,370)"><tspan x="0" y="0.71em">12 AM</tspan><tspan x="0" dy="1em">Jan 1</tspan></text><text y="0.71em" transform="translate(264.7916666666667,370)">3 AM</text><text y="0.71em" transform="translate(333.5416666666667,370)">6 AM</text><text y="0.71em" transform="translate(402.29166666666663,370)">9 AM</text><text y="0.71em" transform="translate(471.04166666666663,370)">12 PM</text><text y="0.71em" transform="translate(539.7916666666666,370)">3 PM</text><text y="0.71em" transform="translate(608.5416666666666,370)">6 PM</text></g><g aria-label="rect"><rect x="70.5" y="114.31746571498549" width="10.458333333333329" height="255.68253428501453"/><rect x="81.95833333333333" y="132.34662566629842" width="10.458333333333343" height="237.65337433370158"/><rect x="93.41666666666667" y="189.43559129055822" width="10.458333333333329" height="180.56440870944178"/><rect x="104.875" y="231.06221631179756" width="10.458333333333314" height="138.93778368820244"/><rect x="116.33333333333331" y="269.15051605207606" width="10.458333333333371" height="100.84948394792394"/><rect x="127.79166666666669" y="309.8921074645969" width="10.458333333333314" height="60.107892535403096"/><rect x="139.25" y="325.7897319942462" width="10.458333333333343" height="44.21026800575379"/><rect x="150.70833333333334" y="344.77348079397296" width="10.458333333333314" height="25.226519206027035"/><rect x="162.16666666666666" y="353.4142047203965" width="10.458333333333343" height="16.585795279603474"/><rect x="173.625" y="355.07624451686996" width="10.458333333333343" height="14.923755483130037"/><rect x="185.08333333333334" y="360.34421513424536" width="10.458333333333314" height="9.65578486575464"/><rect x="196.54166666666666" y="359.1461186546516" width="10.458333333333343" height="10.853881345348384"/><rect x="208" y="360.66292301387955" width="10.458333333333314" height="9.33707698612045"/><rect x="219.45833333333331" y="365.81551147632615" width="10.458333333333371" height="4.184488523673849"/><rect x="230.91666666666669" y="364.91034542344397" width="10.458333333333314" height="5.089654576556029"/><rect x="242.375" y="350.65240119258914" width="10.458333333333314" height="19.34759880741086"/><rect x="253.83333333333331" y="355.6704865374492" width="10.458333333333371" height="14.329513462550779"/><rect x="265.2916666666667" y="341.3455094161977" width="10.458333333333314" height="28.65449058380233"/><rect x="276.75" y="327.74688665864335" width="10.458333333333314" height="42.25311334135665"/><rect x="288.2083333333333" y="301.64174587410923" width="10.458333333333371" height="68.35825412589077"/><rect x="299.6666666666667" y="268.6468715254021" width="10.458333333333314" height="101.3531284745979"/><rect x="311.125" y="236.89142235702028" width="10.458333333333314" height="133.10857764297972"/><rect x="322.5833333333333" y="189.27681336441472" width="10.458333333333371" height="180.72318663558528"/><rect x="334.0416666666667" y="136.7098384117984" width="10.458333333333314" height="233.2901615882016"/><rect x="345.5" y="89.16560924432883" width="10.458333333333371" height="280.83439075567117"/><rect x="356.95833333333337" y="131.13626132897247" width="10.458333333333258" height="238.86373867102753"/><rect x="368.41666666666663" y="157.69743673648327" width="10.458333333333371" height="212.30256326351673"/><rect x="379.875" y="83.9098137842364" width="10.458333333333371" height="286.0901862157636"/><rect x="391.33333333333337" y="20" width="10.458333333333258" height="350"/><rect x="402.79166666666663" y="27.003207136482246" width="10.458333333333371" height="342.9967928635177"/><rect x="414.25" y="67.9925218078349" width="10.458333333333371" height="302.0074781921651"/><rect x="425.70833333333337" y="59.91712184758434" width="10.458333333333258" height="310.0828781524157"/><rect x="437.16666666666663" y="90.51905747139467" width="10.458333333333371" height="279.48094252860534"/><rect x="448.625" y="101.9426099853979" width="10.458333333333371" height="268.0573900146021"/><rect x="460.08333333333337" y="139.87015668191344" width="10.458333333333258" height="230.12984331808656"/><rect x="471.54166666666663" y="189.0078213333421" width="10.458333333333371" height="180.9921786666579"/><rect x="483" y="233.23229792557134" width="10.458333333333371" height="136.76770207442866"/><rect x="494.45833333333337" y="230.75609476079106" width="10.458333333333258" height="139.24390523920894"/><rect x="505.91666666666663" y="214.0621860880338" width="10.458333333333371" height="155.9378139119662"/><rect x="517.375" y="230.65137764293755" width="10.458333333333371" height="139.34862235706245"/><rect x="528.8333333333334" y="243.42800010637077" width="10.458333333333258" height="126.57199989362923"/><rect x="540.2916666666666" y="238.01173045144597" width="10.458333333333371" height="131.98826954855403"/><rect x="551.75" y="239.74941082350375" width="10.458333333333371" height="130.25058917649625"/><rect x="563.2083333333334" y="234.0828312682033" width="10.458333333333258" height="135.9171687317967"/><rect x="574.6666666666666" y="199.61631861101426" width="10.458333333333371" height="170.38368138898574"/><rect x="586.125" y="150.1195279368504" width="10.458333333333371" height="219.8804720631496"/><rect x="597.5833333333334" y="112.19186237443714" width="10.458333333333258" height="257.80813762556284"/><rect x="609.0416666666666" y="108.84434676247459" width="10.458333333333371" height="261.1556532375254"/></g><g aria-label="rule" stroke="currentColor"><line x1="70" x2="620" y1="370" y2="370"/></g><g class="hover" style="pointer-events: none; text-anchor: middle;"/></svg>