<svg class="plot-d6a7b5 a9d68966a" fill="currentColor" font-family="system-ui, sans-serif" font-size="10" text-anchor="middle" width="640" height="460" viewBox="0 0 640 460" style="overflow: visible;" xmlns="http://www.w3.org/2000/svg" xmlns:xlink="http://www.w3.org/1999/xlink"><style>:where(.plot-d6a7b5) {
  --plot-background: white;
  display: block;
  height: auto;
  height: intrinsic;
  max-width: 100%;
}
:where(.plot-d6a7b5 text),
:where(.plot-d6a7b5 tspan) {
  white-space: pre;
}</style><g aria-label="y-axis tick" aria-hidden="true" fill="none" stroke="currentColor" transform="translate(0,9)"><path transform="translate(130,26)" d="M0,0L-6,0" style="pointer-events: visiblestroke;"/><path transform="translate(130,46)" d="M0,0L-6,0" style="pointer-events: visiblestroke;"/><path transform="translate(130,66)" d="M0,0L-6,0" style="pointer-events: visiblestroke;"/><path transform="translate(130,86)" d="M0,0L-6,0" style="pointer-events: visiblestroke;"/><path transform="translate(130,106)" d="M0,0L-6,0" style="pointer-events: visiblestroke;"/><path transform="translate(130,126)" d="M0,0L-6,0" style="pointer-events: visiblestroke;"/><path transform="translate(130,146)" d="M0,0L-6,0" style="pointer-events: visiblestroke;"/><path transform="translate(130,166)" d="M0,0L-6,0" style="pointer-events: visiblestroke;"/><path transform="translate(130,186)" d="M0,0L-6,0" style="pointer-events: visiblestroke;"/><path transform="translate(130,206)" d="M0,0L-6,0" style="pointer-events: visiblestroke;"/><path transform="translate(130,226)" d="M0,0L-6,0" style="pointer-events: visiblestroke;"/><path transform="translate(130,246)" d="M0,0L-6,0" style="pointer-events: visiblestroke;"/><path transform="translate(130,266)" d="M0,0L-6,0" style="pointer-events: visiblestroke;"/><path transform="translate(130,286)" d="M0,0L-6,0" style="pointer-events: visiblestroke;"/><path transform="translate(130,306)" d="M0,0L-6,0" style="pointer-events: visiblestroke;"/><path transform="translate(130,326)" d="M0,0L-6,0" style="pointer-events: visiblestroke;"/><path transform="translate(130,346)" d="M0,0L-6,0" style="pointer-events: visiblestroke;"/><path transform="translate(130,366)" d="M0,0L-6,0" style="pointer-events: visiblestroke;"/><path transform="translate(130,386)" d="M0,0L-6,0" style="pointer-events: visiblestroke;"/><path transform="translate(130,406)" d="M0,0L-6,0" style="pointer-events: visiblestroke;"/></g><g aria-label="y-axis tick label" text-anchor="end" transform="translate(-9,9)"><text y="0.32em" transform="translate(130,26)">Empire of the Sun</text><text y="0.32em" transform="translate(130,46)">Ulrich Schnauss</text><text y="0.32em" transform="translate(130,66)">Stereophonics</text><text y="0.32em" transform="translate(130,86)">Phoenix</text><text y="0.32em" transform="translate(130,106)">Oasis</text><text y="0.32em" transform="translate(130,126)">Cinnamon Chasers</text><text y="0.32em" transform="translate(130,146)">Moderat</text><text y="0.32em" transform="translate(130,166)">Matt Lange</text><text y="0.32em" transform="translate(130,186)">Daft Punk</text><text y="0.32em" transform="translate(130,206)">Linkin Park</text><text y="0.32em" transform="translate(130,226)">James</text><text y="0.32em" transform="translate(130,246)">EDX</text><text y="0.32em" transform="translate(130,266)">Lane 8</text><text y="0.32em" transform="translate(130,286)">Kaskade</text><text y="0.32em" transform="translate(130,306)">Keane</text><text y="0.32em" transform="translate(130,326)">The Temper Trap</text><text y="0.32em" transform="translate(130,346)">16BL</text><text y="0.32em" transform="translate(130,366)">Mutemath</text><text y="0.32em" transform="translate(130,386)">Jon Hopkins</text><text y="0.32em" transform="translate(130,406)">Pink Floyd</text></g><g aria-label="y-axis label" transform="translate(-127,0)"><text y="0.71em" transform="translate(130,225) rotate(-90)">artist_name</text></g><g aria-label="x-axis tick" aria-hidden="true" fill="none" stroke="currentColor"><path transform="translate(130,430)" d="M0,0L0,6" style="pointer-events: visiblestroke;"/><path transform="translate(200,430)" d="M0,0L0,6" style="pointer-events: visiblestroke;"/><path transform="translate(270,430)" d="M0,0L0,6" style="pointer-events: visiblestroke;"/><path transform="translate(340,430)" d="M0,0L0,6" style="pointer-events: visiblestroke;"/><path transform="translate(410,430)" d="M0,0L0,6" style="pointer-events: visiblestroke;"/><path transform="translate(480,430)" d="M0,0L0,6" style="pointer-events: visiblestroke;"/><path transform="translate(550,430)" d="M0,0L0,6" style="pointer-events: visiblestroke;"/><path transform="translate(620,430)" d="M0,0L0,6" style="pointer-events: visiblestroke;"/></g><g aria-label="x-axis tick label" font-variant="tabular-nums" transform="translate(0,9)"><text y="0.71em" transform="translate(130,430)">0</text><text y="0.71em" transform="translate(200,430)">10</text><text y="0.71em" transform="translate(270,430)">20</text><text y="0.71em" transform="translate(340,430)">30</text><text y="0.71em" transform="translate(410,430)">40</text><text y="0.71em" transform="translate(480,430)">50</text><text y="0.71em" transform="translate(550,430)">60</text><text y="0.71em" transform="translate(620,430)">70</text></g><g aria-label="bar"><rect x="130" width="126.9654088888887" y="246" height="18" fill="grey"/><rect x="130" width="111.3967652777778" y="346" height="18" fill="grey"/><rect x="130" width="110.9654952777779" y="366" height="18" fill="grey"/><rect x="130" width="129.5409986111111" y="226" height="18" fill="grey"/><rect x="130" width="99.71118111111116" y="386" height="18" fill="grey"/><rect x="130" width="123.35662305555564" y="286" height="18" fill="grey"/><rect x="130" width="114.66087305555567" y="306" height="18" fill="grey"/><rect x="130" width="111.68240222222221" y="326" height="18" fill="grey"/><rect x="130" width="123.44212416666673" y="266" height="18" fill="grey"/><rect x="130" width="98.19701111111107" y="406" height="18" fill="grey"/><rect x="130" width="405.4456369444448" y="46" height="18" fill="#efb118"/><rect x="130" width="279.5706180555562" y="86" height="18" fill="#6cc5b0"/><rect x="130" width="233.21187555555503" y="126" height="18" fill="#ff8ab7"/><rect x="130" width="429.3619147222223" y="26" height="18" fill="#4269d0"/><rect x="130" width="140.2494177777777" y="206" height="18" fill="#9498a0"/><rect x="130" width="141.69365972222226" y="186" height="18" fill="#9c6b4e"/><rect x="130" width="268.0568041666668" y="106" height="18" fill="#3ca951"/><rect x="130" width="286.0119733333335" y="66" height="18" fill="#ff725c"/><rect x="130" width="145.21147666666684" y="166" height="18" fill="#97bbf5"/><rect x="130" width="189.3051241666667" y="146" height="18" fill="#a463f2"/></g><g aria-label="rule" stroke="currentColor"><line x1="130" x2="130" y1="20" y2="430"/></g><g class="hover" style="pointer-events: none; text-anchor: middle;"/><style xmlns="http://www.w3.org/1999/xhtml">
  .a9d68966a .has-title { cursor: pointer;  pointer-events: all; }
  .a9d68966a .has-title:hover { stroke: blue; stroke-width: 3; }</style></svg>