<svg version="1.1" viewBox="0.0 0.0 876.0 352.0" fill="none" stroke="none" stroke-linecap="square" stroke-miterlimit="10" width="876" height="352" xmlns:xlink="http://www.w3.org/1999/xlink" xmlns="http://www.w3.org/2000/svg"><path fill="#ffffff" d="M0 0L876.0 0L876.0 352.0L0 352.0L0 0Z" fill-rule="nonzero"/><path stroke="#333333" stroke-width="1.0" stroke-linecap="butt" d="M81.5 241.5L859.5 241.5" fill-rule="nonzero"/><path stroke="#cccccc" stroke-width="1.0" stroke-linecap="butt" d="M81.5 179.5L859.5 179.5" fill-rule="nonzero"/><path stroke="#cccccc" stroke-width="1.0" stroke-linecap="butt" d="M81.5 116.5L859.5 116.5" fill-rule="nonzero"/><path stroke="#cccccc" stroke-width="1.0" stroke-linecap="butt" d="M81.5 53.5L859.5 53.5" fill-rule="nonzero"/><clipPath id="id_0"><path d="M81.50313 53.505753L859.5 53.505753L859.5 241.75984L81.50313 241.75984L81.50313 53.505753Z" clip-rule="nonzero"/></clipPath><path stroke="#000000" stroke-width="0.0" stroke-linecap="butt" stroke-opacity="0.0" clip-path="url(#id_0)" d="M188.0 242.0L119.0 242.0L119.0 60.0C119.0 58.89543 119.89543 58.0 121.0 58.0L186.0 58.0C187.10457 58.0 188.0 58.89543 188.0 60.0Z" fill-rule="nonzero"/><path fill="#4285f4" clip-path="url(#id_0)" d="M188.0 242.0L119.0 242.0L119.0 60.0C119.0 58.89543 119.89543 58.0 121.0 58.0L186.0 58.0C187.10457 58.0 188.0 58.89543 188.0 60.0Z" fill-rule="nonzero"/><path stroke="#000000" stroke-width="0.0" stroke-linecap="butt" stroke-opacity="0.0" clip-path="url(#id_0)" d="M294.0 242.0L225.0 242.0L225.0 110.0C225.0 108.89543 225.89543 108.0 227.0 108.0L292.0 108.0C293.10458 108.0 294.0 108.89543 294.0 110.0Z" fill-rule="nonzero"/><path fill="#4285f4" clip-path="url(#id_0)" d="M294.0 242.0L225.0 242.0L225.0 110.0C225.0 108.89543 225.89543 108.0 227.0 108.0L292.0 108.0C293.10458 108.0 294.0 108.89543 294.0 110.0Z" fill-rule="nonzero"/><path stroke="#000000" stroke-width="0.0" stroke-linecap="butt" stroke-opacity="0.0" clip-path="url(#id_0)" d="M400.0 242.0L331.0 242.0L331.0 86.0C331.0 84.89543 331.89542 84.0 333.0 84.0L398.0 84.0C399.10458 84.0 400.0 84.89543 400.0 86.0Z" fill-rule="nonzero"/><path fill="#4285f4" clip-path="url(#id_0)" d="M400.0 242.0L331.0 242.0L331.0 86.0C331.0 84.89543 331.89542 84.0 333.0 84.0L398.0 84.0C399.10458 84.0 400.0 84.89543 400.0 86.0Z" fill-rule="nonzero"/><path stroke="#000000" stroke-width="0.0" stroke-linecap="butt" stroke-opacity="0.0" clip-path="url(#id_0)" d="M506.0 242.0L437.0 242.0L437.0 138.0C437.0 136.89543 437.89542 136.0 439.0 136.0L504.0 136.0C505.10458 136.0 506.0 136.89543 506.0 138.0Z" fill-rule="nonzero"/><path fill="#4285f4" clip-path="url(#id_0)" d="M506.0 242.0L437.0 242.0L437.0 138.0C437.0 136.89543 437.89542 136.0 439.0 136.0L504.0 136.0C505.10458 136.0 506.0 136.89543 506.0 138.0Z" fill-rule="nonzero"/><path stroke="#000000" stroke-width="0.0" stroke-linecap="butt" stroke-opacity="0.0" clip-path="url(#id_0)" d="M611.0 242.0L542.0 242.0L542.0 66.0C542.0 64.89543 542.89545 64.0 544.0 64.0L609.0 64.0C610.10455 64.0 611.0 64.89543 611.0 66.0Z" fill-rule="nonzero"/><path fill="#4285f4" clip-path="url(#id_0)" d="M611.0 242.0L542.0 242.0L542.0 66.0C542.0 64.89543 542.89545 64.0 544.0 64.0L609.0 64.0C610.10455 64.0 611.0 64.89543 611.0 66.0Z" fill-rule="nonzero"/><path stroke="#000000" stroke-width="0.0" stroke-linecap="butt" stroke-opacity="0.0" clip-path="url(#id_0)" d="M717.0 242.0L648.0 242.0L648.0 68.0C648.0 66.89543 648.89545 66.0 650.0 66.0L715.0 66.0C716.10455 66.0 717.0 66.89543 717.0 68.0Z" fill-rule="nonzero"/><path fill="#4285f4" clip-path="url(#id_0)" d="M717.0 242.0L648.0 242.0L648.0 68.0C648.0 66.89543 648.89545 66.0 650.0 66.0L715.0 66.0C716.10455 66.0 717.0 66.89543 717.0 68.0Z" fill-rule="nonzero"/><path stroke="#000000" stroke-width="0.0" stroke-linecap="butt" stroke-opacity="0.0" clip-path="url(#id_0)" d="M823.0 242.0L754.0 242.0L754.0 82.0C754.0 80.89543 754.89545 80.0 756.0 80.0L821.0 80.0C822.10455 80.0 823.0 80.89543 823.0 82.0Z" fill-rule="nonzero"/><path fill="#4285f4" clip-path="url(#id_0)" d="M823.0 242.0L754.0 242.0L754.0 82.0C754.0 80.89543 754.89545 80.0 756.0 80.0L821.0 80.0C822.10455 80.0 823.0 80.89543 823.0 82.0Z" fill-rule="nonzero"/><path fill="#424242" d="M448.82968 320.6175L449.00156 321.7425L449.23593 320.72687L450.92343 314.77374L451.87656 314.77374L453.51718 320.72687L453.75156 321.75812L453.93906 320.60187L455.26718 314.77374L456.39218 314.77374L454.32968 323.305L453.29843 323.305L451.5328 317.08624L451.4078 316.43L451.26718 317.08624L449.45468 323.305L448.42343 323.305L446.36093 314.77374L447.48593 314.77374L448.82968 320.6175ZM460.45468 323.43Q459.1578 323.43 458.3453 322.58624Q457.54843 321.72687 457.54843 320.305L457.54843 320.1175Q457.54843 319.16437 457.9078 318.43Q458.26718 317.68 458.9078 317.27374Q459.56406 316.85187 460.31406 316.85187Q461.54843 316.85187 462.23593 317.66437Q462.92343 318.47687 462.92343 319.9925L462.92343 320.44562L458.62656 320.44562Q458.6578 321.38312 459.17343 321.96124Q459.70468 322.53937 460.51718 322.53937Q461.07968 322.53937 461.4703 322.305Q461.87656 322.07062 462.18906 321.68L462.8453 322.19562Q462.04843 323.43 460.45468 323.43ZM460.31406 317.7425Q459.6578 317.7425 459.20468 318.22687Q458.76718 318.69562 458.67343 319.555L461.8453 319.555L461.8453 319.47687Q461.79843 318.64874 461.39218 318.19562Q461.00156 317.7425 460.31406 317.7425ZM466.45468 323.43Q465.1578 323.43 464.3453 322.58624Q463.54843 321.72687 463.54843 320.305L463.54843 320.1175Q463.54843 319.16437 463.9078 318.43Q464.26718 317.68 464.9078 317.27374Q465.56406 316.85187 466.31406 316.85187Q467.54843 316.85187 468.23593 317.66437Q468.92343 318.47687 468.92343 319.9925L468.92343 320.44562L464.62656 320.44562Q464.6578 321.38312 465.17343 321.96124Q465.70468 322.53937 466.51718 322.53937Q467.07968 322.53937 467.4703 322.305Q467.87656 322.07062 468.18906 321.68L468.8453 322.19562Q468.04843 323.43 466.45468 323.43ZM466.31406 317.7425Q465.6578 317.7425 465.20468 318.22687Q464.76718 318.69562 464.67343 319.555L467.8453 319.555L467.8453 319.47687Q467.79843 318.64874 467.39218 318.19562Q467.00156 317.7425 466.31406 317.7425ZM471.5953 320.3675L470.9078 321.07062L470.9078 323.305L469.82968 323.305L469.82968 314.305L470.9078 314.305L470.9078 319.7425L471.48593 319.055L473.4703 316.96124L474.7828 316.96124L472.31406 319.6175L475.07968 323.305L473.79843 323.305L471.5953 320.3675ZM475.56406 320.08624Q475.56406 318.6175 476.25156 317.7425Q476.93906 316.85187 478.06406 316.85187Q479.17343 316.85187 479.82968 317.60187L479.82968 314.305L480.9078 314.305L480.9078 323.305L479.9078 323.305L479.86093 322.6175Q479.20468 323.43 478.04843 323.43Q476.95468 323.43 476.25156 322.52374Q475.56406 321.6175 475.56406 320.16437L475.56406 320.08624ZM476.64218 320.21124Q476.64218 321.28937 477.07968 321.89874Q477.5328 322.50812 478.31406 322.50812Q479.3453 322.50812 479.82968 321.57062L479.82968 318.66437Q479.3453 317.77374 478.32968 317.77374Q477.5328 317.77374 477.07968 318.38312Q476.64218 318.9925 476.64218 320.21124ZM486.73593 323.305Q486.64218 323.1175 486.57968 322.63312Q485.82968 323.43 484.7828 323.43Q483.8453 323.43 483.23593 322.89874Q482.64218 322.3675 482.64218 321.53937Q482.64218 320.555 483.39218 320.00812Q484.14218 319.46124 485.51718 319.46124L486.56406 319.46124L486.56406 318.96124Q486.56406 318.39874 486.2203 318.07062Q485.89218 317.72687 485.2203 317.72687Q484.64218 317.72687 484.25156 318.02374Q483.86093 318.305 483.86093 318.72687L482.76718 318.72687Q482.76718 318.2425 483.0953 317.805Q483.43906 317.3675 484.01718 317.1175Q484.5953 316.85187 485.2828 316.85187Q486.39218 316.85187 487.00156 317.39874Q487.62656 317.94562 487.6578 318.89874L487.6578 321.82062Q487.6578 322.69562 487.87656 323.21124L487.87656 323.305L486.73593 323.305ZM484.93906 322.47687Q485.45468 322.47687 485.9078 322.21124Q486.36093 321.94562 486.56406 321.52374L486.56406 320.22687L485.7203 320.22687Q483.7203 320.22687 483.7203 321.39874Q483.7203 321.89874 484.06406 322.19562Q484.4078 322.47687 484.93906 322.47687ZM491.89218 321.71124L493.37656 316.96124L494.5328 316.96124L491.98593 324.28937Q491.39218 325.8675 490.11093 325.8675L489.89218 325.85187L489.50156 325.77374L489.50156 324.89874L489.7828 324.91437Q490.3453 324.91437 490.64218 324.69562Q490.95468 324.47687 491.1578 323.88312L491.39218 323.22687L489.12656 316.96124L490.31406 316.96124L491.89218 321.71124Z" fill-rule="nonzero"/><path fill="#424242" d="M26.89686 188.78275Q28.24061 188.939 28.99061 189.78275Q29.724985 190.6265 29.724985 192.01712Q29.724985 193.53275 28.64686 194.439Q27.55311 195.34525 25.724985 195.34525L24.912485 195.34525Q23.724985 195.34525 22.818735 194.92337Q21.912485 194.5015 21.42811 193.72025Q20.943735 192.939 20.943735 191.92337Q20.943735 190.564 21.70936 189.7515Q22.474985 188.92337 23.80311 188.78275L23.80311 189.90775Q22.787485 190.064 22.33436 190.54837Q21.881235 191.03275 21.881235 191.92337Q21.881235 193.0015 22.67811 193.61087Q23.474985 194.22025 24.943735 194.22025L25.77186 194.22025Q27.162485 194.22025 27.99061 193.64212Q28.80311 193.064 28.80311 192.01712Q28.80311 191.07962 28.381235 190.57962Q27.943735 190.07962 26.89686 189.90775L26.89686 188.78275ZM29.599985 183.314Q29.412485 183.40775 28.92811 183.47025Q29.724985 184.22025 29.724985 185.26712Q29.724985 186.20462 29.193735 186.814Q28.662485 187.40775 27.83436 187.40775Q26.849985 187.40775 26.30311 186.65775Q25.756235 185.90775 25.756235 184.53275L25.756235 183.48587L25.256235 183.48587Q24.693735 183.48587 24.36561 183.82962Q24.02186 184.15775 24.02186 184.82962Q24.02186 185.40775 24.318735 185.79837Q24.599985 186.189 25.02186 186.189L25.02186 187.28275Q24.537485 187.28275 24.099985 186.95462Q23.662485 186.61087 23.412485 186.03275Q23.14686 185.45462 23.14686 184.76712Q23.14686 183.65775 23.693735 183.04837Q24.24061 182.42337 25.193735 182.39212L28.11561 182.39212Q28.99061 182.39212 29.506235 182.17337L29.599985 182.17337L29.599985 183.314ZM28.77186 185.11087Q28.77186 184.59525 28.506235 184.14212Q28.24061 183.689 27.818735 183.48587L26.52186 183.48587L26.52186 184.32962Q26.52186 186.32962 27.693735 186.32962Q28.193735 186.32962 28.49061 185.98587Q28.77186 185.64212 28.77186 185.11087ZM26.506235 174.86087Q27.95936 174.86087 28.849985 175.53275Q29.724985 176.189 29.724985 177.314Q29.724985 178.51712 28.86561 179.17337L29.599985 179.23587L29.599985 180.22025L20.599985 180.22025L20.599985 179.14212L23.95936 179.14212Q23.14686 178.48587 23.14686 177.32962Q23.14686 176.17337 24.02186 175.51712Q24.881235 174.86087 26.412485 174.86087L26.506235 174.86087ZM26.381235 175.939Q25.27186 175.939 24.67811 176.3765Q24.068735 176.79837 24.068735 177.59525Q24.068735 178.67337 25.05311 179.14212L27.80311 179.14212Q28.80311 178.64212 28.80311 177.59525Q28.80311 176.814 28.193735 176.3765Q27.58436 175.939 26.381235 175.939ZM25.83436 165.34526L25.83436 168.93901L29.599985 168.93901L29.599985 170.06401L21.068735 170.06401L21.068735 164.76714L21.99061 164.76714L21.99061 168.93901L24.912485 168.93901L24.912485 165.34526L25.83436 165.34526ZM29.599985 159.31401Q29.412485 159.40776 28.92811 159.47026Q29.724985 160.22026 29.724985 161.26714Q29.724985 162.20464 29.193735 162.81401Q28.662485 163.40776 27.83436 163.40776Q26.849985 163.40776 26.30311 162.65776Q25.756235 161.90776 25.756235 160.53276L25.756235 159.48589L25.256235 159.48589Q24.693735 159.48589 24.36561 159.82964Q24.02186 160.15776 24.02186 160.82964Q24.02186 161.40776 24.318735 161.79839Q24.599985 162.18901 25.02186 162.18901L25.02186 163.28276Q24.537485 163.28276 24.099985 162.95464Q23.662485 162.61089 23.412485 162.03276Q23.14686 161.45464 23.14686 160.76714Q23.14686 159.65776 23.693735 159.04839Q24.24061 158.42339 25.193735 158.39214L28.11561 158.39214Q28.99061 158.39214 29.506235 158.17339L29.599985 158.17339L29.599985 159.31401ZM28.77186 161.11089Q28.77186 160.59526 28.506235 160.14214Q28.24061 159.68901 27.818735 159.48589L26.52186 159.48589L26.52186 160.32964Q26.52186 162.32964 27.693735 162.32964Q28.193735 162.32964 28.49061 161.98589Q28.77186 161.64214 28.77186 161.11089ZM24.224985 153.15776Q24.193735 153.40776 24.193735 153.68901Q24.193735 154.76714 25.099985 155.14214L29.599985 155.14214L29.599985 156.22026L23.256235 156.22026L23.256235 155.17339L23.99061 155.15776Q23.14686 154.62651 23.14686 153.64214Q23.14686 153.32964 23.224985 153.15776L24.224985 153.15776ZM29.724985 149.59526Q29.724985 150.89214 28.881235 151.70464Q28.02186 152.50151 26.599985 152.50151L26.412485 152.50151Q25.45936 152.50151 24.724985 152.14214Q23.974985 151.78276 23.568735 151.14214Q23.14686 150.48589 23.14686 149.73589Q23.14686 148.50151 23.95936 147.81401Q24.77186 147.12651 26.287485 147.12651L26.74061 147.12651L26.74061 151.42339Q27.67811 151.39214 28.256235 150.87651Q28.83436 150.34526 28.83436 149.53276Q28.83436 148.97026 28.599985 148.57964Q28.36561 148.17339 27.974985 147.86089L28.49061 147.20464Q29.724985 148.00151 29.724985 149.59526ZM24.037485 149.73589Q24.037485 150.39214 24.52186 150.84526Q24.99061 151.28276 25.849985 151.37651L25.849985 148.20464L25.77186 148.20464Q24.943735 148.25151 24.49061 148.65776Q24.037485 149.04839 24.037485 149.73589ZM27.912485 142.53276Q27.474985 142.53276 27.24061 142.87651Q26.99061 143.20464 26.818735 144.03276Q26.64686 144.84526 26.39686 145.32964Q26.14686 145.81401 25.818735 146.04839Q25.474985 146.26714 25.006235 146.26714Q24.224985 146.26714 23.693735 145.61089Q23.14686 144.95464 23.14686 143.92339Q23.14686 142.84526 23.70936 142.18901Q24.256235 141.51714 25.11561 141.51714L25.11561 142.59526Q24.67811 142.59526 24.36561 142.98589Q24.037485 143.36089 24.037485 143.92339Q24.037485 144.51714 24.30311 144.86089Q24.55311 145.18901 24.95936 145.18901Q25.349985 145.18901 25.55311 144.87651Q25.756235 144.56401 25.943735 143.75151Q26.11561 142.93901 26.36561 142.43901Q26.61561 141.93901 26.974985 141.70464Q27.33436 141.45464 27.83436 141.45464Q28.693735 141.45464 29.20936 142.14214Q29.724985 142.81401 29.724985 143.89214Q29.724985 144.65776 29.45936 145.25151Q29.17811 145.82964 28.693735 146.15776Q28.20936 146.48589 27.64686 146.48589L27.64686 145.40776Q28.193735 145.37651 28.52186 144.97026Q28.83436 144.56401 28.83436 143.89214Q28.83436 143.28276 28.58436 142.90776Q28.33436 142.53276 27.912485 142.53276Z" fill-rule="nonzero"/><path fill="#757575" d="M74.56563 242.61922Q74.56563 244.52547 73.90938 245.46297Q73.26875 246.38484 71.87813 246.38484Q70.51875 246.38484 69.8625 245.47859Q69.20625 244.57234 69.175 242.75984L69.175 241.32234Q69.175 239.43172 69.81563 238.52547Q70.47188 237.60359 71.8625 237.60359Q73.2375 237.60359 73.89375 238.49422Q74.55 239.36922 74.56563 241.21297L74.56563 242.61922ZM73.47188 241.13484Q73.47188 239.75984 73.08125 239.13484Q72.70625 238.49422 71.8625 238.49422Q71.03438 238.49422 70.64375 239.13484Q70.26875 239.75984 70.26875 241.05672L70.26875 242.79109Q70.26875 244.16609 70.65938 244.83797Q71.06563 245.49422 71.87813 245.49422Q72.675 245.49422 73.06563 244.86922Q73.45625 244.24422 73.47188 242.91609L73.47188 241.13484Z" fill-rule="nonzero"/><path fill="#757575" d="M58.76875 183.50848L57.690624 183.50848L57.690624 176.28973L55.503124 177.08661L55.503124 176.10223L58.6125 174.93036L58.76875 174.93036L58.76875 183.50848ZM67.56563 179.86786Q67.56563 181.77411 66.90938 182.71161Q66.26875 183.63348 64.87813 183.63348Q63.51875 183.63348 62.8625 182.72723Q62.20625 181.82098 62.175 180.00848L62.175 178.57098Q62.175 176.68036 62.815624 175.77411Q63.471874 174.85223 64.8625 174.85223Q66.2375 174.85223 66.89375 175.74286Q67.55 176.61786 67.56563 178.46161L67.56563 179.86786ZM66.47188 178.38348Q66.47188 177.00848 66.08125 176.38348Q65.70625 175.74286 64.8625 175.74286Q64.03438 175.74286 63.64375 176.38348Q63.26875 177.00848 63.26875 178.30536L63.26875 180.03973Q63.26875 181.41473 63.659374 182.08661Q64.06563 182.74286 64.87813 182.74286Q65.675 182.74286 66.06563 182.11786Q66.45625 181.49286 66.47188 180.16473L66.47188 178.38348ZM74.56563 179.86786Q74.56563 181.77411 73.90938 182.71161Q73.26875 183.63348 71.87813 183.63348Q70.51875 183.63348 69.8625 182.72723Q69.20625 181.82098 69.175 180.00848L69.175 178.57098Q69.175 176.68036 69.81563 175.77411Q70.47188 174.85223 71.8625 174.85223Q73.2375 174.85223 73.89375 175.74286Q74.55 176.61786 74.56563 178.46161L74.56563 179.86786ZM73.47188 178.38348Q73.47188 177.00848 73.08125 176.38348Q72.70625 175.74286 71.8625 175.74286Q71.03438 175.74286 70.64375 176.38348Q70.26875 177.00848 70.26875 178.30536L70.26875 180.03973Q70.26875 181.41473 70.65938 182.08661Q71.06563 182.74286 71.87813 182.74286Q72.675 182.74286 73.06563 182.11786Q73.45625 181.49286 73.47188 180.16473L73.47188 178.38348Z" fill-rule="nonzero"/><path fill="#757575" d="M60.8 120.75712L55.20625 120.75712L55.20625 119.97587L58.159374 116.69462Q58.815624 115.94462 59.065624 115.49149Q59.315624 115.02274 59.315624 114.52274Q59.315624 113.85087 58.909374 113.42899Q58.51875 112.99149 57.83125 112.99149Q57.034374 112.99149 56.58125 113.46024Q56.128124 113.91337 56.128124 114.74149L55.05 114.74149Q55.05 113.55399 55.8 112.83524Q56.565624 112.10087 57.83125 112.10087Q59.034374 112.10087 59.721874 112.72587Q60.409374 113.35087 60.409374 114.39774Q60.409374 115.64774 58.8 117.39774L56.51875 119.86649L60.8 119.86649L60.8 120.75712ZM67.56563 117.11649Q67.56563 119.02274 66.90938 119.96024Q66.26875 120.88212 64.87813 120.88212Q63.51875 120.88212 62.8625 119.97587Q62.20625 119.06962 62.175 117.25712L62.175 115.81962Q62.175 113.92899 62.815624 113.02274Q63.471874 112.10087 64.8625 112.10087Q66.2375 112.10087 66.89375 112.99149Q67.55 113.86649 67.56563 115.71024L67.56563 117.11649ZM66.47188 115.63212Q66.47188 114.25712 66.08125 113.63212Q65.70625 112.99149 64.8625 112.99149Q64.03438 112.99149 63.64375 113.63212Q63.26875 114.25712 63.26875 115.55399L63.26875 117.28837Q63.26875 118.66337 63.659374 119.33524Q64.06563 119.99149 64.87813 119.99149Q65.675 119.99149 66.06563 119.36649Q66.45625 118.74149 66.47188 117.41337L66.47188 115.63212ZM74.56563 117.11649Q74.56563 119.02274 73.90938 119.96024Q73.26875 120.88212 71.87813 120.88212Q70.51875 120.88212 69.8625 119.97587Q69.20625 119.06962 69.175 117.25712L69.175 115.81962Q69.175 113.92899 69.81563 113.02274Q70.47188 112.10087 71.8625 112.10087Q73.2375 112.10087 73.89375 112.99149Q74.55 113.86649 74.56563 115.71024L74.56563 117.11649ZM73.47188 115.63212Q73.47188 114.25712 73.08125 113.63212Q72.70625 112.99149 71.8625 112.99149Q71.03438 112.99149 70.64375 113.63212Q70.26875 114.25712 70.26875 115.55399L70.26875 117.28837Q70.26875 118.66337 70.65938 119.33524Q71.06563 119.99149 71.87813 119.99149Q72.675 119.99149 73.06563 119.36649Q73.45625 118.74149 73.47188 117.41337L73.47188 115.63212Z" fill-rule="nonzero"/><path fill="#757575" d="M56.784374 53.208878L57.596874 53.208878Q58.378124 53.193253 58.815624 52.802628Q59.253124 52.412003 59.253124 51.740128Q59.253124 50.240128 57.753124 50.240128Q57.05 50.240128 56.628124 50.646378Q56.221874 51.052628 56.221874 51.708878L55.128124 51.708878Q55.128124 50.693253 55.8625 50.021378Q56.6125 49.349503 57.753124 49.349503Q58.95625 49.349503 59.64375 49.990128Q60.33125 50.630753 60.33125 51.771378Q60.33125 52.333878 59.971874 52.849503Q59.6125 53.365128 58.9875 53.630753Q59.690624 53.849503 60.065624 54.365128Q60.45625 54.880753 60.45625 55.630753Q60.45625 56.771378 59.70625 57.458878Q58.95625 58.130753 57.753124 58.130753Q56.565624 58.130753 55.8 57.474503Q55.05 56.818253 55.05 55.755753L56.14375 55.755753Q56.14375 56.427628 56.58125 56.833878Q57.01875 57.240128 57.76875 57.240128Q58.55 57.240128 58.95625 56.833878Q59.378124 56.412003 59.378124 55.646378Q59.378124 54.912003 58.925 54.521378Q58.471874 54.115128 57.596874 54.099503L56.784374 54.099503L56.784374 53.208878ZM67.56563 54.365128Q67.56563 56.271378 66.90938 57.208878Q66.26875 58.130753 64.87813 58.130753Q63.51875 58.130753 62.8625 57.224503Q62.20625 56.318253 62.175 54.505753L62.175 53.068253Q62.175 51.177628 62.815624 50.271378Q63.471874 49.349503 64.8625 49.349503Q66.2375 49.349503 66.89375 50.240128Q67.55 51.115128 67.56563 52.958878L67.56563 54.365128ZM66.47188 52.880753Q66.47188 51.505753 66.08125 50.880753Q65.70625 50.240128 64.8625 50.240128Q64.03438 50.240128 63.64375 50.880753Q63.26875 51.505753 63.26875 52.802628L63.26875 54.537003Q63.26875 55.912003 63.659374 56.583878Q64.06563 57.240128 64.87813 57.240128Q65.675 57.240128 66.06563 56.615128Q66.45625 55.990128 66.47188 54.662003L66.47188 52.880753ZM74.56563 54.365128Q74.56563 56.271378 73.90938 57.208878Q73.26875 58.130753 71.87813 58.130753Q70.51875 58.130753 69.8625 57.224503Q69.20625 56.318253 69.175 54.505753L69.175 53.068253Q69.175 51.177628 69.81563 50.271378Q70.47188 49.349503 71.8625 49.349503Q73.2375 49.349503 73.89375 50.240128Q74.55 51.115128 74.56563 52.958878L74.56563 54.365128ZM73.47188 52.880753Q73.47188 51.505753 73.08125 50.880753Q72.70625 50.240128 71.8625 50.240128Q71.03438 50.240128 70.64375 50.880753Q70.26875 51.505753 70.26875 52.802628L70.26875 54.537003Q70.26875 55.912003 70.65938 56.583878Q71.06563 57.240128 71.87813 57.240128Q72.675 57.240128 73.06563 56.615128Q73.45625 55.990128 73.47188 54.662003L73.47188 52.880753Z" fill-rule="nonzero"/><path fill="#757575" d="M135.95181 255.96295Q134.51431 255.54108 133.84244 254.9317Q133.18619 254.32233 133.18619 253.4317Q133.18619 252.4317 133.98306 251.77545Q134.79556 251.10358 136.09244 251.10358Q136.96744 251.10358 137.65494 251.44733Q138.34244 251.79108 138.71744 252.38483Q139.10806 252.97858 139.10806 253.69733L137.96744 253.69733Q137.96744 252.91608 137.46744 252.47858Q136.98306 252.04108 136.09244 252.04108Q135.26431 252.04108 134.79556 252.41608Q134.32681 252.77545 134.32681 253.41608Q134.32681 253.94733 134.76431 254.3067Q135.21744 254.66608 136.27994 254.96295Q137.34244 255.25983 137.93619 255.6192Q138.54556 255.97858 138.82681 256.46295Q139.12369 256.94733 139.12369 257.58795Q139.12369 258.63483 138.31119 259.25983Q137.49869 259.88483 136.15494 259.88483Q135.26431 259.88483 134.49869 259.54108Q133.74869 259.19733 133.32681 258.6192Q132.92056 258.02545 132.92056 257.29108L134.04556 257.29108Q134.04556 258.0567 134.62369 258.50983Q135.20181 258.96295 136.15494 258.96295Q137.04556 258.96295 137.51431 258.60358Q137.98306 258.22858 137.98306 257.60358Q137.98306 256.97858 137.54556 256.63483Q137.10806 256.29108 135.95181 255.96295ZM144.18619 259.13483Q143.56119 259.88483 142.32681 259.88483Q141.31119 259.88483 140.77994 259.29108Q140.24869 258.69733 140.24869 257.54108L140.24869 253.41608L141.32681 253.41608L141.32681 257.50983Q141.32681 258.96295 142.49869 258.96295Q143.74869 258.96295 144.15494 258.02545L144.15494 253.41608L145.24869 253.41608L145.24869 259.75983L144.21744 259.75983L144.18619 259.13483ZM148.29556 253.41608L148.32681 254.21295Q149.06119 253.3067 150.23306 253.3067Q152.24869 253.3067 152.26431 255.57233L152.26431 259.75983L151.17056 259.75983L151.17056 255.5567Q151.17056 254.88483 150.85806 254.5567Q150.56119 254.22858 149.90494 254.22858Q149.37369 254.22858 148.96744 254.50983Q148.57681 254.79108 148.35806 255.2442L148.35806 259.75983L147.27994 259.75983L147.27994 253.41608L148.29556 253.41608ZM154.01431 256.54108Q154.01431 255.07233 154.70181 254.19733Q155.38931 253.3067 156.51431 253.3067Q157.62369 253.3067 158.27994 254.0567L158.27994 250.75983L159.35806 250.75983L159.35806 259.75983L158.35806 259.75983L158.31119 259.07233Q157.65494 259.88483 156.49869 259.88483Q155.40494 259.88483 154.70181 258.97858Q154.01431 258.07233 154.01431 256.6192L154.01431 256.54108ZM155.09244 256.66608Q155.09244 257.7442 155.52994 258.35358Q155.98306 258.96295 156.76431 258.96295Q157.79556 258.96295 158.27994 258.02545L158.27994 255.1192Q157.79556 254.22858 156.77994 254.22858Q155.98306 254.22858 155.52994 254.83795Q155.09244 255.44733 155.09244 256.66608ZM165.18619 259.75983Q165.09244 259.57233 165.02994 259.08795Q164.27994 259.88483 163.23306 259.88483Q162.29556 259.88483 161.68619 259.35358Q161.09244 258.82233 161.09244 257.9942Q161.09244 257.00983 161.84244 256.46295Q162.59244 255.91608 163.96744 255.91608L165.01431 255.91608L165.01431 255.41608Q165.01431 254.85358 164.67056 254.52545Q164.34244 254.1817 163.67056 254.1817Q163.09244 254.1817 162.70181 254.47858Q162.31119 254.75983 162.31119 255.1817L161.21744 255.1817Q161.21744 254.69733 161.54556 254.25983Q161.88931 253.82233 162.46744 253.57233Q163.04556 253.3067 163.73306 253.3067Q164.84244 253.3067 165.45181 253.85358Q166.07681 254.40045 166.10806 255.35358L166.10806 258.27545Q166.10806 259.15045 166.32681 259.66608L166.32681 259.75983L165.18619 259.75983ZM163.38931 258.9317Q163.90494 258.9317 164.35806 258.66608Q164.81119 258.40045 165.01431 257.97858L165.01431 256.6817L164.17056 256.6817Q162.17056 256.6817 162.17056 257.85358Q162.17056 258.35358 162.51431 258.65045Q162.85806 258.9317 163.38931 258.9317ZM170.34244 258.16608L171.82681 253.41608L172.98306 253.41608L170.43619 260.7442Q169.84244 262.32233 168.56119 262.32233L168.34244 262.3067L167.95181 262.22858L167.95181 261.35358L168.23306 261.3692Q168.79556 261.3692 169.09244 261.15045Q169.40494 260.9317 169.60806 260.33795L169.84244 259.6817L167.57681 253.41608L168.76431 253.41608L170.34244 258.16608Z" fill-rule="nonzero"/><path fill="#757575" d="M237.80173 255.96295Q236.36423 255.54108 235.69235 254.9317Q235.0361 254.32233 235.0361 253.4317Q235.0361 252.4317 235.83298 251.77545Q236.64548 251.10358 237.94235 251.10358Q238.81735 251.10358 239.50485 251.44733Q240.19235 251.79108 240.56735 252.38483Q240.95798 252.97858 240.95798 253.69733L239.81735 253.69733Q239.81735 252.91608 239.31735 252.47858Q238.83298 252.04108 237.94235 252.04108Q237.11423 252.04108 236.64548 252.41608Q236.17673 252.77545 236.17673 253.41608Q236.17673 253.94733 236.61423 254.3067Q237.06735 254.66608 238.12985 254.96295Q239.19235 255.25983 239.7861 255.6192Q240.39548 255.97858 240.67673 256.46295Q240.9736 256.94733 240.9736 257.58795Q240.9736 258.63483 240.1611 259.25983Q239.3486 259.88483 238.00485 259.88483Q237.11423 259.88483 236.3486 259.54108Q235.5986 259.19733 235.17673 258.6192Q234.77048 258.02545 234.77048 257.29108L235.89548 257.29108Q235.89548 258.0567 236.4736 258.50983Q237.05173 258.96295 238.00485 258.96295Q238.89548 258.96295 239.36423 258.60358Q239.83298 258.22858 239.83298 257.60358Q239.83298 256.97858 239.39548 256.63483Q238.95798 256.29108 237.80173 255.96295ZM246.0361 259.75983Q245.94235 259.57233 245.87985 259.08795Q245.12985 259.88483 244.08298 259.88483Q243.14548 259.88483 242.5361 259.35358Q241.94235 258.82233 241.94235 257.9942Q241.94235 257.00983 242.69235 256.46295Q243.44235 255.91608 244.81735 255.91608L245.86423 255.91608L245.86423 255.41608Q245.86423 254.85358 245.52048 254.52545Q245.19235 254.1817 244.52048 254.1817Q243.94235 254.1817 243.55173 254.47858Q243.1611 254.75983 243.1611 255.1817L242.06735 255.1817Q242.06735 254.69733 242.39548 254.25983Q242.73923 253.82233 243.31735 253.57233Q243.89548 253.3067 244.58298 253.3067Q245.69235 253.3067 246.30173 253.85358Q246.92673 254.40045 246.95798 255.35358L246.95798 258.27545Q246.95798 259.15045 247.17673 259.66608L247.17673 259.75983L246.0361 259.75983ZM244.23923 258.9317Q244.75485 258.9317 245.20798 258.66608Q245.6611 258.40045 245.86423 257.97858L245.86423 256.6817L245.02048 256.6817Q243.02048 256.6817 243.02048 257.85358Q243.02048 258.35358 243.36423 258.65045Q243.70798 258.9317 244.23923 258.9317ZM250.5986 251.88483L250.5986 253.41608L251.77048 253.41608L251.77048 254.25983L250.5986 254.25983L250.5986 258.1817Q250.5986 258.57233 250.75485 258.75983Q250.9111 258.94733 251.2861 258.94733Q251.4736 258.94733 251.80173 258.88483L251.80173 259.75983Q251.37985 259.88483 250.9736 259.88483Q250.25485 259.88483 249.87985 259.44733Q249.50485 258.9942 249.50485 258.1817L249.50485 254.25983L248.3486 254.25983L248.3486 253.41608L249.50485 253.41608L249.50485 251.88483L250.5986 251.88483ZM257.0361 259.13483Q256.4111 259.88483 255.17673 259.88483Q254.1611 259.88483 253.62985 259.29108Q253.0986 258.69733 253.0986 257.54108L253.0986 253.41608L254.17673 253.41608L254.17673 257.50983Q254.17673 258.96295 255.3486 258.96295Q256.5986 258.96295 257.00485 258.02545L257.00485 253.41608L258.0986 253.41608L258.0986 259.75983L257.06735 259.75983L257.0361 259.13483ZM263.19235 254.38483Q262.94235 254.35358 262.6611 254.35358Q261.58298 254.35358 261.20798 255.25983L261.20798 259.75983L260.12985 259.75983L260.12985 253.41608L261.17673 253.41608L261.19235 254.15045Q261.7236 253.3067 262.70798 253.3067Q263.02048 253.3067 263.19235 253.38483L263.19235 254.38483ZM263.86423 256.54108Q263.86423 255.07233 264.55173 254.19733Q265.23923 253.3067 266.36423 253.3067Q267.4736 253.3067 268.12985 254.0567L268.12985 250.75983L269.20798 250.75983L269.20798 259.75983L268.20798 259.75983L268.1611 259.07233Q267.50485 259.88483 266.3486 259.88483Q265.25485 259.88483 264.55173 258.97858Q263.86423 258.07233 263.86423 256.6192L263.86423 256.54108ZM264.94235 256.66608Q264.94235 257.7442 265.37985 258.35358Q265.83298 258.96295 266.61423 258.96295Q267.64548 258.96295 268.12985 258.02545L268.12985 255.1192Q267.64548 254.22858 266.62985 254.22858Q265.83298 254.22858 265.37985 254.83795Q264.94235 255.44733 264.94235 256.66608ZM275.0361 259.75983Q274.94235 259.57233 274.87985 259.08795Q274.12985 259.88483 273.08298 259.88483Q272.14548 259.88483 271.5361 259.35358Q270.94235 258.82233 270.94235 257.9942Q270.94235 257.00983 271.69235 256.46295Q272.44235 255.91608 273.81735 255.91608L274.86423 255.91608L274.86423 255.41608Q274.86423 254.85358 274.52048 254.52545Q274.19235 254.1817 273.52048 254.1817Q272.94235 254.1817 272.55173 254.47858Q272.1611 254.75983 272.1611 255.1817L271.06735 255.1817Q271.06735 254.69733 271.39548 254.25983Q271.73923 253.82233 272.31735 253.57233Q272.89548 253.3067 273.58298 253.3067Q274.69235 253.3067 275.30173 253.85358Q275.92673 254.40045 275.95798 255.35358L275.95798 258.27545Q275.95798 259.15045 276.17673 259.66608L276.17673 259.75983L275.0361 259.75983ZM273.23923 258.9317Q273.75485 258.9317 274.20798 258.66608Q274.6611 258.40045 274.86423 257.97858L274.86423 256.6817L274.02048 256.6817Q272.02048 256.6817 272.02048 257.85358Q272.02048 258.35358 272.36423 258.65045Q272.70798 258.9317 273.23923 258.9317ZM280.19235 258.16608L281.67673 253.41608L282.83298 253.41608L280.2861 260.7442Q279.69235 262.32233 278.4111 262.32233L278.19235 262.3067L277.80173 262.22858L277.80173 261.35358L278.08298 261.3692Q278.64548 261.3692 278.94235 261.15045Q279.25485 260.9317 279.45798 260.33795L279.69235 259.6817L277.42673 253.41608L278.61423 253.41608L280.19235 258.16608Z" fill-rule="nonzero"/><path fill="#757575" d="M353.35477 255.9942L349.76102 255.9942L349.76102 259.75983L348.63602 259.75983L348.63602 251.22858L353.9329 251.22858L353.9329 252.15045L349.76102 252.15045L349.76102 255.07233L353.35477 255.07233L353.35477 255.9942ZM358.54227 254.38483Q358.29227 254.35358 358.01102 254.35358Q356.9329 254.35358 356.5579 255.25983L356.5579 259.75983L355.47977 259.75983L355.47977 253.41608L356.52664 253.41608L356.54227 254.15045Q357.07352 253.3067 358.0579 253.3067Q358.3704 253.3067 358.54227 253.38483L358.54227 254.38483ZM360.65164 259.75983L359.57352 259.75983L359.57352 253.41608L360.65164 253.41608L360.65164 259.75983ZM359.47977 251.7442Q359.47977 251.47858 359.63602 251.29108Q359.8079 251.10358 360.1204 251.10358Q360.4329 251.10358 360.58914 251.29108Q360.76102 251.47858 360.76102 251.7442Q360.76102 251.9942 360.58914 252.1817Q360.4329 252.35358 360.1204 252.35358Q359.8079 252.35358 359.63602 252.1817Q359.47977 251.9942 359.47977 251.7442ZM362.21414 256.54108Q362.21414 255.07233 362.90164 254.19733Q363.58914 253.3067 364.71414 253.3067Q365.82352 253.3067 366.47977 254.0567L366.47977 250.75983L367.5579 250.75983L367.5579 259.75983L366.5579 259.75983L366.51102 259.07233Q365.85477 259.88483 364.69852 259.88483Q363.60477 259.88483 362.90164 258.97858Q362.21414 258.07233 362.21414 256.6192L362.21414 256.54108ZM363.29227 256.66608Q363.29227 257.7442 363.72977 258.35358Q364.1829 258.96295 364.96414 258.96295Q365.9954 258.96295 366.47977 258.02545L366.47977 255.1192Q365.9954 254.22858 364.97977 254.22858Q364.1829 254.22858 363.72977 254.83795Q363.29227 255.44733 363.29227 256.66608ZM373.38602 259.75983Q373.29227 259.57233 373.22977 259.08795Q372.47977 259.88483 371.4329 259.88483Q370.4954 259.88483 369.88602 259.35358Q369.29227 258.82233 369.29227 257.9942Q369.29227 257.00983 370.04227 256.46295Q370.79227 255.91608 372.16727 255.91608L373.21414 255.91608L373.21414 255.41608Q373.21414 254.85358 372.8704 254.52545Q372.54227 254.1817 371.8704 254.1817Q371.29227 254.1817 370.90164 254.47858Q370.51102 254.75983 370.51102 255.1817L369.41727 255.1817Q369.41727 254.69733 369.7454 254.25983Q370.08914 253.82233 370.66727 253.57233Q371.2454 253.3067 371.9329 253.3067Q373.04227 253.3067 373.65164 253.85358Q374.27664 254.40045 374.3079 255.35358L374.3079 258.27545Q374.3079 259.15045 374.52664 259.66608L374.52664 259.75983L373.38602 259.75983ZM371.58914 258.9317Q372.10477 258.9317 372.5579 258.66608Q373.01102 258.40045 373.21414 257.97858L373.21414 256.6817L372.3704 256.6817Q370.3704 256.6817 370.3704 257.85358Q370.3704 258.35358 370.71414 258.65045Q371.0579 258.9317 371.58914 258.9317ZM378.54227 258.16608L380.02664 253.41608L381.1829 253.41608L378.63602 260.7442Q378.04227 262.32233 376.76102 262.32233L376.54227 262.3067L376.15164 262.22858L376.15164 261.35358L376.4329 261.3692Q376.9954 261.3692 377.29227 261.15045Q377.60477 260.9317 377.8079 260.33795L378.04227 259.6817L375.77664 253.41608L376.96414 253.41608L378.54227 258.16608Z" fill-rule="nonzero"/><path fill="#757575" d="M451.89218 252.15045L449.14218 252.15045L449.14218 259.75983L448.0328 259.75983L448.0328 252.15045L445.2828 252.15045L445.2828 251.22858L451.89218 251.22858L451.89218 252.15045ZM453.9078 254.1817Q454.62656 253.3067 455.7828 253.3067Q457.79843 253.3067 457.81406 255.57233L457.81406 259.75983L456.7203 259.75983L456.7203 255.5567Q456.7203 254.88483 456.4078 254.5567Q456.11093 254.22858 455.45468 254.22858Q454.92343 254.22858 454.51718 254.50983Q454.12656 254.79108 453.9078 255.2442L453.9078 259.75983L452.82968 259.75983L452.82968 250.75983L453.9078 250.75983L453.9078 254.1817ZM463.73593 259.13483Q463.11093 259.88483 461.87656 259.88483Q460.86093 259.88483 460.32968 259.29108Q459.79843 258.69733 459.79843 257.54108L459.79843 253.41608L460.87656 253.41608L460.87656 257.50983Q460.87656 258.96295 462.04843 258.96295Q463.29843 258.96295 463.70468 258.02545L463.70468 253.41608L464.79843 253.41608L464.79843 259.75983L463.76718 259.75983L463.73593 259.13483ZM469.89218 254.38483Q469.64218 254.35358 469.36093 254.35358Q468.2828 254.35358 467.9078 255.25983L467.9078 259.75983L466.82968 259.75983L466.82968 253.41608L467.87656 253.41608L467.89218 254.15045Q468.42343 253.3067 469.4078 253.3067Q469.7203 253.3067 469.89218 253.38483L469.89218 254.38483ZM474.51718 258.07233Q474.51718 257.63483 474.17343 257.40045Q473.8453 257.15045 473.01718 256.97858Q472.20468 256.8067 471.7203 256.5567Q471.23593 256.3067 471.00156 255.97858Q470.7828 255.63483 470.7828 255.16608Q470.7828 254.38483 471.43906 253.85358Q472.0953 253.3067 473.12656 253.3067Q474.20468 253.3067 474.86093 253.8692Q475.5328 254.41608 475.5328 255.27545L474.45468 255.27545Q474.45468 254.83795 474.06406 254.52545Q473.68906 254.19733 473.12656 254.19733Q472.5328 254.19733 472.18906 254.46295Q471.86093 254.71295 471.86093 255.1192Q471.86093 255.50983 472.17343 255.71295Q472.48593 255.91608 473.29843 256.10358Q474.11093 256.27545 474.61093 256.52545Q475.11093 256.77545 475.3453 257.13483Q475.5953 257.4942 475.5953 257.9942Q475.5953 258.85358 474.9078 259.3692Q474.23593 259.88483 473.1578 259.88483Q472.39218 259.88483 471.79843 259.6192Q471.2203 259.33795 470.89218 258.85358Q470.56406 258.3692 470.56406 257.8067L471.64218 257.8067Q471.67343 258.35358 472.07968 258.6817Q472.48593 258.9942 473.1578 258.9942Q473.76718 258.9942 474.14218 258.7442Q474.51718 258.4942 474.51718 258.07233ZM476.56406 256.54108Q476.56406 255.07233 477.25156 254.19733Q477.93906 253.3067 479.06406 253.3067Q480.17343 253.3067 480.82968 254.0567L480.82968 250.75983L481.9078 250.75983L481.9078 259.75983L480.9078 259.75983L480.86093 259.07233Q480.20468 259.88483 479.04843 259.88483Q477.95468 259.88483 477.25156 258.97858Q476.56406 258.07233 476.56406 256.6192L476.56406 256.54108ZM477.64218 256.66608Q477.64218 257.7442 478.07968 258.35358Q478.5328 258.96295 479.31406 258.96295Q480.3453 258.96295 480.82968 258.02545L480.82968 255.1192Q480.3453 254.22858 479.32968 254.22858Q478.5328 254.22858 478.07968 254.83795Q477.64218 255.44733 477.64218 256.66608ZM487.73593 259.75983Q487.64218 259.57233 487.57968 259.08795Q486.82968 259.88483 485.7828 259.88483Q484.8453 259.88483 484.23593 259.35358Q483.64218 258.82233 483.64218 257.9942Q483.64218 257.00983 484.39218 256.46295Q485.14218 255.91608 486.51718 255.91608L487.56406 255.91608L487.56406 255.41608Q487.56406 254.85358 487.2203 254.52545Q486.89218 254.1817 486.2203 254.1817Q485.64218 254.1817 485.25156 254.47858Q484.86093 254.75983 484.86093 255.1817L483.76718 255.1817Q483.76718 254.69733 484.0953 254.25983Q484.43906 253.82233 485.01718 253.57233Q485.5953 253.3067 486.2828 253.3067Q487.39218 253.3067 488.00156 253.85358Q488.62656 254.40045 488.6578 255.35358L488.6578 258.27545Q488.6578 259.15045 488.87656 259.66608L488.87656 259.75983L487.73593 259.75983ZM485.93906 258.9317Q486.45468 258.9317 486.9078 258.66608Q487.36093 258.40045 487.56406 257.97858L487.56406 256.6817L486.7203 256.6817Q484.7203 256.6817 484.7203 257.85358Q484.7203 258.35358 485.06406 258.65045Q485.4078 258.9317 485.93906 258.9317ZM492.89218 258.16608L494.37656 253.41608L495.5328 253.41608L492.98593 260.7442Q492.39218 262.32233 491.11093 262.32233L490.89218 262.3067L490.50156 262.22858L490.50156 261.35358L490.7828 261.3692Q491.3453 261.3692 491.64218 261.15045Q491.95468 260.9317 492.1578 260.33795L492.39218 259.6817L490.12656 253.41608L491.31406 253.41608L492.89218 258.16608Z" fill-rule="nonzero"/><path fill="#757575" d="M556.789 251.22858L559.5859 258.1817L562.3671 251.22858L563.8359 251.22858L563.8359 259.75983L562.7109 259.75983L562.7109 256.4317L562.82025 252.85358L560.00775 259.75983L559.1484 259.75983L556.3515 252.8692L556.4609 256.4317L556.4609 259.75983L555.3359 259.75983L555.3359 251.22858L556.789 251.22858ZM564.88275 256.52545Q564.88275 255.60358 565.2421 254.85358Q565.6171 254.10358 566.2734 253.71295Q566.9296 253.3067 567.75775 253.3067Q569.0546 253.3067 569.8515 254.19733Q570.664 255.08795 570.664 256.58795L570.664 256.66608Q570.664 257.58795 570.3046 258.32233Q569.94525 259.0567 569.289 259.47858Q568.63275 259.88483 567.7734 259.88483Q566.4921 259.88483 565.6796 258.9942Q564.88275 258.08795 564.88275 256.60358L564.88275 256.52545ZM565.9765 256.66608Q565.9765 257.71295 566.4609 258.35358Q566.9609 258.9942 567.7734 258.9942Q568.6015 258.9942 569.0859 258.35358Q569.57025 257.69733 569.57025 256.52545Q569.57025 255.4942 569.07025 254.85358Q568.5859 254.19733 567.75775 254.19733Q566.9609 254.19733 566.4609 254.83795Q565.9765 255.46295 565.9765 256.66608ZM573.19525 253.41608L573.2265 254.21295Q573.9609 253.3067 575.13275 253.3067Q577.1484 253.3067 577.164 255.57233L577.164 259.75983L576.07025 259.75983L576.07025 255.5567Q576.07025 254.88483 575.75775 254.5567Q575.4609 254.22858 574.8046 254.22858Q574.2734 254.22858 573.8671 254.50983Q573.4765 254.79108 573.25775 255.2442L573.25775 259.75983L572.1796 259.75983L572.1796 253.41608L573.19525 253.41608ZM578.914 256.54108Q578.914 255.07233 579.6015 254.19733Q580.289 253.3067 581.414 253.3067Q582.5234 253.3067 583.1796 254.0567L583.1796 250.75983L584.25775 250.75983L584.25775 259.75983L583.25775 259.75983L583.2109 259.07233Q582.5546 259.88483 581.3984 259.88483Q580.3046 259.88483 579.6015 258.97858Q578.914 258.07233 578.914 256.6192L578.914 256.54108ZM579.9921 256.66608Q579.9921 257.7442 580.4296 258.35358Q580.88275 258.96295 581.664 258.96295Q582.69525 258.96295 583.1796 258.02545L583.1796 255.1192Q582.69525 254.22858 581.6796 254.22858Q580.88275 254.22858 580.4296 254.83795Q579.9921 255.44733 579.9921 256.66608ZM590.0859 259.75983Q589.9921 259.57233 589.9296 259.08795Q589.1796 259.88483 588.13275 259.88483Q587.19525 259.88483 586.5859 259.35358Q585.9921 258.82233 585.9921 257.9942Q585.9921 257.00983 586.7421 256.46295Q587.4921 255.91608 588.8671 255.91608L589.914 255.91608L589.914 255.41608Q589.914 254.85358 589.57025 254.52545Q589.2421 254.1817 588.57025 254.1817Q587.9921 254.1817 587.6015 254.47858Q587.2109 254.75983 587.2109 255.1817L586.1171 255.1817Q586.1171 254.69733 586.44525 254.25983Q586.789 253.82233 587.3671 253.57233Q587.94525 253.3067 588.63275 253.3067Q589.7421 253.3067 590.3515 253.85358Q590.9765 254.40045 591.00775 255.35358L591.00775 258.27545Q591.00775 259.15045 591.2265 259.66608L591.2265 259.75983L590.0859 259.75983ZM588.289 258.9317Q588.8046 258.9317 589.25775 258.66608Q589.7109 258.40045 589.914 257.97858L589.914 256.6817L589.07025 256.6817Q587.07025 256.6817 587.07025 257.85358Q587.07025 258.35358 587.414 258.65045Q587.75775 258.9317 588.289 258.9317ZM595.2421 258.16608L596.7265 253.41608L597.88275 253.41608L595.3359 260.7442Q594.7421 262.32233 593.4609 262.32233L593.2421 262.3067L592.8515 262.22858L592.8515 261.35358L593.13275 261.3692Q593.69525 261.3692 593.9921 261.15045Q594.3046 260.9317 594.50775 260.33795L594.7421 259.6817L592.4765 253.41608L593.664 253.41608L595.2421 258.16608Z" fill-rule="nonzero"/><path fill="#757575" d="M653.52954 257.07233L653.7014 258.19733L653.9358 257.1817L655.6233 251.22858L656.5764 251.22858L658.21704 257.1817L658.4514 258.21295L658.6389 257.0567L659.96704 251.22858L661.09204 251.22858L659.02954 259.75983L657.9983 259.75983L656.23267 253.54108L656.10767 252.88483L655.96704 253.54108L654.15454 259.75983L653.1233 259.75983L651.0608 251.22858L652.1858 251.22858L653.52954 257.07233ZM665.15454 259.88483Q663.85767 259.88483 663.04517 259.04108Q662.2483 258.1817 662.2483 256.75983L662.2483 256.57233Q662.2483 255.6192 662.60767 254.88483Q662.96704 254.13483 663.60767 253.72858Q664.2639 253.3067 665.0139 253.3067Q666.2483 253.3067 666.9358 254.1192Q667.6233 254.9317 667.6233 256.44733L667.6233 256.90045L663.3264 256.90045Q663.35767 257.83795 663.8733 258.41608Q664.40454 258.9942 665.21704 258.9942Q665.77954 258.9942 666.17017 258.75983Q666.5764 258.52545 666.8889 258.13483L667.54517 258.65045Q666.7483 259.88483 665.15454 259.88483ZM665.0139 254.19733Q664.35767 254.19733 663.90454 254.6817Q663.46704 255.15045 663.3733 256.00983L666.54517 256.00983L666.54517 255.9317Q666.4983 255.10358 666.09204 254.65045Q665.7014 254.19733 665.0139 254.19733ZM668.2639 256.54108Q668.2639 255.07233 668.9514 254.19733Q669.6389 253.3067 670.7639 253.3067Q671.8733 253.3067 672.52954 254.0567L672.52954 250.75983L673.60767 250.75983L673.60767 259.75983L672.60767 259.75983L672.5608 259.07233Q671.90454 259.88483 670.7483 259.88483Q669.65454 259.88483 668.9514 258.97858Q668.2639 258.07233 668.2639 256.6192L668.2639 256.54108ZM669.34204 256.66608Q669.34204 257.7442 669.77954 258.35358Q670.23267 258.96295 671.0139 258.96295Q672.04517 258.96295 672.52954 258.02545L672.52954 255.1192Q672.04517 254.22858 671.02954 254.22858Q670.23267 254.22858 669.77954 254.83795Q669.34204 255.44733 669.34204 256.66608ZM676.54517 253.41608L676.5764 254.21295Q677.3108 253.3067 678.48267 253.3067Q680.4983 253.3067 680.5139 255.57233L680.5139 259.75983L679.42017 259.75983L679.42017 255.5567Q679.42017 254.88483 679.10767 254.5567Q678.8108 254.22858 678.15454 254.22858Q677.6233 254.22858 677.21704 254.50983Q676.8264 254.79108 676.60767 255.2442L676.60767 259.75983L675.52954 259.75983L675.52954 253.41608L676.54517 253.41608ZM685.15454 259.88483Q683.85767 259.88483 683.04517 259.04108Q682.2483 258.1817 682.2483 256.75983L682.2483 256.57233Q682.2483 255.6192 682.60767 254.88483Q682.96704 254.13483 683.60767 253.72858Q684.2639 253.3067 685.0139 253.3067Q686.2483 253.3067 686.9358 254.1192Q687.6233 254.9317 687.6233 256.44733L687.6233 256.90045L683.3264 256.90045Q683.35767 257.83795 683.8733 258.41608Q684.40454 258.9942 685.21704 258.9942Q685.77954 258.9942 686.17017 258.75983Q686.5764 258.52545 686.8889 258.13483L687.54517 258.65045Q686.7483 259.88483 685.15454 259.88483ZM685.0139 254.19733Q684.35767 254.19733 683.90454 254.6817Q683.46704 255.15045 683.3733 256.00983L686.54517 256.00983L686.54517 255.9317Q686.4983 255.10358 686.09204 254.65045Q685.7014 254.19733 685.0139 254.19733ZM692.21704 258.07233Q692.21704 257.63483 691.8733 257.40045Q691.54517 257.15045 690.71704 256.97858Q689.90454 256.8067 689.42017 256.5567Q688.9358 256.3067 688.7014 255.97858Q688.48267 255.63483 688.48267 255.16608Q688.48267 254.38483 689.1389 253.85358Q689.79517 253.3067 690.8264 253.3067Q691.90454 253.3067 692.5608 253.8692Q693.23267 254.41608 693.23267 255.27545L692.15454 255.27545Q692.15454 254.83795 691.7639 254.52545Q691.3889 254.19733 690.8264 254.19733Q690.23267 254.19733 689.8889 254.46295Q689.5608 254.71295 689.5608 255.1192Q689.5608 255.50983 689.8733 255.71295Q690.1858 255.91608 690.9983 256.10358Q691.8108 256.27545 692.3108 256.52545Q692.8108 256.77545 693.04517 257.13483Q693.29517 257.4942 693.29517 257.9942Q693.29517 258.85358 692.60767 259.3692Q691.9358 259.88483 690.85767 259.88483Q690.09204 259.88483 689.4983 259.6192Q688.92017 259.33795 688.59204 258.85358Q688.2639 258.3692 688.2639 257.8067L689.34204 257.8067Q689.3733 258.35358 689.77954 258.6817Q690.1858 258.9942 690.85767 258.9942Q691.46704 258.9942 691.84204 258.7442Q692.21704 258.4942 692.21704 258.07233ZM694.2639 256.54108Q694.2639 255.07233 694.9514 254.19733Q695.6389 253.3067 696.7639 253.3067Q697.8733 253.3067 698.52954 254.0567L698.52954 250.75983L699.60767 250.75983L699.60767 259.75983L698.60767 259.75983L698.5608 259.07233Q697.90454 259.88483 696.7483 259.88483Q695.65454 259.88483 694.9514 258.97858Q694.2639 258.07233 694.2639 256.6192L694.2639 256.54108ZM695.34204 256.66608Q695.34204 257.7442 695.77954 258.35358Q696.23267 258.96295 697.0139 258.96295Q698.04517 258.96295 698.52954 258.02545L698.52954 255.1192Q698.04517 254.22858 697.02954 254.22858Q696.23267 254.22858 695.77954 254.83795Q695.34204 255.44733 695.34204 256.66608ZM705.4358 259.75983Q705.34204 259.57233 705.27954 259.08795Q704.52954 259.88483 703.48267 259.88483Q702.54517 259.88483 701.9358 259.35358Q701.34204 258.82233 701.34204 257.9942Q701.34204 257.00983 702.09204 256.46295Q702.84204 255.91608 704.21704 255.91608L705.2639 255.91608L705.2639 255.41608Q705.2639 254.85358 704.92017 254.52545Q704.59204 254.1817 703.92017 254.1817Q703.34204 254.1817 702.9514 254.47858Q702.5608 254.75983 702.5608 255.1817L701.46704 255.1817Q701.46704 254.69733 701.79517 254.25983Q702.1389 253.82233 702.71704 253.57233Q703.29517 253.3067 703.98267 253.3067Q705.09204 253.3067 705.7014 253.85358Q706.3264 254.40045 706.35767 255.35358L706.35767 258.27545Q706.35767 259.15045 706.5764 259.66608L706.5764 259.75983L705.4358 259.75983ZM703.6389 258.9317Q704.15454 258.9317 704.60767 258.66608Q705.0608 258.40045 705.2639 257.97858L705.2639 256.6817L704.42017 256.6817Q702.42017 256.6817 702.42017 257.85358Q702.42017 258.35358 702.7639 258.65045Q703.10767 258.9317 703.6389 258.9317ZM710.59204 258.16608L712.0764 253.41608L713.23267 253.41608L710.6858 260.7442Q710.09204 262.32233 708.8108 262.32233L708.59204 262.3067L708.2014 262.22858L708.2014 261.35358L708.48267 261.3692Q709.04517 261.3692 709.34204 261.15045Q709.65454 260.9317 709.85767 260.33795L710.09204 259.6817L707.8264 253.41608L709.0139 253.41608L710.59204 258.16608Z" fill-rule="nonzero"/><path fill="#757575" d="M771.94196 252.15045L769.19196 252.15045L769.19196 259.75983L768.0826 259.75983L768.0826 252.15045L765.3326 252.15045L765.3326 251.22858L771.94196 251.22858L771.94196 252.15045ZM776.7857 259.13483Q776.1607 259.88483 774.92633 259.88483Q773.9107 259.88483 773.37946 259.29108Q772.8482 258.69733 772.8482 257.54108L772.8482 253.41608L773.92633 253.41608L773.92633 257.50983Q773.92633 258.96295 775.0982 258.96295Q776.3482 258.96295 776.75446 258.02545L776.75446 253.41608L777.8482 253.41608L777.8482 259.75983L776.81696 259.75983L776.7857 259.13483ZM782.50446 259.88483Q781.2076 259.88483 780.3951 259.04108Q779.5982 258.1817 779.5982 256.75983L779.5982 256.57233Q779.5982 255.6192 779.9576 254.88483Q780.31696 254.13483 780.9576 253.72858Q781.61383 253.3067 782.36383 253.3067Q783.5982 253.3067 784.2857 254.1192Q784.9732 254.9317 784.9732 256.44733L784.9732 256.90045L780.67633 256.90045Q780.7076 257.83795 781.2232 258.41608Q781.75446 258.9942 782.56696 258.9942Q783.12946 258.9942 783.5201 258.75983Q783.92633 258.52545 784.23883 258.13483L784.8951 258.65045Q784.0982 259.88483 782.50446 259.88483ZM782.36383 254.19733Q781.7076 254.19733 781.25446 254.6817Q780.81696 255.15045 780.7232 256.00983L783.8951 256.00983L783.8951 255.9317Q783.8482 255.10358 783.44196 254.65045Q783.05133 254.19733 782.36383 254.19733ZM789.56696 258.07233Q789.56696 257.63483 789.2232 257.40045Q788.8951 257.15045 788.06696 256.97858Q787.25446 256.8067 786.7701 256.5567Q786.2857 256.3067 786.05133 255.97858Q785.8326 255.63483 785.8326 255.16608Q785.8326 254.38483 786.48883 253.85358Q787.1451 253.3067 788.17633 253.3067Q789.25446 253.3067 789.9107 253.8692Q790.5826 254.41608 790.5826 255.27545L789.50446 255.27545Q789.50446 254.83795 789.11383 254.52545Q788.73883 254.19733 788.17633 254.19733Q787.5826 254.19733 787.23883 254.46295Q786.9107 254.71295 786.9107 255.1192Q786.9107 255.50983 787.2232 255.71295Q787.5357 255.91608 788.3482 256.10358Q789.1607 256.27545 789.6607 256.52545Q790.1607 256.77545 790.3951 257.13483Q790.6451 257.4942 790.6451 257.9942Q790.6451 258.85358 789.9576 259.3692Q789.2857 259.88483 788.2076 259.88483Q787.44196 259.88483 786.8482 259.6192Q786.2701 259.33795 785.94196 258.85358Q785.61383 258.3692 785.61383 257.8067L786.69196 257.8067Q786.7232 258.35358 787.12946 258.6817Q787.5357 258.9942 788.2076 258.9942Q788.81696 258.9942 789.19196 258.7442Q789.56696 258.4942 789.56696 258.07233ZM791.61383 256.54108Q791.61383 255.07233 792.30133 254.19733Q792.98883 253.3067 794.11383 253.3067Q795.2232 253.3067 795.87946 254.0567L795.87946 250.75983L796.9576 250.75983L796.9576 259.75983L795.9576 259.75983L795.9107 259.07233Q795.25446 259.88483 794.0982 259.88483Q793.00446 259.88483 792.30133 258.97858Q791.61383 258.07233 791.61383 256.6192L791.61383 256.54108ZM792.69196 256.66608Q792.69196 257.7442 793.12946 258.35358Q793.5826 258.96295 794.36383 258.96295Q795.3951 258.96295 795.87946 258.02545L795.87946 255.1192Q795.3951 254.22858 794.37946 254.22858Q793.5826 254.22858 793.12946 254.83795Q792.69196 255.44733 792.69196 256.66608ZM802.7857 259.75983Q802.69196 259.57233 802.62946 259.08795Q801.87946 259.88483 800.8326 259.88483Q799.8951 259.88483 799.2857 259.35358Q798.69196 258.82233 798.69196 257.9942Q798.69196 257.00983 799.44196 256.46295Q800.19196 255.91608 801.56696 255.91608L802.61383 255.91608L802.61383 255.41608Q802.61383 254.85358 802.2701 254.52545Q801.94196 254.1817 801.2701 254.1817Q800.69196 254.1817 800.30133 254.47858Q799.9107 254.75983 799.9107 255.1817L798.81696 255.1817Q798.81696 254.69733 799.1451 254.25983Q799.48883 253.82233 800.06696 253.57233Q800.6451 253.3067 801.3326 253.3067Q802.44196 253.3067 803.05133 253.85358Q803.67633 254.40045 803.7076 255.35358L803.7076 258.27545Q803.7076 259.15045 803.92633 259.66608L803.92633 259.75983L802.7857 259.75983ZM800.98883 258.9317Q801.50446 258.9317 801.9576 258.66608Q802.4107 258.40045 802.61383 257.97858L802.61383 256.6817L801.7701 256.6817Q799.7701 256.6817 799.7701 257.85358Q799.7701 258.35358 800.11383 258.65045Q800.4576 258.9317 800.98883 258.9317ZM807.94196 258.16608L809.42633 253.41608L810.5826 253.41608L808.0357 260.7442Q807.44196 262.32233 806.1607 262.32233L805.94196 262.3067L805.55133 262.22858L805.55133 261.35358L805.8326 261.3692Q806.3951 261.3692 806.69196 261.15045Q807.00446 260.9317 807.2076 260.33795L807.44196 259.6817L805.17633 253.41608L806.36383 253.41608L807.94196 258.16608Z" fill-rule="nonzero"/><path fill="#757575" d="M27.1 30.761269L21.146875 30.761269L19.803125 34.48002L17.88125 34.48002L23.303125 20.261269L24.94375 20.261269L30.38125 34.48002L28.459375 34.48002L27.1 30.761269ZM21.709375 29.230019L26.553125 29.230019L24.13125 22.573769L21.709375 29.230019ZM35.459373 32.026894L38.06875 23.917519L39.9125 23.917519L36.13125 34.48002L34.75625 34.48002L30.928125 23.917519L32.771873 23.917519L35.459373 32.026894ZM46.35 34.683144Q44.209373 34.683144 42.85 33.276894Q41.50625 31.855019 41.50625 29.495644L41.50625 29.151894Q41.50625 27.589394 42.1 26.355019Q42.709373 25.120644 43.7875 24.417519Q44.865623 23.714394 46.13125 23.714394Q48.19375 23.714394 49.334373 25.073769Q50.475 26.433144 50.475 28.964394L50.475 29.714394L43.31875 29.714394Q43.35 31.276894 44.225 32.245644Q45.1 33.19877 46.44375 33.19877Q47.4125 33.19877 48.06875 32.808144Q48.740623 32.41752 49.240623 31.776894L50.334373 32.63627Q49.00625 34.683144 46.35 34.683144ZM46.13125 25.198769Q45.0375 25.198769 44.2875 25.995644Q43.553123 26.792519 43.38125 28.230019L48.6625 28.230019L48.6625 28.089394Q48.584373 26.714394 47.9125 25.964394Q47.25625 25.198769 46.13125 25.198769ZM58.06875 25.526894Q57.6625 25.464394 57.19375 25.464394Q55.4125 25.464394 54.771873 26.980019L54.771873 34.48002L52.975 34.48002L52.975 23.917519L54.725 23.917519L54.75625 25.136269Q55.646873 23.714394 57.271873 23.714394Q57.803123 23.714394 58.06875 23.855019L58.06875 25.526894ZM66.49062 34.48002Q66.33437 34.16752 66.24062 33.370644Q64.975 34.683144 63.225 34.683144Q61.6625 34.683144 60.6625 33.79252Q59.6625 32.901894 59.6625 31.542519Q59.6625 29.901894 60.9125 28.995644Q62.178123 28.073769 64.44375 28.073769L66.20937 28.073769L66.20937 27.245644Q66.20937 26.292519 65.63125 25.730019Q65.06875 25.167519 63.975 25.167519Q63.00625 25.167519 62.35 25.667519Q61.69375 26.151894 61.69375 26.839394L59.88125 26.839394Q59.88125 26.058144 60.44375 25.323769Q61.00625 24.573769 61.959373 24.151894Q62.928123 23.714394 64.08437 23.714394Q65.9125 23.714394 66.94375 24.636269Q67.975 25.542519 68.02187 27.151894L68.02187 32.01127Q68.02187 33.464394 68.38125 34.32377L68.38125 34.48002L66.49062 34.48002ZM63.490623 33.10502Q64.35 33.10502 65.1 32.66752Q65.86562 32.23002 66.20937 31.526894L66.20937 29.355019L64.7875 29.355019Q61.475 29.355019 61.475 31.292519Q61.475 32.151894 62.0375 32.63627Q62.6 33.10502 63.490623 33.10502ZM70.5375 29.105019Q70.5375 26.636269 71.67812 25.183144Q72.81875 23.714394 74.70937 23.714394Q76.64687 23.714394 77.725 25.089394L77.81875 23.917519L79.45937 23.917519L79.45937 34.23002Q79.45937 36.276894 78.24062 37.44877Q77.0375 38.63627 74.975 38.63627Q73.83437 38.63627 72.74062 38.151894Q71.64687 37.66752 71.06875 36.808144L72.00625 35.73002Q73.17812 37.16752 74.85 37.16752Q76.17812 37.16752 76.9125 36.41752Q77.64687 35.683144 77.64687 34.339394L77.64687 33.41752Q76.56875 34.683144 74.69375 34.683144Q72.83437 34.683144 71.67812 33.183144Q70.5375 31.683144 70.5375 29.105019ZM72.35 29.308144Q72.35 31.105019 73.08437 32.120644Q73.81875 33.13627 75.13125 33.13627Q76.85 33.13627 77.64687 31.589394L77.64687 26.761269Q76.81875 25.245644 75.1625 25.245644Q73.83437 25.245644 73.08437 26.276894Q72.35 27.308144 72.35 29.308144ZM86.35 34.683144Q84.20937 34.683144 82.85 33.276894Q81.50625 31.855019 81.50625 29.495644L81.50625 29.151894Q81.50625 27.589394 82.1 26.355019Q82.70937 25.120644 83.7875 24.417519Q84.86562 23.714394 86.13125 23.714394Q88.19375 23.714394 89.33437 25.073769Q90.475 26.433144 90.475 28.964394L90.475 29.714394L83.31875 29.714394Q83.35 31.276894 84.225 32.245644Q85.1 33.19877 86.44375 33.19877Q87.4125 33.19877 88.06875 32.808144Q88.74062 32.41752 89.24062 31.776894L90.33437 32.63627Q89.00625 34.683144 86.35 34.683144ZM86.13125 25.198769Q85.0375 25.198769 84.2875 25.995644Q83.55312 26.792519 83.38125 28.230019L88.6625 28.230019L88.6625 28.089394Q88.58437 26.714394 87.9125 25.964394Q87.25625 25.198769 86.13125 25.198769ZM106.1 28.198769L100.13125 28.198769L100.13125 34.48002L98.25625 34.48002L98.25625 20.261269L107.05312 20.261269L107.05312 21.808144L100.13125 21.808144L100.13125 26.667519L106.1 26.667519L106.1 28.198769ZM115.49062 34.48002Q115.33437 34.16752 115.24062 33.370644Q113.975 34.683144 112.225 34.683144Q110.6625 34.683144 109.6625 33.79252Q108.6625 32.901894 108.6625 31.542519Q108.6625 29.901894 109.9125 28.995644Q111.17812 28.073769 113.44375 28.073769L115.20937 28.073769L115.20937 27.245644Q115.20937 26.292519 114.63125 25.730019Q114.06875 25.167519 112.975 25.167519Q112.00625 25.167519 111.35 25.667519Q110.69375 26.151894 110.69375 26.839394L108.88125 26.839394Q108.88125 26.058144 109.44375 25.323769Q110.00625 24.573769 110.95937 24.151894Q111.92812 23.714394 113.08437 23.714394Q114.9125 23.714394 115.94375 24.636269Q116.975 25.542519 117.02187 27.151894L117.02187 32.01127Q117.02187 33.464394 117.38125 34.32377L117.38125 34.48002L115.49062 34.48002ZM112.49062 33.10502Q113.35 33.10502 114.1 32.66752Q114.86562 32.23002 115.20937 31.526894L115.20937 29.355019L113.7875 29.355019Q110.475 29.355019 110.475 31.292519Q110.475 32.151894 111.0375 32.63627Q111.6 33.10502 112.49062 33.10502ZM125.06875 25.526894Q124.6625 25.464394 124.19375 25.464394Q122.4125 25.464394 121.77187 26.980019L121.77187 34.48002L119.975 34.48002L119.975 23.917519L121.725 23.917519L121.75625 25.136269Q122.64687 23.714394 124.27187 23.714394Q124.80312 23.714394 125.06875 23.855019L125.06875 25.526894ZM131.35 34.683144Q129.20938 34.683144 127.85 33.276894Q126.50625 31.855019 126.50625 29.495644L126.50625 29.151894Q126.50625 27.589394 127.1 26.355019Q127.70937 25.120644 128.7875 24.417519Q129.86563 23.714394 131.13126 23.714394Q133.19376 23.714394 134.33438 25.073769Q135.475 26.433144 135.475 28.964394L135.475 29.714394L128.31876 29.714394Q128.35 31.276894 129.225 32.245644Q130.1 33.19877 131.44376 33.19877Q132.4125 33.19877 133.06876 32.808144Q133.74063 32.41752 134.24063 31.776894L135.33438 32.63627Q134.00626 34.683144 131.35 34.683144ZM131.13126 25.198769Q130.0375 25.198769 129.2875 25.995644Q128.55313 26.792519 128.38126 28.230019L133.6625 28.230019L133.6625 28.089394Q133.58438 26.714394 132.9125 25.964394Q132.25626 25.198769 131.13126 25.198769ZM144.11563 31.683144Q144.11563 30.948769 143.56876 30.542519Q143.02188 30.136269 141.64688 29.839394Q140.27188 29.542519 139.45938 29.136269Q138.6625 28.730019 138.27188 28.167519Q137.89688 27.589394 137.89688 26.808144Q137.89688 25.511269 138.99063 24.620644Q140.08438 23.714394 141.80313 23.714394Q143.6 23.714394 144.70938 24.651894Q145.83438 25.573769 145.83438 27.011269L144.00626 27.011269Q144.00626 26.276894 143.38126 25.745644Q142.75626 25.198769 141.80313 25.198769Q140.80313 25.198769 140.24063 25.636269Q139.69376 26.058144 139.69376 26.761269Q139.69376 27.401894 140.20938 27.745644Q140.725 28.073769 142.08438 28.386269Q143.44376 28.683144 144.27188 29.105019Q145.11563 29.511269 145.52188 30.105019Q145.92813 30.698769 145.92813 31.542519Q145.92813 32.964394 144.7875 33.82377Q143.6625 34.683144 141.85 34.683144Q140.58438 34.683144 139.6 34.23002Q138.63126 33.776894 138.06876 32.98002Q137.52188 32.16752 137.52188 31.230019L139.33438 31.230019Q139.38126 32.13627 140.05313 32.66752Q140.74063 33.19877 141.85 33.19877Q142.88126 33.19877 143.49063 32.79252Q144.11563 32.370644 144.11563 31.683144ZM152.52188 29.105019Q152.52188 26.683144 153.67813 25.198769Q154.83438 23.714394 156.69376 23.714394Q158.55313 23.714394 159.63126 24.980019L159.63126 19.480019L161.44376 19.480019L161.44376 34.48002L159.7875 34.48002L159.69376 33.339394Q158.61563 34.683144 156.67813 34.683144Q154.85 34.683144 153.67813 33.183144Q152.52188 31.667519 152.52188 29.245644L152.52188 29.105019ZM154.33438 29.308144Q154.33438 31.105019 155.06876 32.120644Q155.81876 33.13627 157.13126 33.13627Q158.85 33.13627 159.63126 31.605019L159.63126 26.745644Q158.83438 25.245644 157.14688 25.245644Q155.81876 25.245644 155.06876 26.276894Q154.33438 27.308144 154.33438 29.308144ZM170.49063 33.433144Q169.44376 34.683144 167.39688 34.683144Q165.70938 34.683144 164.81876 33.69877Q163.94376 32.714394 163.92813 30.792519L163.92813 23.917519L165.74063 23.917519L165.74063 30.745644Q165.74063 33.13627 167.69376 33.13627Q169.75626 33.13627 170.44376 31.605019L170.44376 23.917519L172.25626 23.917519L172.25626 34.48002L170.5375 34.48002L170.49063 33.433144ZM180.06876 25.526894Q179.6625 25.464394 179.19376 25.464394Q177.4125 25.464394 176.77188 26.980019L176.77188 34.48002L174.975 34.48002L174.975 23.917519L176.725 23.917519L176.75626 25.136269Q177.64688 23.714394 179.27188 23.714394Q179.80313 23.714394 180.06876 23.855019L180.06876 25.526894ZM183.92813 34.48002L182.13126 34.48002L182.13126 23.917519L183.92813 23.917519L183.92813 34.48002ZM181.975 21.105019Q181.975 20.667519 182.24063 20.370644Q182.52188 20.058144 183.0375 20.058144Q183.56876 20.058144 183.83438 20.370644Q184.11563 20.667519 184.11563 21.105019Q184.11563 21.542519 183.83438 21.839394Q183.56876 22.136269 183.0375 22.136269Q182.52188 22.136269 182.24063 21.839394Q181.975 21.542519 181.975 21.105019ZM188.67813 23.917519L188.74063 25.245644Q189.94376 23.714394 191.89688 23.714394Q195.25626 23.714394 195.27188 27.495644L195.27188 34.48002L193.475 34.48002L193.475 27.480019Q193.45938 26.339394 192.94376 25.792519Q192.44376 25.245644 191.35 25.245644Q190.475 25.245644 189.80313 25.714394Q189.14688 26.183144 188.77188 26.948769L188.77188 34.48002L186.975 34.48002L186.975 23.917519L188.67813 23.917519ZM197.5375 29.105019Q197.5375 26.636269 198.67813 25.183144Q199.81876 23.714394 201.70938 23.714394Q203.64688 23.714394 204.725 25.089394L204.81876 23.917519L206.45938 23.917519L206.45938 34.23002Q206.45938 36.276894 205.24063 37.44877Q204.0375 38.63627 201.975 38.63627Q200.83438 38.63627 199.74063 38.151894Q198.64688 37.66752 198.06876 36.808144L199.00626 35.73002Q200.17813 37.16752 201.85 37.16752Q203.17813 37.16752 203.9125 36.41752Q204.64688 35.683144 204.64688 34.339394L204.64688 33.41752Q203.56876 34.683144 201.69376 34.683144Q199.83438 34.683144 198.67813 33.183144Q197.5375 31.683144 197.5375 29.105019ZM199.35 29.308144Q199.35 31.105019 200.08438 32.120644Q200.81876 33.13627 202.13126 33.13627Q203.85 33.13627 204.64688 31.589394L204.64688 26.761269Q203.81876 25.245644 202.1625 25.245644Q200.83438 25.245644 200.08438 26.276894Q199.35 27.308144 199.35 29.308144ZM216.4125 21.355019L216.4125 23.917519L218.39688 23.917519L218.39688 25.308144L216.4125 25.308144L216.4125 31.855019Q216.4125 32.495644 216.67813 32.82377Q216.94376 33.13627 217.58438 33.13627Q217.89688 33.13627 218.44376 33.01127L218.44376 34.48002Q217.725 34.683144 217.05313 34.683144Q215.85 34.683144 215.225 33.94877Q214.61563 33.214394 214.61563 31.855019L214.61563 25.308144L212.69376 25.308144L212.69376 23.917519L214.61563 23.917519L214.61563 21.355019L216.4125 21.355019ZM222.77188 25.198769Q223.975 23.714394 225.89688 23.714394Q229.25626 23.714394 229.27188 27.495644L229.27188 34.48002L227.475 34.48002L227.475 27.480019Q227.45938 26.339394 226.94376 25.792519Q226.44376 25.245644 225.35 25.245644Q224.475 25.245644 223.80313 25.714394Q223.14688 26.183144 222.77188 26.948769L222.77188 34.48002L220.975 34.48002L220.975 19.480019L222.77188 19.480019L222.77188 25.198769ZM236.35 34.683144Q234.20938 34.683144 232.85 33.276894Q231.50626 31.855019 231.50626 29.495644L231.50626 29.151894Q231.50626 27.589394 232.1 26.355019Q232.70938 25.120644 233.7875 24.417519Q234.86563 23.714394 236.13126 23.714394Q238.19376 23.714394 239.33438 25.073769Q240.475 26.433144 240.475 28.964394L240.475 29.714394L233.31876 29.714394Q233.35 31.276894 234.225 32.245644Q235.1 33.19877 236.44376 33.19877Q237.4125 33.19877 238.06876 32.808144Q238.74063 32.41752 239.24063 31.776894L240.33438 32.63627Q239.00626 34.683144 236.35 34.683144ZM236.13126 25.198769Q235.0375 25.198769 234.2875 25.995644Q233.55313 26.792519 233.38126 28.230019L238.6625 28.230019L238.6625 28.089394Q238.58438 26.714394 237.9125 25.964394Q237.25626 25.198769 236.13126 25.198769ZM247.52188 29.105019Q247.52188 26.683144 248.67813 25.198769Q249.83438 23.714394 251.69376 23.714394Q253.55313 23.714394 254.63126 24.980019L254.63126 19.480019L256.44376 19.480019L256.44376 34.48002L254.7875 34.48002L254.69376 33.339394Q253.61563 34.683144 251.67813 34.683144Q249.85 34.683144 248.67813 33.183144Q247.52188 31.667519 247.52188 29.245644L247.52188 29.105019ZM249.33438 29.308144Q249.33438 31.105019 250.06876 32.120644Q250.81876 33.13627 252.13126 33.13627Q253.85 33.13627 254.63126 31.605019L254.63126 26.745644Q253.83438 25.245644 252.14688 25.245644Q250.81876 25.245644 250.06876 26.276894Q249.33438 27.308144 249.33438 29.308144ZM265.49063 34.48002Q265.33438 34.16752 265.24063 33.370644Q263.975 34.683144 262.225 34.683144Q260.6625 34.683144 259.6625 33.79252Q258.6625 32.901894 258.6625 31.542519Q258.6625 29.901894 259.9125 28.995644Q261.17813 28.073769 263.44376 28.073769L265.20938 28.073769L265.20938 27.245644Q265.20938 26.292519 264.63126 25.730019Q264.06876 25.167519 262.975 25.167519Q262.00626 25.167519 261.35 25.667519Q260.69376 26.151894 260.69376 26.839394L258.88126 26.839394Q258.88126 26.058144 259.44376 25.323769Q260.00626 24.573769 260.95938 24.151894Q261.92813 23.714394 263.08438 23.714394Q264.9125 23.714394 265.94376 24.636269Q266.975 25.542519 267.02188 27.151894L267.02188 32.01127Q267.02188 33.464394 267.38126 34.32377L267.38126 34.48002L265.49063 34.48002ZM262.49063 33.10502Q263.35 33.10502 264.1 32.66752Q264.86563 32.23002 265.20938 31.526894L265.20938 29.355019L263.7875 29.355019Q260.475 29.355019 260.475 31.292519Q260.475 32.151894 261.0375 32.63627Q261.6 33.10502 262.49063 33.10502ZM273.42813 31.839394L275.88126 23.917519L277.81876 23.917519L273.56876 36.10502Q272.58438 38.745644 270.44376 38.745644L270.1 38.714394L269.42813 38.589394L269.42813 37.120644L269.9125 37.16752Q270.83438 37.16752 271.33438 36.79252Q271.85 36.41752 272.17813 35.433144L272.58438 34.35502L268.81876 23.917519L270.7875 23.917519L273.42813 31.839394ZM285.11563 31.683144Q285.11563 30.948769 284.56876 30.542519Q284.02188 30.136269 282.64688 29.839394Q281.27188 29.542519 280.45938 29.136269Q279.6625 28.730019 279.27188 28.167519Q278.89688 27.589394 278.89688 26.808144Q278.89688 25.511269 279.99063 24.620644Q281.08438 23.714394 282.80313 23.714394Q284.6 23.714394 285.70938 24.651894Q286.83438 25.573769 286.83438 27.011269L285.00626 27.011269Q285.00626 26.276894 284.38126 25.745644Q283.75626 25.198769 282.80313 25.198769Q281.80313 25.198769 281.24063 25.636269Q280.69376 26.058144 280.69376 26.761269Q280.69376 27.401894 281.20938 27.745644Q281.725 28.073769 283.08438 28.386269Q284.44376 28.683144 285.27188 29.105019Q286.11563 29.511269 286.52188 30.105019Q286.92813 30.698769 286.92813 31.542519Q286.92813 32.964394 285.7875 33.82377Q284.6625 34.683144 282.85 34.683144Q281.58438 34.683144 280.6 34.23002Q279.63126 33.776894 279.06876 32.98002Q278.52188 32.16752 278.52188 31.230019L280.33438 31.230019Q280.38126 32.13627 281.05313 32.66752Q281.74063 33.19877 282.85 33.19877Q283.88126 33.19877 284.49063 32.79252Q285.11563 32.370644 285.11563 31.683144ZM293.49063 29.105019Q293.49063 27.542519 294.1 26.308144Q294.70938 25.058144 295.7875 24.386269Q296.88126 23.714394 298.2875 23.714394Q300.44376 23.714394 301.77188 25.214394Q303.11563 26.698769 303.11563 29.183144L303.11563 29.308144Q303.11563 30.855019 302.52188 32.089394Q301.92813 33.308144 300.81876 33.995644Q299.725 34.683144 298.30313 34.683144Q296.1625 34.683144 294.81876 33.183144Q293.49063 31.683144 293.49063 29.230019L293.49063 29.105019ZM295.30313 29.308144Q295.30313 31.073769 296.11563 32.13627Q296.94376 33.19877 298.30313 33.19877Q299.67813 33.19877 300.49063 32.120644Q301.30313 31.042519 301.30313 29.105019Q301.30313 27.355019 300.475 26.276894Q299.64688 25.198769 298.2875 25.198769Q296.94376 25.198769 296.11563 26.261269Q295.30313 27.323769 295.30313 29.308144ZM305.85 34.48002L305.85 25.308144L304.19376 25.308144L304.19376 23.917519L305.85 23.917519L305.85 22.823769Q305.85 21.136269 306.75626 20.214394Q307.67813 19.276894 309.33438 19.276894Q309.95938 19.276894 310.56876 19.433144L310.475 20.901894Q310.02188 20.823769 309.50626 20.823769Q308.61563 20.823769 308.13126 21.339394Q307.6625 21.839394 307.6625 22.792519L307.6625 23.917519L309.9125 23.917519L309.9125 25.308144L307.6625 25.308144L307.6625 34.48002L305.85 34.48002ZM319.4125 21.355019L319.4125 23.917519L321.39688 23.917519L321.39688 25.308144L319.4125 25.308144L319.4125 31.855019Q319.4125 32.495644 319.67813 32.82377Q319.94376 33.13627 320.58438 33.13627Q320.89688 33.13627 321.44376 33.01127L321.44376 34.48002Q320.725 34.683144 320.05313 34.683144Q318.85 34.683144 318.225 33.94877Q317.61563 33.214394 317.61563 31.855019L317.61563 25.308144L315.69376 25.308144L315.69376 23.917519L317.61563 23.917519L317.61563 21.355019L319.4125 21.355019ZM325.77188 25.198769Q326.975 23.714394 328.89688 23.714394Q332.25626 23.714394 332.27188 27.495644L332.27188 34.48002L330.475 34.48002L330.475 27.480019Q330.45938 26.339394 329.94376 25.792519Q329.44376 25.245644 328.35 25.245644Q327.475 25.245644 326.80313 25.714394Q326.14688 26.183144 325.77188 26.948769L325.77188 34.48002L323.975 34.48002L323.975 19.480019L325.77188 19.480019L325.77188 25.198769ZM339.35 34.683144Q337.20938 34.683144 335.85 33.276894Q334.50626 31.855019 334.50626 29.495644L334.50626 29.151894Q334.50626 27.589394 335.1 26.355019Q335.70938 25.120644 336.7875 24.417519Q337.86563 23.714394 339.13126 23.714394Q341.19376 23.714394 342.33438 25.073769Q343.475 26.433144 343.475 28.964394L343.475 29.714394L336.31876 29.714394Q336.35 31.276894 337.225 32.245644Q338.1 33.19877 339.44376 33.19877Q340.4125 33.19877 341.06876 32.808144Q341.74063 32.41752 342.24063 31.776894L343.33438 32.63627Q342.00626 34.683144 339.35 34.683144ZM339.13126 25.198769Q338.0375 25.198769 337.2875 25.995644Q336.55313 26.792519 336.38126 28.230019L341.6625 28.230019L341.6625 28.089394Q341.58438 26.714394 340.9125 25.964394Q340.25626 25.198769 339.13126 25.198769ZM360.31876 31.995644L362.35 23.917519L364.1625 23.917519L361.08438 34.48002L359.61563 34.48002L357.05313 26.464394L354.55313 34.48002L353.08438 34.48002L350.02188 23.917519L351.81876 23.917519L353.89688 31.823769L356.36563 23.917519L357.81876 23.917519L360.31876 31.995644ZM370.35 34.683144Q368.20938 34.683144 366.85 33.276894Q365.50626 31.855019 365.50626 29.495644L365.50626 29.151894Q365.50626 27.589394 366.1 26.355019Q366.70938 25.120644 367.7875 24.417519Q368.86563 23.714394 370.13126 23.714394Q372.19376 23.714394 373.33438 25.073769Q374.475 26.433144 374.475 28.964394L374.475 29.714394L367.31876 29.714394Q367.35 31.276894 368.225 32.245644Q369.1 33.19877 370.44376 33.19877Q371.4125 33.19877 372.06876 32.808144Q372.74063 32.41752 373.24063 31.776894L374.33438 32.63627Q373.00626 34.683144 370.35 34.683144ZM370.13126 25.198769Q369.0375 25.198769 368.2875 25.995644Q367.55313 26.792519 367.38126 28.230019L372.6625 28.230019L372.6625 28.089394Q372.58438 26.714394 371.9125 25.964394Q371.25626 25.198769 370.13126 25.198769ZM381.35 34.683144Q379.20938 34.683144 377.85 33.276894Q376.50626 31.855019 376.50626 29.495644L376.50626 29.151894Q376.50626 27.589394 377.1 26.355019Q377.70938 25.120644 378.7875 24.417519Q379.86563 23.714394 381.13126 23.714394Q383.19376 23.714394 384.33438 25.073769Q385.475 26.433144 385.475 28.964394L385.475 29.714394L378.31876 29.714394Q378.35 31.276894 379.225 32.245644Q380.1 33.19877 381.44376 33.19877Q382.4125 33.19877 383.06876 32.808144Q383.74063 32.41752 384.24063 31.776894L385.33438 32.63627Q384.00626 34.683144 381.35 34.683144ZM381.13126 25.198769Q380.0375 25.198769 379.2875 25.995644Q378.55313 26.792519 378.38126 28.230019L383.6625 28.230019L383.6625 28.089394Q383.58438 26.714394 382.9125 25.964394Q382.25626 25.198769 381.13126 25.198769ZM390.9125 29.589394L389.7875 30.761269L389.7875 34.48002L387.975 34.48002L387.975 19.480019L389.7875 19.480019L389.7875 28.558144L390.75626 27.386269L394.0375 23.917519L396.24063 23.917519L392.13126 28.323769L396.725 34.48002L394.6 34.48002L390.9125 29.589394Z" fill-rule="nonzero"/></svg>