<?xml version="1.0" encoding="UTF-8"?>
<svg width="600px" height="530px" viewBox="0 0 600 530" version="1.1" xmlns="http://www.w3.org/2000/svg" xmlns:xlink="http://www.w3.org/1999/xlink">
    <!-- Generator: Sketch 54.1 (76490) - https://sketchapp.com -->
    <title>mathjs-logo copy 4</title>
    <desc>Created with Sketch.</desc>
    <g id="mathjs-logo-copy-4" stroke="none" stroke-width="1" fill="none" fill-rule="evenodd">
        <rect fill="#FFFFFF" x="0" y="0" width="600" height="530"></rect>
        <path d="" id="Path" stroke="#979797"></path>
        <path d="M65.7691056,213.5 L19.5,213.5 L19.5,312.5 L88.5,312.5 L88.5,240.184093 L65.7691056,213.5 Z" id="Combined-Shape" stroke="#979797" fill="#D8D8D8"></path>
        <path d="M66.5,215.364972 L66.5,239.5 L86.9219467,239.5 L66.5,215.364972 Z" id="Path-3" stroke="#979797"></path>
        <path d="M29,228.5 L54,228.5" id="Path-4" stroke="#979797"></path>
        <path d="M29,233.5 L54,233.5" id="Path-4-Copy" stroke="#979797"></path>
        <path d="M29,238.5 L54,238.5" id="Path-4-Copy-2" stroke="#979797"></path>
        <path d="M29,243.5 L54,243.5" id="Path-4-Copy-3" stroke="#979797"></path>
        <text id="{-...-...-}" font-family="RobotoMono-Light, Roboto Mono Light" font-size="12" font-weight="normal" fill="#333333">
            <tspan x="25" y="257">{</tspan>
            <tspan x="25" y="273">  ...</tspan>
            <tspan x="25" y="289">  ...</tspan>
            <tspan x="25" y="305">}</tspan>
        </text>
        <text id="JSON" font-family="RobotoMono-Light, Roboto Mono Light" font-size="12" font-weight="normal" fill="#333333">
            <tspan x="57" y="308">JSON</tspan>
        </text>
        <rect id="Rectangle" stroke="#979797" fill="#D8D8D8" x="174.5" y="122.5" width="68" height="78"></rect>
        <rect id="Rectangle-Copy-36" stroke="#979797" fill="#D8D8D8" x="174.5" y="221.5" width="68" height="78"></rect>
        <rect id="Rectangle-Copy-73" stroke="#979797" fill="#D8D8D8" x="174.5" y="323.5" width="68" height="78"></rect>
        <rect id="Rectangle" fill="#898989" x="177" y="133" width="28" height="4"></rect>
        <rect id="Rectangle-Copy-37" fill="#898989" x="177" y="232" width="28" height="4"></rect>
        <rect id="Rectangle-Copy-74" fill="#898989" x="177" y="334" width="28" height="4"></rect>
        <rect id="Rectangle-Copy" fill="#B7B7B7" x="177" y="139" width="16" height="2"></rect>
        <rect id="Rectangle-Copy-38" fill="#B7B7B7" x="177" y="238" width="16" height="2"></rect>
        <rect id="Rectangle-Copy-75" fill="#B7B7B7" x="177" y="340" width="16" height="2"></rect>
        <rect id="Rectangle-Copy-5" fill="#B7B7B7" x="195" y="139" width="23" height="2"></rect>
        <rect id="Rectangle-Copy-39" fill="#B7B7B7" x="195" y="238" width="23" height="2"></rect>
        <rect id="Rectangle-Copy-76" fill="#B7B7B7" x="195" y="340" width="23" height="2"></rect>
        <rect id="Rectangle-Copy-6" fill="#B7B7B7" x="220" y="139" width="20" height="2"></rect>
        <rect id="Rectangle-Copy-40" fill="#B7B7B7" x="220" y="238" width="20" height="2"></rect>
        <rect id="Rectangle-Copy-77" fill="#B7B7B7" x="220" y="340" width="20" height="2"></rect>
        <rect id="Rectangle-Copy-2" fill="#B7B7B7" x="177" y="142" width="11" height="2"></rect>
        <rect id="Rectangle-Copy-41" fill="#B7B7B7" x="177" y="241" width="11" height="2"></rect>
        <rect id="Rectangle-Copy-78" fill="#B7B7B7" x="177" y="343" width="11" height="2"></rect>
        <rect id="Rectangle-Copy-9" fill="#898989" x="177" y="151" width="35" height="2"></rect>
        <rect id="Rectangle-Copy-42" fill="#898989" x="177" y="250" width="35" height="2"></rect>
        <rect id="Rectangle-Copy-79" fill="#898989" x="177" y="352" width="35" height="2"></rect>
        <rect id="Rectangle-Copy-18" fill="#898989" x="177" y="162" width="35" height="2"></rect>
        <rect id="Rectangle-Copy-43" fill="#898989" x="177" y="261" width="35" height="2"></rect>
        <rect id="Rectangle-Copy-80" fill="#898989" x="177" y="363" width="35" height="2"></rect>
        <rect id="Rectangle-Copy-27" fill="#898989" x="177" y="175" width="35" height="2"></rect>
        <rect id="Rectangle-Copy-44" fill="#898989" x="177" y="274" width="35" height="2"></rect>
        <rect id="Rectangle-Copy-81" fill="#898989" x="177" y="376" width="35" height="2"></rect>
        <rect id="Rectangle-Copy-11" fill="#B7B7B7" x="177" y="154" width="18" height="1"></rect>
        <rect id="Rectangle-Copy-45" fill="#B7B7B7" x="177" y="253" width="18" height="1"></rect>
        <rect id="Rectangle-Copy-82" fill="#B7B7B7" x="177" y="355" width="18" height="1"></rect>
        <rect id="Rectangle-Copy-19" fill="#B7B7B7" x="177" y="165" width="18" height="1"></rect>
        <rect id="Rectangle-Copy-46" fill="#B7B7B7" x="177" y="264" width="18" height="1"></rect>
        <rect id="Rectangle-Copy-83" fill="#B7B7B7" x="177" y="366" width="18" height="1"></rect>
        <rect id="Rectangle-Copy-28" fill="#B7B7B7" x="177" y="178" width="18" height="1"></rect>
        <rect id="Rectangle-Copy-47" fill="#B7B7B7" x="177" y="277" width="18" height="1"></rect>
        <rect id="Rectangle-Copy-84" fill="#B7B7B7" x="177" y="379" width="18" height="1"></rect>
        <rect id="Rectangle-Copy-12" fill="#B7B7B7" x="196" y="154" width="35" height="1"></rect>
        <rect id="Rectangle-Copy-48" fill="#B7B7B7" x="196" y="253" width="35" height="1"></rect>
        <rect id="Rectangle-Copy-85" fill="#B7B7B7" x="196" y="355" width="35" height="1"></rect>
        <rect id="Rectangle-Copy-20" fill="#B7B7B7" x="196" y="165" width="35" height="1"></rect>
        <rect id="Rectangle-Copy-49" fill="#B7B7B7" x="196" y="264" width="35" height="1"></rect>
        <rect id="Rectangle-Copy-86" fill="#B7B7B7" x="196" y="366" width="35" height="1"></rect>
        <rect id="Rectangle-Copy-29" fill="#B7B7B7" x="196" y="178" width="35" height="1"></rect>
        <rect id="Rectangle-Copy-50" fill="#B7B7B7" x="196" y="277" width="35" height="1"></rect>
        <rect id="Rectangle-Copy-87" fill="#B7B7B7" x="196" y="379" width="35" height="1"></rect>
        <rect id="Rectangle-Copy-13" fill="#B7B7B7" x="177" y="156" width="30" height="1"></rect>
        <rect id="Rectangle-Copy-51" fill="#B7B7B7" x="177" y="255" width="30" height="1"></rect>
        <rect id="Rectangle-Copy-88" fill="#B7B7B7" x="177" y="357" width="30" height="1"></rect>
        <rect id="Rectangle-Copy-21" fill="#B7B7B7" x="177" y="167" width="30" height="1"></rect>
        <rect id="Rectangle-Copy-52" fill="#B7B7B7" x="177" y="266" width="30" height="1"></rect>
        <rect id="Rectangle-Copy-89" fill="#B7B7B7" x="177" y="368" width="30" height="1"></rect>
        <rect id="Rectangle-Copy-30" fill="#B7B7B7" x="177" y="180" width="30" height="1"></rect>
        <rect id="Rectangle-Copy-53" fill="#B7B7B7" x="177" y="279" width="30" height="1"></rect>
        <rect id="Rectangle-Copy-90" fill="#B7B7B7" x="177" y="381" width="30" height="1"></rect>
        <rect id="Rectangle-Copy-14" fill="#B7B7B7" x="209" y="156" width="30" height="1"></rect>
        <rect id="Rectangle-Copy-54" fill="#B7B7B7" x="209" y="255" width="30" height="1"></rect>
        <rect id="Rectangle-Copy-91" fill="#B7B7B7" x="209" y="357" width="30" height="1"></rect>
        <rect id="Rectangle-Copy-22" fill="#B7B7B7" x="209" y="167" width="30" height="1"></rect>
        <rect id="Rectangle-Copy-55" fill="#B7B7B7" x="209" y="266" width="30" height="1"></rect>
        <rect id="Rectangle-Copy-92" fill="#B7B7B7" x="209" y="368" width="30" height="1"></rect>
        <rect id="Rectangle-Copy-31" fill="#B7B7B7" x="209" y="180" width="30" height="1"></rect>
        <rect id="Rectangle-Copy-56" fill="#B7B7B7" x="209" y="279" width="30" height="1"></rect>
        <rect id="Rectangle-Copy-93" fill="#B7B7B7" x="209" y="381" width="30" height="1"></rect>
        <rect id="Rectangle-Copy-15" fill="#B7B7B7" x="177" y="158" width="15" height="1"></rect>
        <rect id="Rectangle-Copy-57" fill="#B7B7B7" x="177" y="257" width="15" height="1"></rect>
        <rect id="Rectangle-Copy-94" fill="#B7B7B7" x="177" y="359" width="15" height="1"></rect>
        <rect id="Rectangle-Copy-23" fill="#B7B7B7" x="177" y="169" width="15" height="1"></rect>
        <rect id="Rectangle-Copy-58" fill="#B7B7B7" x="177" y="268" width="15" height="1"></rect>
        <rect id="Rectangle-Copy-95" fill="#B7B7B7" x="177" y="370" width="15" height="1"></rect>
        <rect id="Rectangle-Copy-32" fill="#B7B7B7" x="177" y="182" width="15" height="1"></rect>
        <rect id="Rectangle-Copy-59" fill="#B7B7B7" x="177" y="281" width="15" height="1"></rect>
        <rect id="Rectangle-Copy-96" fill="#B7B7B7" x="177" y="383" width="15" height="1"></rect>
        <rect id="Rectangle-Copy-16" fill="#B7B7B7" x="194" y="158" width="23" height="1"></rect>
        <rect id="Rectangle-Copy-60" fill="#B7B7B7" x="194" y="257" width="23" height="1"></rect>
        <rect id="Rectangle-Copy-97" fill="#B7B7B7" x="194" y="359" width="23" height="1"></rect>
        <rect id="Rectangle-Copy-24" fill="#B7B7B7" x="194" y="169" width="23" height="1"></rect>
        <rect id="Rectangle-Copy-61" fill="#B7B7B7" x="194" y="268" width="23" height="1"></rect>
        <rect id="Rectangle-Copy-98" fill="#B7B7B7" x="194" y="370" width="23" height="1"></rect>
        <rect id="Rectangle-Copy-33" fill="#B7B7B7" x="194" y="182" width="23" height="1"></rect>
        <rect id="Rectangle-Copy-62" fill="#B7B7B7" x="194" y="281" width="23" height="1"></rect>
        <rect id="Rectangle-Copy-99" fill="#B7B7B7" x="194" y="383" width="23" height="1"></rect>
        <rect id="Rectangle-Copy-17" fill="#B7B7B7" x="218" y="158" width="18" height="1"></rect>
        <rect id="Rectangle-Copy-63" fill="#B7B7B7" x="218" y="257" width="18" height="1"></rect>
        <rect id="Rectangle-Copy-100" fill="#B7B7B7" x="218" y="359" width="18" height="1"></rect>
        <rect id="Rectangle-Copy-25" fill="#B7B7B7" x="218" y="169" width="18" height="1"></rect>
        <rect id="Rectangle-Copy-64" fill="#B7B7B7" x="218" y="268" width="18" height="1"></rect>
        <rect id="Rectangle-Copy-101" fill="#B7B7B7" x="218" y="370" width="18" height="1"></rect>
        <rect id="Rectangle-Copy-34" fill="#B7B7B7" x="218" y="182" width="18" height="1"></rect>
        <rect id="Rectangle-Copy-65" fill="#B7B7B7" x="218" y="281" width="18" height="1"></rect>
        <rect id="Rectangle-Copy-102" fill="#B7B7B7" x="218" y="383" width="18" height="1"></rect>
        <rect id="Rectangle-Copy-10" fill="#898989" x="234" y="152" width="6" height="1"></rect>
        <rect id="Rectangle-Copy-66" fill="#898989" x="234" y="251" width="6" height="1"></rect>
        <rect id="Rectangle-Copy-103" fill="#898989" x="234" y="353" width="6" height="1"></rect>
        <rect id="Rectangle-Copy-26" fill="#898989" x="234" y="163" width="6" height="1"></rect>
        <rect id="Rectangle-Copy-67" fill="#898989" x="234" y="262" width="6" height="1"></rect>
        <rect id="Rectangle-Copy-104" fill="#898989" x="234" y="364" width="6" height="1"></rect>
        <rect id="Rectangle-Copy-35" fill="#898989" x="234" y="176" width="6" height="1"></rect>
        <rect id="Rectangle-Copy-68" fill="#898989" x="234" y="275" width="6" height="1"></rect>
        <rect id="Rectangle-Copy-105" fill="#898989" x="234" y="377" width="6" height="1"></rect>
        <rect id="Rectangle-Copy-3" fill="#B7B7B7" x="190" y="142" width="5" height="2"></rect>
        <rect id="Rectangle-Copy-69" fill="#B7B7B7" x="190" y="241" width="5" height="2"></rect>
        <rect id="Rectangle-Copy-106" fill="#B7B7B7" x="190" y="343" width="5" height="2"></rect>
        <rect id="Rectangle-Copy-4" fill="#B7B7B7" x="197" y="142" width="17" height="2"></rect>
        <rect id="Rectangle-Copy-70" fill="#B7B7B7" x="197" y="241" width="17" height="2"></rect>
        <rect id="Rectangle-Copy-107" fill="#B7B7B7" x="197" y="343" width="17" height="2"></rect>
        <rect id="Rectangle-Copy-7" fill="#B7B7B7" x="216" y="142" width="17" height="2"></rect>
        <rect id="Rectangle-Copy-71" fill="#B7B7B7" x="216" y="241" width="17" height="2"></rect>
        <rect id="Rectangle-Copy-108" fill="#B7B7B7" x="216" y="343" width="17" height="2"></rect>
        <rect id="Rectangle-Copy-8" fill="#B7B7B7" x="235" y="142" width="5" height="2"></rect>
        <rect id="Rectangle-Copy-72" fill="#B7B7B7" x="235" y="241" width="5" height="2"></rect>
        <rect id="Rectangle-Copy-109" fill="#B7B7B7" x="235" y="343" width="5" height="2"></rect>
        <circle id="Oval" fill="#333333" cx="178.5" cy="126.5" r="1.5"></circle>
        <circle id="Oval-Copy-3" fill="#333333" cx="178.5" cy="225.5" r="1.5"></circle>
        <circle id="Oval-Copy-6" fill="#333333" cx="178.5" cy="327.5" r="1.5"></circle>
        <circle id="Oval-Copy" fill="#333333" cx="182.5" cy="126.5" r="1.5"></circle>
        <circle id="Oval-Copy-4" fill="#333333" cx="182.5" cy="225.5" r="1.5"></circle>
        <circle id="Oval-Copy-7" fill="#333333" cx="182.5" cy="327.5" r="1.5"></circle>
        <circle id="Oval-Copy-2" fill="#333333" cx="186.5" cy="126.5" r="1.5"></circle>
        <circle id="Oval-Copy-5" fill="#333333" cx="186.5" cy="225.5" r="1.5"></circle>
        <circle id="Oval-Copy-8" fill="#333333" cx="186.5" cy="327.5" r="1.5"></circle>
        <path id="Path-5" d="M163.594622,151.571248 L157.28222,147.964745 L157.778298,147.096467 L166.51983,152.090821 L157.712288,156.967822 L157.227866,156.092988 L163.588005,152.571187 L157.517672,152.530426 C135.032909,153.028571 120.024837,159.636548 112.428992,172.323709 C103.968064,186.455795 98.3108279,218.713067 95.4992212,269.027897 L94.5007788,268.972103 C97.3214603,218.494878 102.997557,186.130063 111.571008,171.810031 C119.368957,158.785302 134.698616,152.035732 157.50994,151.53056 L163.594622,151.571248 Z" fill="#979797" fill-rule="nonzero"></path>
        <path id="Path-5-Copy" d="M163.594914,265.577336 L157.284583,261.96721 L157.781159,261.099218 L166.519824,266.098587 L157.709484,270.970533 L157.225564,270.095421 L163.587736,266.577264 L157.519181,266.533002 C135.040861,267.073454 120.038327,274.243484 112.437819,288.023471 C103.970256,303.37546 98.3115398,338.39892 95.4993388,393.025706 L94.5006612,392.974294 C97.3207485,338.19432 102.995366,303.072438 111.562181,287.540503 C119.355595,273.41077 134.69117,266.081573 157.510793,265.533159 L163.594914,265.577336 Z" fill="#979797" fill-rule="nonzero"></path>
        <circle id="Oval" stroke="#979797" fill="#D8D8D8" cx="95" cy="268" r="4"></circle>
        <path id="Path-6" d="M161.591247,268 L155.254869,264.435788 L155.745131,263.564212 L164.519864,268.5 L155.745131,273.435788 L155.254869,272.564212 L161.591247,269 L99,269 L99,268 L161.591247,268 Z" fill="#979797" fill-rule="nonzero"></path>
        <text id="1-Data-Point" font-family="Roboto-Bold, Roboto" font-size="18" font-weight="bold" fill="#333333">
            <tspan x="12" y="21">1 Data Point</tspan>
        </text>
        <text id="Many-Templates" font-family="Roboto-Bold, Roboto" font-size="18" font-weight="bold" fill="#333333">
            <tspan x="149" y="21">Many Templates</tspan>
        </text>
        <text id="Many-Job-Application" font-family="Roboto-Bold, Roboto" font-size="18" font-weight="bold" fill="#333333">
            <tspan x="366.308594" y="21">Many Job</tspan>
            <tspan x="355.335449" y="42">Applications</tspan>
        </text>
        <text id="Happy-User" font-family="Roboto-Bold, Roboto" font-size="18" font-weight="bold" fill="#333333">
            <tspan x="524.164551" y="21">Happy</tspan>
            <tspan x="531.30127" y="42">User</tspan>
        </text>
        <circle id="Oval" stroke="#979797" fill="#D8D8D8" cx="209" cy="454" r="26"></circle>
        <rect id="Rectangle" fill="#333333" x="207" y="437" width="4" height="34"></rect>
        <rect id="Rectangle-Copy-110" fill="#333333" transform="translate(209.000000, 454.000000) rotate(-270.000000) translate(-209.000000, -454.000000) " x="207" y="437" width="4" height="34"></rect>
        <text id="Create-your-own-temp" font-family="RobotoMono-Light, Roboto Mono Light" font-size="12" font-weight="normal" fill="#333333">
            <tspan x="154.491211" y="500">Create your own</tspan>
            <tspan x="179.695312" y="516">template</tspan>
        </text>
        <circle id="Oval" stroke="#979797" fill="#D8D8D8" cx="542" cy="236" r="18"></circle>
        <circle id="Oval" stroke="#979797" fill="#D8D8D8" cx="535.5" cy="232.5" r="2.5"></circle>
        <circle id="Oval-Copy-9" stroke="#979797" fill="#D8D8D8" cx="548.5" cy="232.5" r="2.5"></circle>
        <path d="M533,243 C537.266667,246.333333 540.466667,248 542.6,248 C544.733333,248 547.533333,246.333333 551,243" id="Path-7" stroke="#979797"></path>
        <path d="M533,243 C537.168582,245 540.295019,246 542.37931,246 C544.463602,246 547.003831,245.2 550,243.6" id="Path-7-Copy" stroke="#979797"></path>
        <circle id="Oval" fill="#333333" cx="535.5" cy="232.5" r="1"></circle>
        <circle id="Oval-Copy-10" fill="#333333" cx="548.5" cy="232.5" r="1"></circle>
        <path d="M526.563885,254.5 C525.826551,254.5 525.54702,254.55398 525.258954,254.708039 C525.020162,254.835746 524.835746,255.020162 524.708039,255.258954 C524.55398,255.54702 524.5,255.826551 524.5,256.563885 L524.5,291.436115 C524.5,292.173449 524.55398,292.45298 524.708039,292.741046 C524.835746,292.979838 525.020162,293.164254 525.258954,293.291961 C525.54702,293.44602 525.826551,293.5 526.563885,293.5 L557.436115,293.5 C558.173449,293.5 558.45298,293.44602 558.741046,293.291961 C558.979838,293.164254 559.164254,292.979838 559.291961,292.741046 C559.44602,292.45298 559.5,292.173449 559.5,291.436115 L559.5,256.563885 C559.5,255.826551 559.44602,255.54702 559.291961,255.258954 C559.164254,255.020162 558.979838,254.835746 558.741046,254.708039 C558.45298,254.55398 558.173449,254.5 557.436115,254.5 L526.563885,254.5 Z" id="Rectangle" stroke="#979797" fill="#D8D8D8"></path>
        <ellipse id="Oval" stroke="#979797" fill="#D8D8D8" cx="346" cy="246.5" rx="5" ry="4.5"></ellipse>
        <ellipse id="Oval-Copy-11" stroke="#979797" fill="#D8D8D8" cx="346" cy="264.5" rx="5" ry="4.5"></ellipse>
        <ellipse id="Oval-Copy-12" stroke="#979797" fill="#D8D8D8" cx="346" cy="284.5" rx="5" ry="4.5"></ellipse>
        <rect id="Rectangle" stroke="#979797" fill="#D8D8D8" x="358.5" y="242.5" width="50" height="7"></rect>
        <rect id="Rectangle-Copy-111" stroke="#979797" fill="#D8D8D8" x="358.5" y="260.5" width="50" height="8"></rect>
        <rect id="Rectangle-Copy-112" stroke="#979797" fill="#D8D8D8" x="358.5" y="280.5" width="50" height="8"></rect>
        <polygon id="Path-8-Copy" fill="#333333" points="337 260.44186 343.854545 269 366 249.209302 363.363636 246 343.854545 262.046512 340.163636 257.767442"></polygon>
        <polygon id="Path-8-Copy-2" fill="#333333" points="337 278.813953 343.854545 287 366 268.069767 363.363636 265 343.854545 280.348837 340.163636 276.255814"></polygon>
        <polygon id="Path-8" fill="#333333" points="338 241.813953 344.854545 250 367 231.069767 364.363636 228 344.854545 243.348837 341.163636 239.255814"></polygon>
    </g>
</svg>