<svg version="1.1" viewBox="0.0 0.0 471.0 291.0" fill="none" stroke="none" stroke-linecap="square" stroke-miterlimit="10" width="471" height="291" xmlns:xlink="http://www.w3.org/1999/xlink" xmlns="http://www.w3.org/2000/svg"><path fill="#ffffff" d="M0 0L471.0 0L471.0 291.0L0 291.0L0 0Z" fill-rule="nonzero"/><path fill="#4285f4" d="M235.5 48.25C263.317 48.25 290.1758 58.4118 311.02643 76.82474L235.5 162.35Z" fill-rule="nonzero"/><path fill="#db4437" d="M311.02643 76.82474C348.20853 109.65986 359.91583 162.75652 339.98975 208.18344L235.5 162.35Z" fill-rule="nonzero"/><path fill="#ab30c4" d="M181.1944 62.002045C197.87221 52.976463 216.5366 48.25 235.5 48.25L235.5 162.35Z" fill-rule="nonzero"/><path fill="#46bdc6" d="M142.63986 96.04913C152.73247 81.91357 165.919 70.26868 181.1944 62.002045L235.5 162.35Z" fill-rule="nonzero"/><path fill="#ff6d00" d="M121.61926 169.42026C119.99607 143.27534 127.41841 117.3681 142.63986 96.04913L235.5 162.35Z" fill-rule="nonzero"/><path fill="#0f9d58" d="M181.1944 262.69797C146.57568 243.96324 124.05841 208.7076 121.61926 169.42026L235.5 162.35Z" fill-rule="nonzero"/><path fill="#f4b400" d="M339.98975 208.18344C327.17606 237.3957 302.71884 259.91016 272.54822 270.26776C242.37758 280.62534 209.24873 277.88022 181.1944 262.69797L235.5 162.35Z" fill-rule="nonzero"/><path fill="#434343" d="M21.440624 52.640625L18.690624 52.640625L18.690624 60.25L17.58125 60.25L17.58125 52.640625L14.83125 52.640625L14.83125 51.71875L21.440624 51.71875L21.440624 52.640625ZM26.284374 59.625Q25.659374 60.375 24.425 60.375Q23.409374 60.375 22.878124 59.78125Q22.346874 59.1875 22.346874 58.03125L22.346874 53.90625L23.425 53.90625L23.425 58.0Q23.425 59.453125 24.596874 59.453125Q25.846874 59.453125 26.253124 58.515625L26.253124 53.90625L27.346874 53.90625L27.346874 60.25L26.315624 60.25L26.284374 59.625ZM32.003124 60.375Q30.70625 60.375 29.89375 59.53125Q29.096874 58.671875 29.096874 57.25L29.096874 57.0625Q29.096874 56.109375 29.45625 55.375Q29.815624 54.625 30.45625 54.21875Q31.1125 53.796875 31.8625 53.796875Q33.096874 53.796875 33.784374 54.609375Q34.471874 55.421875 34.471874 56.9375L34.471874 57.390625L30.175 57.390625Q30.20625 58.328125 30.721874 58.90625Q31.253124 59.484375 32.065624 59.484375Q32.628124 59.484375 33.01875 59.25Q33.425 59.015625 33.7375 58.625L34.39375 59.140625Q33.596874 60.375 32.003124 60.375ZM31.8625 54.6875Q31.20625 54.6875 30.753124 55.171875Q30.315624 55.640625 30.221874 56.5L33.39375 56.5L33.39375 56.421875Q33.346874 55.59375 32.940624 55.140625Q32.55 54.6875 31.8625 54.6875ZM39.065624 58.5625Q39.065624 58.125 38.721874 57.890625Q38.39375 57.640625 37.565624 57.46875Q36.753124 57.296875 36.26875 57.046875Q35.784374 56.796875 35.55 56.46875Q35.33125 56.125 35.33125 55.65625Q35.33125 54.875 35.9875 54.34375Q36.64375 53.796875 37.675 53.796875Q38.753124 53.796875 39.409374 54.359375Q40.08125 54.90625 40.08125 55.765625L39.003124 55.765625Q39.003124 55.328125 38.6125 55.015625Q38.2375 54.6875 37.675 54.6875Q37.08125 54.6875 36.7375 54.953125Q36.409374 55.203125 36.409374 55.609375Q36.409374 56.0 36.721874 56.203125Q37.034374 56.40625 37.846874 56.59375Q38.659374 56.765625 39.159374 57.015625Q39.659374 57.265625 39.89375 57.625Q40.14375 57.984375 40.14375 58.484375Q40.14375 59.34375 39.45625 59.859375Q38.784374 60.375 37.70625 60.375Q36.940624 60.375 36.346874 60.109375Q35.76875 59.828125 35.440624 59.34375Q35.1125 58.859375 35.1125 58.296875L36.190624 58.296875Q36.221874 58.84375 36.628124 59.171875Q37.034374 59.484375 37.70625 59.484375Q38.315624 59.484375 38.690624 59.234375Q39.065624 58.984375 39.065624 58.5625ZM41.1125 57.03125Q41.1125 55.5625 41.8 54.6875Q42.4875 53.796875 43.6125 53.796875Q44.721874 53.796875 45.378124 54.546875L45.378124 51.25L46.45625 51.25L46.45625 60.25L45.45625 60.25L45.409374 59.5625Q44.753124 60.375 43.596874 60.375Q42.503124 60.375 41.8 59.46875Q41.1125 58.5625 41.1125 57.109375L41.1125 57.03125ZM42.190624 57.15625Q42.190624 58.234375 42.628124 58.84375Q43.08125 59.453125 43.8625 59.453125Q44.89375 59.453125 45.378124 58.515625L45.378124 55.609375Q44.89375 54.71875 43.878124 54.71875Q43.08125 54.71875 42.628124 55.328125Q42.190624 55.9375 42.190624 57.15625ZM52.284374 60.25Q52.190624 60.0625 52.128124 59.578125Q51.378124 60.375 50.33125 60.375Q49.39375 60.375 48.784374 59.84375Q48.190624 59.3125 48.190624 58.484375Q48.190624 57.5 48.940624 56.953125Q49.690624 56.40625 51.065624 56.40625L52.1125 56.40625L52.1125 55.90625Q52.1125 55.34375 51.76875 55.015625Q51.440624 54.671875 50.76875 54.671875Q50.190624 54.671875 49.8 54.96875Q49.409374 55.25 49.409374 55.671875L48.315624 55.671875Q48.315624 55.1875 48.64375 54.75Q48.9875 54.3125 49.565624 54.0625Q50.14375 53.796875 50.83125 53.796875Q51.940624 53.796875 52.55 54.34375Q53.175 54.890625 53.20625 55.84375L53.20625 58.765625Q53.20625 59.640625 53.425 60.15625L53.425 60.25L52.284374 60.25ZM50.4875 59.421875Q51.003124 59.421875 51.45625 59.15625Q51.909374 58.890625 52.1125 58.46875L52.1125 57.171875L51.26875 57.171875Q49.26875 57.171875 49.26875 58.34375Q49.26875 58.84375 49.6125 59.140625Q49.95625 59.421875 50.4875 59.421875ZM57.440624 58.65625L58.925 53.90625L60.08125 53.90625L57.534374 61.234375Q56.940624 62.8125 55.659374 62.8125L55.440624 62.796875L55.05 62.71875L55.05 61.84375L55.33125 61.859375Q55.89375 61.859375 56.190624 61.640625Q56.503124 61.421875 56.70625 60.828125L56.940624 60.171875L54.675 53.90625L55.8625 53.90625L57.440624 58.65625Z" fill-rule="nonzero"/><path fill="#9e9e9e" d="M20.76875 70.328125L17.2375 78.25L16.096874 78.25L19.6125 70.609375L15.003125 70.609375L15.003125 69.71875L20.76875 69.71875L20.76875 70.328125ZM22.39375 77.6875Q22.39375 77.40625 22.55 77.21875Q22.721874 77.03125 23.05 77.03125Q23.39375 77.03125 23.565624 77.21875Q23.7375 77.40625 23.7375 77.6875Q23.7375 77.953125 23.565624 78.140625Q23.39375 78.3125 23.05 78.3125Q22.721874 78.3125 22.55 78.140625Q22.39375 77.953125 22.39375 77.6875ZM29.409374 74.5Q29.08125 74.90625 28.596874 75.15625Q28.128124 75.390625 27.565624 75.390625Q26.83125 75.390625 26.284374 75.03125Q25.7375 74.671875 25.440624 74.015625Q25.14375 73.34375 25.14375 72.546875Q25.14375 71.703125 25.45625 71.015625Q25.784374 70.328125 26.378124 69.96875Q26.9875 69.59375 27.784374 69.59375Q29.05 69.59375 29.76875 70.546875Q30.503124 71.5 30.503124 73.125L30.503124 73.4375Q30.503124 75.9375 29.51875 77.078125Q28.534374 78.21875 26.55 78.25L26.33125 78.25L26.33125 77.34375L26.565624 77.34375Q27.909374 77.3125 28.628124 76.640625Q29.346874 75.96875 29.409374 74.5ZM27.7375 74.5Q28.284374 74.5 28.7375 74.171875Q29.20625 73.828125 29.425 73.34375L29.425 72.90625Q29.425 71.84375 28.95625 71.171875Q28.4875 70.5 27.784374 70.5Q27.065624 70.5 26.628124 71.046875Q26.20625 71.59375 26.20625 72.5Q26.20625 73.375 26.6125 73.9375Q27.034374 74.5 27.7375 74.5ZM32.159374 71.359375Q32.159374 70.59375 32.64375 70.09375Q33.14375 69.59375 33.909374 69.59375Q34.690624 69.59375 35.175 70.09375Q35.659374 70.59375 35.659374 71.390625L35.659374 71.8125Q35.659374 72.578125 35.159374 73.078125Q34.675 73.5625 33.925 73.5625Q33.159374 73.5625 32.659374 73.078125Q32.159374 72.578125 32.159374 71.765625L32.159374 71.359375ZM32.971874 71.8125Q32.971874 72.265625 33.221874 72.5625Q33.4875 72.859375 33.925 72.859375Q34.346874 72.859375 34.596874 72.578125Q34.846874 72.28125 34.846874 71.78125L34.846874 71.359375Q34.846874 70.90625 34.596874 70.609375Q34.346874 70.296875 33.909374 70.296875Q33.471874 70.296875 33.221874 70.609375Q32.971874 70.90625 32.971874 71.375L32.971874 71.8125ZM36.315624 76.15625Q36.315624 75.390625 36.8 74.90625Q37.3 74.40625 38.065624 74.40625Q38.83125 74.40625 39.315624 74.90625Q39.815624 75.390625 39.815624 76.203125L39.815624 76.609375Q39.815624 77.375 39.33125 77.875Q38.846874 78.375 38.08125 78.375Q37.315624 78.375 36.815624 77.890625Q36.315624 77.390625 36.315624 76.578125L36.315624 76.15625ZM37.128124 76.609375Q37.128124 77.078125 37.378124 77.375Q37.64375 77.671875 38.08125 77.671875Q38.503124 77.671875 38.753124 77.390625Q39.003124 77.09375 39.003124 76.59375L39.003124 76.15625Q39.003124 75.6875 38.7375 75.40625Q38.4875 75.109375 38.065624 75.109375Q37.64375 75.109375 37.378124 75.40625Q37.128124 75.6875 37.128124 76.1875L37.128124 76.609375ZM34.175 77.609375L33.55 77.21875L37.721874 70.546875L38.33125 70.9375L34.175 77.609375Z" fill-rule="nonzero"/><path stroke="#757575" stroke-width="1.0" stroke-linecap="butt" d="M14.55 64.75L115.4 64.75L208.8906 57.27186" fill-rule="nonzero"/><path fill="#9e9e9e" d="M210.8906 57.27186C210.8906 56.16729 209.99516 55.27186 208.8906 55.27186C207.78603 55.27186 206.8906 56.16729 206.8906 57.27186C206.8906 58.376427 207.78603 59.27186 208.8906 59.27186C209.99516 59.27186 210.8906 58.376427 210.8906 57.27186" fill-rule="nonzero"/><path fill="#434343" d="M16.9875 84.71875L19.784374 91.671875L22.565624 84.71875L24.034374 84.71875L24.034374 93.25L22.909374 93.25L22.909374 89.921875L23.01875 86.34375L20.20625 93.25L19.346874 93.25L16.55 86.359375L16.659374 89.921875L16.659374 93.25L15.534375 93.25L15.534375 84.71875L16.9875 84.71875ZM25.08125 90.015625Q25.08125 89.09375 25.440624 88.34375Q25.815624 87.59375 26.471874 87.203125Q27.128124 86.796875 27.95625 86.796875Q29.253124 86.796875 30.05 87.6875Q30.8625 88.578125 30.8625 90.078125L30.8625 90.15625Q30.8625 91.078125 30.503124 91.8125Q30.14375 92.546875 29.4875 92.96875Q28.83125 93.375 27.971874 93.375Q26.690624 93.375 25.878124 92.484375Q25.08125 91.578125 25.08125 90.09375L25.08125 90.015625ZM26.175 90.15625Q26.175 91.203125 26.659374 91.84375Q27.159374 92.484375 27.971874 92.484375Q28.8 92.484375 29.284374 91.84375Q29.76875 91.1875 29.76875 90.015625Q29.76875 88.984375 29.26875 88.34375Q28.784374 87.6875 27.95625 87.6875Q27.159374 87.6875 26.659374 88.328125Q26.175 88.953125 26.175 90.15625ZM33.39375 86.90625L33.425 87.703125Q34.159374 86.796875 35.33125 86.796875Q37.346874 86.796875 37.3625 89.0625L37.3625 93.25L36.26875 93.25L36.26875 89.046875Q36.26875 88.375 35.95625 88.046875Q35.659374 87.71875 35.003124 87.71875Q34.471874 87.71875 34.065624 88.0Q33.675 88.28125 33.45625 88.734375L33.45625 93.25L32.378124 93.25L32.378124 86.90625L33.39375 86.90625ZM39.1125 90.03125Q39.1125 88.5625 39.8 87.6875Q40.4875 86.796875 41.6125 86.796875Q42.721874 86.796875 43.378124 87.546875L43.378124 84.25L44.45625 84.25L44.45625 93.25L43.45625 93.25L43.409374 92.5625Q42.753124 93.375 41.596874 93.375Q40.503124 93.375 39.8 92.46875Q39.1125 91.5625 39.1125 90.109375L39.1125 90.03125ZM40.190624 90.15625Q40.190624 91.234375 40.628124 91.84375Q41.08125 92.453125 41.8625 92.453125Q42.89375 92.453125 43.378124 91.515625L43.378124 88.609375Q42.89375 87.71875 41.878124 87.71875Q41.08125 87.71875 40.628124 88.328125Q40.190624 88.9375 40.190624 90.15625ZM50.284374 93.25Q50.190624 93.0625 50.128124 92.578125Q49.378124 93.375 48.33125 93.375Q47.39375 93.375 46.784374 92.84375Q46.190624 92.3125 46.190624 91.484375Q46.190624 90.5 46.940624 89.953125Q47.690624 89.40625 49.065624 89.40625L50.1125 89.40625L50.1125 88.90625Q50.1125 88.34375 49.76875 88.015625Q49.440624 87.671875 48.76875 87.671875Q48.190624 87.671875 47.8 87.96875Q47.409374 88.25 47.409374 88.671875L46.315624 88.671875Q46.315624 88.1875 46.64375 87.75Q46.9875 87.3125 47.565624 87.0625Q48.14375 86.796875 48.83125 86.796875Q49.940624 86.796875 50.55 87.34375Q51.175 87.890625 51.20625 88.84375L51.20625 91.765625Q51.20625 92.640625 51.425 93.15625L51.425 93.25L50.284374 93.25ZM48.4875 92.421875Q49.003124 92.421875 49.45625 92.15625Q49.909374 91.890625 50.1125 91.46875L50.1125 90.171875L49.26875 90.171875Q47.26875 90.171875 47.26875 91.34375Q47.26875 91.84375 47.6125 92.140625Q47.95625 92.421875 48.4875 92.421875ZM55.440624 91.65625L56.925 86.90625L58.08125 86.90625L55.534374 94.234375Q54.940624 95.8125 53.659374 95.8125L53.440624 95.796875L53.05 95.71875L53.05 94.84375L53.33125 94.859375Q53.89375 94.859375 54.190624 94.640625Q54.503124 94.421875 54.70625 93.828125L54.940624 93.171875L52.675 86.90625L53.8625 86.90625L55.440624 91.65625Z" fill-rule="nonzero"/><path fill="#9e9e9e" d="M20.76875 103.328125L17.2375 111.25L16.096874 111.25L19.6125 103.609375L15.003125 103.609375L15.003125 102.71875L20.76875 102.71875L20.76875 103.328125ZM22.39375 110.6875Q22.39375 110.40625 22.55 110.21875Q22.721874 110.03125 23.05 110.03125Q23.39375 110.03125 23.565624 110.21875Q23.7375 110.40625 23.7375 110.6875Q23.7375 110.953125 23.565624 111.140625Q23.39375 111.3125 23.05 111.3125Q22.721874 111.3125 22.55 111.140625Q22.39375 110.953125 22.39375 110.6875ZM30.846874 111.25L25.253124 111.25L25.253124 110.46875L28.20625 107.1875Q28.8625 106.4375 29.1125 105.984375Q29.3625 105.515625 29.3625 105.015625Q29.3625 104.34375 28.95625 103.921875Q28.565624 103.484375 27.878124 103.484375Q27.08125 103.484375 26.628124 103.953125Q26.175 104.40625 26.175 105.234375L25.096874 105.234375Q25.096874 104.046875 25.846874 103.328125Q26.6125 102.59375 27.878124 102.59375Q29.08125 102.59375 29.76875 103.21875Q30.45625 103.84375 30.45625 104.890625Q30.45625 106.140625 28.846874 107.890625L26.565624 110.359375L30.846874 110.359375L30.846874 111.25ZM32.159374 104.359375Q32.159374 103.59375 32.64375 103.09375Q33.14375 102.59375 33.909374 102.59375Q34.690624 102.59375 35.175 103.09375Q35.659374 103.59375 35.659374 104.390625L35.659374 104.8125Q35.659374 105.578125 35.159374 106.078125Q34.675 106.5625 33.925 106.5625Q33.159374 106.5625 32.659374 106.078125Q32.159374 105.578125 32.159374 104.765625L32.159374 104.359375ZM32.971874 104.8125Q32.971874 105.265625 33.221874 105.5625Q33.4875 105.859375 33.925 105.859375Q34.346874 105.859375 34.596874 105.578125Q34.846874 105.28125 34.846874 104.78125L34.846874 104.359375Q34.846874 103.90625 34.596874 103.609375Q34.346874 103.296875 33.909374 103.296875Q33.471874 103.296875 33.221874 103.609375Q32.971874 103.90625 32.971874 104.375L32.971874 104.8125ZM36.315624 109.15625Q36.315624 108.390625 36.8 107.90625Q37.3 107.40625 38.065624 107.40625Q38.83125 107.40625 39.315624 107.90625Q39.815624 108.390625 39.815624 109.203125L39.815624 109.609375Q39.815624 110.375 39.33125 110.875Q38.846874 111.375 38.08125 111.375Q37.315624 111.375 36.815624 110.890625Q36.315624 110.390625 36.315624 109.578125L36.315624 109.15625ZM37.128124 109.609375Q37.128124 110.078125 37.378124 110.375Q37.64375 110.671875 38.08125 110.671875Q38.503124 110.671875 38.753124 110.390625Q39.003124 110.09375 39.003124 109.59375L39.003124 109.15625Q39.003124 108.6875 38.7375 108.40625Q38.4875 108.109375 38.065624 108.109375Q37.64375 108.109375 37.378124 108.40625Q37.128124 108.6875 37.128124 109.1875L37.128124 109.609375ZM34.175 110.609375L33.55 110.21875L37.721874 103.546875L38.33125 103.9375L34.175 110.609375Z" fill-rule="nonzero"/><path stroke="#757575" stroke-width="1.0" stroke-linecap="butt" d="M14.55 97.75L115.4 97.75L163.74991 81.101" fill-rule="nonzero"/><path fill="#9e9e9e" d="M165.74991 81.101C165.74991 79.99643 164.85448 79.101 163.74991 79.101C162.64534 79.101 161.74991 79.99643 161.74991 81.101C161.74991 82.205574 162.64534 83.101 163.74991 83.101C164.85448 83.101 165.74991 82.205574 165.74991 81.101" fill-rule="nonzero"/><path fill="#434343" d="M21.440624 120.38684L18.690624 120.38684L18.690624 127.996216L17.58125 127.996216L17.58125 120.38684L14.83125 120.38684L14.83125 119.464966L21.440624 119.464966L21.440624 120.38684ZM23.45625 122.41809Q24.175 121.54309 25.33125 121.54309Q27.346874 121.54309 27.3625 123.808716L27.3625 127.996216L26.26875 127.996216L26.26875 123.79309Q26.26875 123.121216 25.95625 122.79309Q25.659374 122.464966 25.003124 122.464966Q24.471874 122.464966 24.065624 122.746216Q23.675 123.027466 23.45625 123.48059L23.45625 127.996216L22.378124 127.996216L22.378124 118.996216L23.45625 118.996216L23.45625 122.41809ZM33.284374 127.371216Q32.659374 128.12122 31.425 128.12122Q30.409374 128.12122 29.878124 127.527466Q29.346874 126.933716 29.346874 125.777466L29.346874 121.652466L30.425 121.652466L30.425 125.746216Q30.425 127.19934 31.596874 127.19934Q32.846874 127.19934 33.253124 126.26184L33.253124 121.652466L34.346874 121.652466L34.346874 127.996216L33.315624 127.996216L33.284374 127.371216ZM39.440624 122.621216Q39.190624 122.589966 38.909374 122.589966Q37.83125 122.589966 37.45625 123.496216L37.45625 127.996216L36.378124 127.996216L36.378124 121.652466L37.425 121.652466L37.440624 122.38684Q37.971874 121.54309 38.95625 121.54309Q39.26875 121.54309 39.440624 121.621216L39.440624 122.621216ZM44.065624 126.308716Q44.065624 125.871216 43.721874 125.63684Q43.39375 125.38684 42.565624 125.214966Q41.753124 125.04309 41.26875 124.79309Q40.784374 124.54309 40.55 124.214966Q40.33125 123.871216 40.33125 123.402466Q40.33125 122.621216 40.9875 122.089966Q41.64375 121.54309 42.675 121.54309Q43.753124 121.54309 44.409374 122.10559Q45.08125 122.652466 45.08125 123.51184L44.003124 123.51184Q44.003124 123.07434 43.6125 122.76184Q43.2375 122.433716 42.675 122.433716Q42.08125 122.433716 41.7375 122.69934Q41.409374 122.94934 41.409374 123.35559Q41.409374 123.746216 41.721874 123.94934Q42.034374 124.152466 42.846874 124.339966Q43.659374 124.51184 44.159374 124.76184Q44.659374 125.01184 44.89375 125.371216Q45.14375 125.73059 45.14375 126.23059Q45.14375 127.089966 44.45625 127.60559Q43.784374 128.12122 42.70625 128.12122Q41.940624 128.12122 41.346874 127.85559Q40.76875 127.57434 40.440624 127.089966Q40.1125 126.60559 40.1125 126.04309L41.190624 126.04309Q41.221874 126.589966 41.628124 126.91809Q42.034374 127.23059 42.70625 127.23059Q43.315624 127.23059 43.690624 126.98059Q44.065624 126.73059 44.065624 126.308716ZM46.1125 124.777466Q46.1125 123.308716 46.8 122.433716Q47.4875 121.54309 48.6125 121.54309Q49.721874 121.54309 50.378124 122.29309L50.378124 118.996216L51.45625 118.996216L51.45625 127.996216L50.45625 127.996216L50.409374 127.308716Q49.753124 128.12122 48.596874 128.12122Q47.503124 128.12122 46.8 127.214966Q46.1125 126.308716 46.1125 124.85559L46.1125 124.777466ZM47.190624 124.902466Q47.190624 125.98059 47.628124 126.589966Q48.08125 127.19934 48.8625 127.19934Q49.89375 127.19934 50.378124 126.26184L50.378124 123.35559Q49.89375 122.464966 48.878124 122.464966Q48.08125 122.464966 47.628124 123.07434Q47.190624 123.683716 47.190624 124.902466ZM57.284374 127.996216Q57.190624 127.808716 57.128124 127.32434Q56.378124 128.12122 55.33125 128.12122Q54.39375 128.12122 53.784374 127.589966Q53.190624 127.058716 53.190624 126.23059Q53.190624 125.246216 53.940624 124.69934Q54.690624 124.152466 56.065624 124.152466L57.1125 124.152466L57.1125 123.652466Q57.1125 123.089966 56.76875 122.76184Q56.440624 122.41809 55.76875 122.41809Q55.190624 122.41809 54.8 122.714966Q54.409374 122.996216 54.409374 123.41809L53.315624 123.41809Q53.315624 122.933716 53.64375 122.496216Q53.9875 122.058716 54.565624 121.808716Q55.14375 121.54309 55.83125 121.54309Q56.940624 121.54309 57.55 122.089966Q58.175 122.63684 58.20625 123.589966L58.20625 126.51184Q58.20625 127.38684 58.425 127.902466L58.425 127.996216L57.284374 127.996216ZM55.4875 127.16809Q56.003124 127.16809 56.45625 126.902466Q56.909374 126.63684 57.1125 126.214966L57.1125 124.91809L56.26875 124.91809Q54.26875 124.91809 54.26875 126.089966Q54.26875 126.589966 54.6125 126.88684Q54.95625 127.16809 55.4875 127.16809ZM62.440624 126.402466L63.925 121.652466L65.08125 121.652466L62.534374 128.98059Q61.940624 130.55872 60.659374 130.55872L60.440624 130.54309L60.05 130.46497L60.05 129.58997L60.33125 129.60559Q60.89375 129.60559 61.190624 129.38684Q61.503124 129.16809 61.70625 128.57434L61.940624 127.91809L59.675 121.652466L60.8625 121.652466L62.440624 126.402466Z" fill-rule="nonzero"/><path fill="#9e9e9e" d="M18.815624 145.99622L17.7375 145.99622L17.7375 138.77747L15.55 139.57434L15.55 138.58997L18.659374 137.41809L18.815624 137.41809L18.815624 145.99622ZM27.6125 142.35559Q27.6125 144.26184 26.95625 145.19934Q26.315624 146.12122 24.925 146.12122Q23.565624 146.12122 22.909374 145.21497Q22.253124 144.30872 22.221874 142.49622L22.221874 141.05872Q22.221874 139.16809 22.8625 138.26184Q23.51875 137.33997 24.909374 137.33997Q26.284374 137.33997 26.940624 138.23059Q27.596874 139.10559 27.6125 140.94934L27.6125 142.35559ZM26.51875 140.87122Q26.51875 139.49622 26.128124 138.87122Q25.753124 138.23059 24.909374 138.23059Q24.08125 138.23059 23.690624 138.87122Q23.315624 139.49622 23.315624 140.79309L23.315624 142.52747Q23.315624 143.90247 23.70625 144.57434Q24.1125 145.23059 24.925 145.23059Q25.721874 145.23059 26.1125 144.60559Q26.503124 143.98059 26.51875 142.65247L26.51875 140.87122ZM29.39375 145.43372Q29.39375 145.15247 29.55 144.96497Q29.721874 144.77747 30.05 144.77747Q30.39375 144.77747 30.565624 144.96497Q30.7375 145.15247 30.7375 145.43372Q30.7375 145.69934 30.565624 145.88684Q30.39375 146.05872 30.05 146.05872Q29.721874 146.05872 29.55 145.88684Q29.39375 145.69934 29.39375 145.43372ZM36.409374 142.24622Q36.08125 142.65247 35.596874 142.90247Q35.128124 143.13684 34.565624 143.13684Q33.83125 143.13684 33.284374 142.77747Q32.7375 142.41809 32.440624 141.76184Q32.14375 141.08997 32.14375 140.29309Q32.14375 139.44934 32.45625 138.76184Q32.784374 138.07434 33.378124 137.71497Q33.9875 137.33997 34.784374 137.33997Q36.05 137.33997 36.76875 138.29309Q37.503124 139.24622 37.503124 140.87122L37.503124 141.18372Q37.503124 143.68372 36.51875 144.82434Q35.534374 145.96497 33.55 145.99622L33.33125 145.99622L33.33125 145.08997L33.565624 145.08997Q34.909374 145.05872 35.628124 144.38684Q36.346874 143.71497 36.409374 142.24622ZM34.7375 142.24622Q35.284374 142.24622 35.7375 141.91809Q36.20625 141.57434 36.425 141.08997L36.425 140.65247Q36.425 139.58997 35.95625 138.91809Q35.4875 138.24622 34.784374 138.24622Q34.065624 138.24622 33.628124 138.79309Q33.20625 139.33997 33.20625 140.24622Q33.20625 141.12122 33.6125 141.68372Q34.034374 142.24622 34.7375 142.24622ZM39.159374 139.10559Q39.159374 138.33997 39.64375 137.83997Q40.14375 137.33997 40.909374 137.33997Q41.690624 137.33997 42.175 137.83997Q42.659374 138.33997 42.659374 139.13684L42.659374 139.55872Q42.659374 140.32434 42.159374 140.82434Q41.675 141.30872 40.925 141.30872Q40.159374 141.30872 39.659374 140.82434Q39.159374 140.32434 39.159374 139.51184L39.159374 139.10559ZM39.971874 139.55872Q39.971874 140.01184 40.221874 140.30872Q40.4875 140.60559 40.925 140.60559Q41.346874 140.60559 41.596874 140.32434Q41.846874 140.02747 41.846874 139.52747L41.846874 139.10559Q41.846874 138.65247 41.596874 138.35559Q41.346874 138.04309 40.909374 138.04309Q40.471874 138.04309 40.221874 138.35559Q39.971874 138.65247 39.971874 139.12122L39.971874 139.55872ZM43.315624 143.90247Q43.315624 143.13684 43.8 142.65247Q44.3 142.15247 45.065624 142.15247Q45.83125 142.15247 46.315624 142.65247Q46.815624 143.13684 46.815624 143.94934L46.815624 144.35559Q46.815624 145.12122 46.33125 145.62122Q45.846874 146.12122 45.08125 146.12122Q44.315624 146.12122 43.815624 145.63684Q43.315624 145.13684 43.315624 144.32434L43.315624 143.90247ZM44.128124 144.35559Q44.128124 144.82434 44.378124 145.12122Q44.64375 145.41809 45.08125 145.41809Q45.503124 145.41809 45.753124 145.13684Q46.003124 144.83997 46.003124 144.33997L46.003124 143.90247Q46.003124 143.43372 45.7375 143.15247Q45.4875 142.85559 45.065624 142.85559Q44.64375 142.85559 44.378124 143.15247Q44.128124 143.43372 44.128124 143.93372L44.128124 144.35559ZM41.175 145.35559L40.55 144.96497L44.721874 138.29309L45.33125 138.68372L41.175 145.35559Z" fill-rule="nonzero"/><path stroke="#757575" stroke-width="1.0" stroke-linecap="butt" d="M14.55 132.49622L115.4 132.49622L131.29718 132.49622" fill-rule="nonzero"/><path fill="#9e9e9e" d="M133.29718 132.49622C133.29718 131.39165 132.40175 130.49622 131.29718 130.49622C130.19261 130.49622 129.29718 131.39165 129.29718 132.49622C129.29718 133.60078 130.19261 134.49622 131.29718 134.49622C132.40175 134.49622 133.29718 133.60078 133.29718 132.49622" fill-rule="nonzero"/><path fill="#434343" d="M20.253124 212.4299L16.659374 212.4299L16.659374 216.19553L15.534375 216.19553L15.534375 207.66428L20.83125 207.66428L20.83125 208.58615L16.659374 208.58615L16.659374 211.50803L20.253124 211.50803L20.253124 212.4299ZM25.440624 210.82053Q25.190624 210.78928 24.909374 210.78928Q23.83125 210.78928 23.45625 211.69553L23.45625 216.19553L22.378124 216.19553L22.378124 209.85178L23.425 209.85178L23.440624 210.58615Q23.971874 209.7424 24.95625 209.7424Q25.26875 209.7424 25.440624 209.82053L25.440624 210.82053ZM27.55 216.19553L26.471874 216.19553L26.471874 209.85178L27.55 209.85178L27.55 216.19553ZM26.378124 208.1799Q26.378124 207.91428 26.534374 207.72678Q26.70625 207.53928 27.01875 207.53928Q27.33125 207.53928 27.4875 207.72678Q27.659374 207.91428 27.659374 208.1799Q27.659374 208.4299 27.4875 208.6174Q27.33125 208.78928 27.01875 208.78928Q26.70625 208.78928 26.534374 208.6174Q26.378124 208.4299 26.378124 208.1799ZM29.1125 212.97678Q29.1125 211.50803 29.8 210.63303Q30.4875 209.7424 31.6125 209.7424Q32.721874 209.7424 33.378124 210.4924L33.378124 207.19553L34.45625 207.19553L34.45625 216.19553L33.45625 216.19553L33.409374 215.50803Q32.753124 216.32053 31.596874 216.32053Q30.503124 216.32053 29.8 215.41428Q29.1125 214.50803 29.1125 213.0549L29.1125 212.97678ZM30.190624 213.10178Q30.190624 214.1799 30.628124 214.78928Q31.08125 215.39865 31.8625 215.39865Q32.89375 215.39865 33.378124 214.46115L33.378124 211.5549Q32.89375 210.66428 31.878124 210.66428Q31.08125 210.66428 30.628124 211.27365Q30.190624 211.88303 30.190624 213.10178ZM40.284374 216.19553Q40.190624 216.00803 40.128124 215.52365Q39.378124 216.32053 38.33125 216.32053Q37.39375 216.32053 36.784374 215.78928Q36.190624 215.25803 36.190624 214.4299Q36.190624 213.44553 36.940624 212.89865Q37.690624 212.35178 39.065624 212.35178L40.1125 212.35178L40.1125 211.85178Q40.1125 211.28928 39.76875 210.96115Q39.440624 210.6174 38.76875 210.6174Q38.190624 210.6174 37.8 210.91428Q37.409374 211.19553 37.409374 211.6174L36.315624 211.6174Q36.315624 211.13303 36.64375 210.69553Q36.9875 210.25803 37.565624 210.00803Q38.14375 209.7424 38.83125 209.7424Q39.940624 209.7424 40.55 210.28928Q41.175 210.83615 41.20625 211.78928L41.20625 214.71115Q41.20625 215.58615 41.425 216.10178L41.425 216.19553L40.284374 216.19553ZM38.4875 215.3674Q39.003124 215.3674 39.45625 215.10178Q39.909374 214.83615 40.1125 214.41428L40.1125 213.1174L39.26875 213.1174Q37.26875 213.1174 37.26875 214.28928Q37.26875 214.78928 37.6125 215.08615Q37.95625 215.3674 38.4875 215.3674ZM45.440624 214.60178L46.925 209.85178L48.08125 209.85178L45.534374 217.1799Q44.940624 218.75803 43.659374 218.75803L43.440624 218.7424L43.05 218.66428L43.05 217.78928L43.33125 217.8049Q43.89375 217.8049 44.190624 217.58615Q44.503124 217.3674 44.70625 216.77365L44.940624 216.1174L42.675 209.85178L43.8625 209.85178L45.440624 214.60178Z" fill-rule="nonzero"/><path fill="#9e9e9e" d="M18.815624 234.19553L17.7375 234.19553L17.7375 226.97678L15.55 227.77365L15.55 226.78928L18.659374 225.6174L18.815624 225.6174L18.815624 234.19553ZM26.51875 225.66428L26.51875 226.57053L26.315624 226.57053Q25.05 226.60178 24.3 227.33615Q23.55 228.0549 23.425 229.3674Q24.1125 228.60178 25.26875 228.60178Q26.378124 228.60178 27.05 229.38303Q27.721874 230.16428 27.721874 231.41428Q27.721874 232.72678 27.003124 233.52365Q26.284374 234.32053 25.065624 234.32053Q23.846874 234.32053 23.08125 233.38303Q22.33125 232.4299 22.33125 230.94553L22.33125 230.53928Q22.33125 228.1799 23.33125 226.9299Q24.33125 225.6799 26.315624 225.66428L26.51875 225.66428ZM25.096874 229.50803Q24.534374 229.50803 24.065624 229.83615Q23.596874 230.16428 23.409374 230.6799L23.409374 231.07053Q23.409374 232.13303 23.878124 232.77365Q24.3625 233.41428 25.065624 233.41428Q25.8 233.41428 26.221874 232.88303Q26.64375 232.33615 26.64375 231.46115Q26.64375 230.58615 26.221874 230.0549Q25.8 229.50803 25.096874 229.50803ZM29.39375 233.63303Q29.39375 233.35178 29.55 233.16428Q29.721874 232.97678 30.05 232.97678Q30.39375 232.97678 30.565624 233.16428Q30.7375 233.35178 30.7375 233.63303Q30.7375 233.89865 30.565624 234.08615Q30.39375 234.25803 30.05 234.25803Q29.721874 234.25803 29.55 234.08615Q29.39375 233.89865 29.39375 233.63303ZM35.815624 234.19553L34.7375 234.19553L34.7375 226.97678L32.55 227.77365L32.55 226.78928L35.659374 225.6174L35.815624 225.6174L35.815624 234.19553ZM39.159374 227.3049Q39.159374 226.53928 39.64375 226.03928Q40.14375 225.53928 40.909374 225.53928Q41.690624 225.53928 42.175 226.03928Q42.659374 226.53928 42.659374 227.33615L42.659374 227.75803Q42.659374 228.52365 42.159374 229.02365Q41.675 229.50803 40.925 229.50803Q40.159374 229.50803 39.659374 229.02365Q39.159374 228.52365 39.159374 227.71115L39.159374 227.3049ZM39.971874 227.75803Q39.971874 228.21115 40.221874 228.50803Q40.4875 228.8049 40.925 228.8049Q41.346874 228.8049 41.596874 228.52365Q41.846874 228.22678 41.846874 227.72678L41.846874 227.3049Q41.846874 226.85178 41.596874 226.5549Q41.346874 226.2424 40.909374 226.2424Q40.471874 226.2424 40.221874 226.5549Q39.971874 226.85178 39.971874 227.32053L39.971874 227.75803ZM43.315624 232.10178Q43.315624 231.33615 43.8 230.85178Q44.3 230.35178 45.065624 230.35178Q45.83125 230.35178 46.315624 230.85178Q46.815624 231.33615 46.815624 232.14865L46.815624 232.5549Q46.815624 233.32053 46.33125 233.82053Q45.846874 234.32053 45.08125 234.32053Q44.315624 234.32053 43.815624 233.83615Q43.315624 233.33615 43.315624 232.52365L43.315624 232.10178ZM44.128124 232.5549Q44.128124 233.02365 44.378124 233.32053Q44.64375 233.6174 45.08125 233.6174Q45.503124 233.6174 45.753124 233.33615Q46.003124 233.03928 46.003124 232.53928L46.003124 232.10178Q46.003124 231.63303 45.7375 231.35178Q45.4875 231.0549 45.065624 231.0549Q44.64375 231.0549 44.378124 231.35178Q44.128124 231.63303 44.128124 232.13303L44.128124 232.5549ZM41.175 233.5549L40.55 233.16428L44.721874 226.4924L45.33125 226.88303L41.175 233.5549Z" fill-rule="nonzero"/><path stroke="#757575" stroke-width="1.0" stroke-linecap="butt" d="M14.55 220.69553L115.4 220.69553L144.14752 220.69553" fill-rule="nonzero"/><path fill="#9e9e9e" d="M146.14752 220.69553C146.14752 219.59096 145.25209 218.69553 144.14752 218.69553C143.04295 218.69553 142.14752 219.59096 142.14752 220.69553C142.14752 221.8001 143.04295 222.69553 144.14752 222.69553C145.25209 222.69553 146.14752 221.8001 146.14752 220.69553" fill-rule="nonzero"/><path fill="#434343" d="M396.27814 57.5625L396.45 58.6875L396.6844 57.671875L398.3719 51.71875L399.325 51.71875L400.96564 57.671875L401.2 58.703125L401.3875 57.546875L402.71564 51.71875L403.84064 51.71875L401.77814 60.25L400.7469 60.25L398.98126 54.03125L398.85626 53.375L398.71564 54.03125L396.90314 60.25L395.8719 60.25L393.8094 51.71875L394.9344 51.71875L396.27814 57.5625ZM407.90314 60.375Q406.60626 60.375 405.79376 59.53125Q404.9969 58.671875 404.9969 57.25L404.9969 57.0625Q404.9969 56.109375 405.35626 55.375Q405.71564 54.625 406.35626 54.21875Q407.0125 53.796875 407.7625 53.796875Q408.9969 53.796875 409.6844 54.609375Q410.3719 55.421875 410.3719 56.9375L410.3719 57.390625L406.075 57.390625Q406.10626 58.328125 406.6219 58.90625Q407.15314 59.484375 407.96564 59.484375Q408.52814 59.484375 408.91876 59.25Q409.325 59.015625 409.6375 58.625L410.29376 59.140625Q409.4969 60.375 407.90314 60.375ZM407.7625 54.6875Q407.10626 54.6875 406.65314 55.171875Q406.21564 55.640625 406.1219 56.5L409.29376 56.5L409.29376 56.421875Q409.2469 55.59375 408.84064 55.140625Q408.45 54.6875 407.7625 54.6875ZM411.0125 57.03125Q411.0125 55.5625 411.7 54.6875Q412.3875 53.796875 413.5125 53.796875Q414.6219 53.796875 415.27814 54.546875L415.27814 51.25L416.35626 51.25L416.35626 60.25L415.35626 60.25L415.3094 59.5625Q414.65314 60.375 413.4969 60.375Q412.40314 60.375 411.7 59.46875Q411.0125 58.5625 411.0125 57.109375L411.0125 57.03125ZM412.09064 57.15625Q412.09064 58.234375 412.52814 58.84375Q412.98126 59.453125 413.7625 59.453125Q414.79376 59.453125 415.27814 58.515625L415.27814 55.609375Q414.79376 54.71875 413.77814 54.71875Q412.98126 54.71875 412.52814 55.328125Q412.09064 55.9375 412.09064 57.15625ZM419.29376 53.90625L419.325 54.703125Q420.0594 53.796875 421.23126 53.796875Q423.2469 53.796875 423.2625 56.0625L423.2625 60.25L422.16876 60.25L422.16876 56.046875Q422.16876 55.375 421.85626 55.046875Q421.5594 54.71875 420.90314 54.71875Q420.3719 54.71875 419.96564 55.0Q419.575 55.28125 419.35626 55.734375L419.35626 60.25L418.27814 60.25L418.27814 53.90625L419.29376 53.90625ZM427.90314 60.375Q426.60626 60.375 425.79376 59.53125Q424.9969 58.671875 424.9969 57.25L424.9969 57.0625Q424.9969 56.109375 425.35626 55.375Q425.71564 54.625 426.35626 54.21875Q427.0125 53.796875 427.7625 53.796875Q428.9969 53.796875 429.6844 54.609375Q430.3719 55.421875 430.3719 56.9375L430.3719 57.390625L426.075 57.390625Q426.10626 58.328125 426.6219 58.90625Q427.15314 59.484375 427.96564 59.484375Q428.52814 59.484375 428.91876 59.25Q429.325 59.015625 429.6375 58.625L430.29376 59.140625Q429.4969 60.375 427.90314 60.375ZM427.7625 54.6875Q427.10626 54.6875 426.65314 55.171875Q426.21564 55.640625 426.1219 56.5L429.29376 56.5L429.29376 56.421875Q429.2469 55.59375 428.84064 55.140625Q428.45 54.6875 427.7625 54.6875ZM434.96564 58.5625Q434.96564 58.125 434.6219 57.890625Q434.29376 57.640625 433.46564 57.46875Q432.65314 57.296875 432.16876 57.046875Q431.6844 56.796875 431.45 56.46875Q431.23126 56.125 431.23126 55.65625Q431.23126 54.875 431.8875 54.34375Q432.54376 53.796875 433.575 53.796875Q434.65314 53.796875 435.3094 54.359375Q435.98126 54.90625 435.98126 55.765625L434.90314 55.765625Q434.90314 55.328125 434.5125 55.015625Q434.1375 54.6875 433.575 54.6875Q432.98126 54.6875 432.6375 54.953125Q432.3094 55.203125 432.3094 55.609375Q432.3094 56.0 432.6219 56.203125Q432.9344 56.40625 433.7469 56.59375Q434.5594 56.765625 435.0594 57.015625Q435.5594 57.265625 435.79376 57.625Q436.04376 57.984375 436.04376 58.484375Q436.04376 59.34375 435.35626 59.859375Q434.6844 60.375 433.60626 60.375Q432.84064 60.375 432.2469 60.109375Q431.66876 59.828125 431.34064 59.34375Q431.0125 58.859375 431.0125 58.296875L432.09064 58.296875Q432.1219 58.84375 432.52814 59.171875Q432.9344 59.484375 433.60626 59.484375Q434.21564 59.484375 434.59064 59.234375Q434.96564 58.984375 434.96564 58.5625ZM437.0125 57.03125Q437.0125 55.5625 437.7 54.6875Q438.3875 53.796875 439.5125 53.796875Q440.6219 53.796875 441.27814 54.546875L441.27814 51.25L442.35626 51.25L442.35626 60.25L441.35626 60.25L441.3094 59.5625Q440.65314 60.375 439.4969 60.375Q438.40314 60.375 437.7 59.46875Q437.0125 58.5625 437.0125 57.109375L437.0125 57.03125ZM438.09064 57.15625Q438.09064 58.234375 438.52814 58.84375Q438.98126 59.453125 439.7625 59.453125Q440.79376 59.453125 441.27814 58.515625L441.27814 55.609375Q440.79376 54.71875 439.77814 54.71875Q438.98126 54.71875 438.52814 55.328125Q438.09064 55.9375 438.09064 57.15625ZM448.1844 60.25Q448.09064 60.0625 448.02814 59.578125Q447.27814 60.375 446.23126 60.375Q445.29376 60.375 444.6844 59.84375Q444.09064 59.3125 444.09064 58.484375Q444.09064 57.5 444.84064 56.953125Q445.59064 56.40625 446.96564 56.40625L448.0125 56.40625L448.0125 55.90625Q448.0125 55.34375 447.66876 55.015625Q447.34064 54.671875 446.66876 54.671875Q446.09064 54.671875 445.7 54.96875Q445.3094 55.25 445.3094 55.671875L444.21564 55.671875Q444.21564 55.1875 444.54376 54.75Q444.8875 54.3125 445.46564 54.0625Q446.04376 53.796875 446.73126 53.796875Q447.84064 53.796875 448.45 54.34375Q449.075 54.890625 449.10626 55.84375L449.10626 58.765625Q449.10626 59.640625 449.325 60.15625L449.325 60.25L448.1844 60.25ZM446.3875 59.421875Q446.90314 59.421875 447.35626 59.15625Q447.8094 58.890625 448.0125 58.46875L448.0125 57.171875L447.16876 57.171875Q445.16876 57.171875 445.16876 58.34375Q445.16876 58.84375 445.5125 59.140625Q445.85626 59.421875 446.3875 59.421875ZM453.34064 58.65625L454.825 53.90625L455.98126 53.90625L453.4344 61.234375Q452.84064 62.8125 451.5594 62.8125L451.34064 62.796875L450.95 62.71875L450.95 61.84375L451.23126 61.859375Q451.79376 61.859375 452.09064 61.640625Q452.40314 61.421875 452.60626 60.828125L452.84064 60.171875L450.575 53.90625L451.7625 53.90625L453.34064 58.65625Z" fill-rule="nonzero"/><path fill="#9e9e9e" d="M427.71564 78.25L426.6375 78.25L426.6375 71.03125L424.45 71.828125L424.45 70.84375L427.5594 69.671875L427.71564 69.671875L427.71564 78.25ZM434.71564 78.25L433.6375 78.25L433.6375 71.03125L431.45 71.828125L431.45 70.84375L434.5594 69.671875L434.71564 69.671875L434.71564 78.25ZM438.29376 77.6875Q438.29376 77.40625 438.45 77.21875Q438.6219 77.03125 438.95 77.03125Q439.29376 77.03125 439.46564 77.21875Q439.6375 77.40625 439.6375 77.6875Q439.6375 77.953125 439.46564 78.140625Q439.29376 78.3125 438.95 78.3125Q438.6219 78.3125 438.45 78.140625Q438.29376 77.953125 438.29376 77.6875ZM441.65314 73.96875L442.09064 69.71875L446.46564 69.71875L446.46564 70.71875L443.0125 70.71875L442.7469 73.046875Q443.3875 72.671875 444.1844 72.671875Q445.34064 72.671875 446.02814 73.453125Q446.71564 74.21875 446.71564 75.53125Q446.71564 76.84375 445.9969 77.609375Q445.29376 78.375 444.0125 78.375Q442.8875 78.375 442.16876 77.75Q441.45 77.109375 441.35626 76.0L442.3719 76.0Q442.48126 76.734375 442.90314 77.109375Q443.325 77.484375 444.0125 77.484375Q444.7625 77.484375 445.2 76.96875Q445.6375 76.453125 445.6375 75.546875Q445.6375 74.6875 445.16876 74.171875Q444.7 73.65625 443.91876 73.65625Q443.21564 73.65625 442.8094 73.953125L442.52814 74.1875L441.65314 73.96875ZM448.0594 71.359375Q448.0594 70.59375 448.54376 70.09375Q449.04376 69.59375 449.8094 69.59375Q450.59064 69.59375 451.075 70.09375Q451.5594 70.59375 451.5594 71.390625L451.5594 71.8125Q451.5594 72.578125 451.0594 73.078125Q450.575 73.5625 449.825 73.5625Q449.0594 73.5625 448.5594 73.078125Q448.0594 72.578125 448.0594 71.765625L448.0594 71.359375ZM448.8719 71.8125Q448.8719 72.265625 449.1219 72.5625Q449.3875 72.859375 449.825 72.859375Q450.2469 72.859375 450.4969 72.578125Q450.7469 72.28125 450.7469 71.78125L450.7469 71.359375Q450.7469 70.90625 450.4969 70.609375Q450.2469 70.296875 449.8094 70.296875Q449.3719 70.296875 449.1219 70.609375Q448.8719 70.90625 448.8719 71.375L448.8719 71.8125ZM452.21564 76.15625Q452.21564 75.390625 452.7 74.90625Q453.2 74.40625 453.96564 74.40625Q454.73126 74.40625 455.21564 74.90625Q455.71564 75.390625 455.71564 76.203125L455.71564 76.609375Q455.71564 77.375 455.23126 77.875Q454.7469 78.375 453.98126 78.375Q453.21564 78.375 452.71564 77.890625Q452.21564 77.390625 452.21564 76.578125L452.21564 76.15625ZM453.02814 76.609375Q453.02814 77.078125 453.27814 77.375Q453.54376 77.671875 453.98126 77.671875Q454.40314 77.671875 454.65314 77.390625Q454.90314 77.09375 454.90314 76.59375L454.90314 76.15625Q454.90314 75.6875 454.6375 75.40625Q454.3875 75.109375 453.96564 75.109375Q453.54376 75.109375 453.27814 75.40625Q453.02814 75.6875 453.02814 76.1875L453.02814 76.609375ZM450.075 77.609375L449.45 77.21875L453.6219 70.546875L454.23126 70.9375L450.075 77.609375Z" fill-rule="nonzero"/><path stroke="#757575" stroke-width="1.0" stroke-linecap="butt" d="M456.45 64.75L355.6 64.75L273.8568 60.96839" fill-rule="nonzero"/><path fill="#9e9e9e" d="M275.8568 60.96839C275.8568 59.863823 274.9614 58.96839 273.8568 58.96839C272.75226 58.96839 271.8568 59.863823 271.8568 60.96839C271.8568 62.07296 272.75226 62.96839 273.8568 62.96839C274.9614 62.96839 275.8568 62.07296 275.8568 60.96839" fill-rule="nonzero"/><path fill="#434343" d="M418.95 130.71368Q417.5125 130.29181 416.84064 129.68243Q416.1844 129.07306 416.1844 128.18243Q416.1844 127.182434 416.98126 126.526184Q417.79376 125.85431 419.09064 125.85431Q419.96564 125.85431 420.65314 126.19806Q421.34064 126.54181 421.71564 127.13556Q422.10626 127.72931 422.10626 128.44806L420.96564 128.44806Q420.96564 127.66681 420.46564 127.22931Q419.98126 126.79181 419.09064 126.79181Q418.2625 126.79181 417.79376 127.16681Q417.325 127.526184 417.325 128.16681Q417.325 128.69806 417.7625 129.05743Q418.21564 129.41681 419.27814 129.71368Q420.34064 130.01056 420.9344 130.36993Q421.54376 130.72931 421.825 131.21368Q422.1219 131.69806 422.1219 132.33868Q422.1219 133.38556 421.3094 134.01056Q420.4969 134.63556 419.15314 134.63556Q418.2625 134.63556 417.4969 134.29181Q416.7469 133.94806 416.325 133.36993Q415.91876 132.77618 415.91876 132.04181L417.04376 132.04181Q417.04376 132.80743 417.6219 133.26056Q418.2 133.71368 419.15314 133.71368Q420.04376 133.71368 420.5125 133.35431Q420.98126 132.97931 420.98126 132.35431Q420.98126 131.72931 420.54376 131.38556Q420.10626 131.04181 418.95 130.71368ZM427.1844 133.88556Q426.5594 134.63556 425.325 134.63556Q424.3094 134.63556 423.77814 134.04181Q423.2469 133.44806 423.2469 132.29181L423.2469 128.16681L424.325 128.16681L424.325 132.26056Q424.325 133.71368 425.4969 133.71368Q426.7469 133.71368 427.15314 132.77618L427.15314 128.16681L428.2469 128.16681L428.2469 134.51056L427.21564 134.51056L427.1844 133.88556ZM431.29376 128.16681L431.325 128.96368Q432.0594 128.05743 433.23126 128.05743Q435.2469 128.05743 435.2625 130.32306L435.2625 134.51056L434.16876 134.51056L434.16876 130.30743Q434.16876 129.63556 433.85626 129.30743Q433.5594 128.97931 432.90314 128.97931Q432.3719 128.97931 431.96564 129.26056Q431.575 129.54181 431.35626 129.99493L431.35626 134.51056L430.27814 134.51056L430.27814 128.16681L431.29376 128.16681ZM437.0125 131.29181Q437.0125 129.82306 437.7 128.94806Q438.3875 128.05743 439.5125 128.05743Q440.6219 128.05743 441.27814 128.80743L441.27814 125.51056L442.35626 125.51056L442.35626 134.51056L441.35626 134.51056L441.3094 133.82306Q440.65314 134.63556 439.4969 134.63556Q438.40314 134.63556 437.7 133.72931Q437.0125 132.82306 437.0125 131.36993L437.0125 131.29181ZM438.09064 131.41681Q438.09064 132.49493 438.52814 133.10431Q438.98126 133.71368 439.7625 133.71368Q440.79376 133.71368 441.27814 132.77618L441.27814 129.86993Q440.79376 128.97931 439.77814 128.97931Q438.98126 128.97931 438.52814 129.58868Q438.09064 130.19806 438.09064 131.41681ZM448.1844 134.51056Q448.09064 134.32306 448.02814 133.83868Q447.27814 134.63556 446.23126 134.63556Q445.29376 134.63556 444.6844 134.10431Q444.09064 133.57306 444.09064 132.74493Q444.09064 131.76056 444.84064 131.21368Q445.59064 130.66681 446.96564 130.66681L448.0125 130.66681L448.0125 130.16681Q448.0125 129.60431 447.66876 129.27618Q447.34064 128.93243 446.66876 128.93243Q446.09064 128.93243 445.7 129.22931Q445.3094 129.51056 445.3094 129.93243L444.21564 129.93243Q444.21564 129.44806 444.54376 129.01056Q444.8875 128.57306 445.46564 128.32306Q446.04376 128.05743 446.73126 128.05743Q447.84064 128.05743 448.45 128.60431Q449.075 129.15118 449.10626 130.10431L449.10626 133.02618Q449.10626 133.90118 449.325 134.41681L449.325 134.51056L448.1844 134.51056ZM446.3875 133.68243Q446.90314 133.68243 447.35626 133.41681Q447.8094 133.15118 448.0125 132.72931L448.0125 131.43243L447.16876 131.43243Q445.16876 131.43243 445.16876 132.60431Q445.16876 133.10431 445.5125 133.40118Q445.85626 133.68243 446.3875 133.68243ZM453.34064 132.91681L454.825 128.16681L455.98126 128.16681L453.4344 135.49493Q452.84064 137.07306 451.5594 137.07306L451.34064 137.05743L450.95 136.97931L450.95 136.10431L451.23126 136.11993Q451.79376 136.11993 452.09064 135.90118Q452.40314 135.68243 452.60626 135.08868L452.84064 134.43243L450.575 128.16681L451.7625 128.16681L453.34064 132.91681Z" fill-rule="nonzero"/><path fill="#9e9e9e" d="M429.7469 152.51056L424.15314 152.51056L424.15314 151.72931L427.10626 148.44806Q427.7625 147.69806 428.0125 147.24493Q428.2625 146.77618 428.2625 146.27618Q428.2625 145.60431 427.85626 145.18243Q427.46564 144.74493 426.77814 144.74493Q425.98126 144.74493 425.52814 145.21368Q425.075 145.66681 425.075 146.49493L423.9969 146.49493Q423.9969 145.30743 424.7469 144.58868Q425.5125 143.85431 426.77814 143.85431Q427.98126 143.85431 428.66876 144.47931Q429.35626 145.10431 429.35626 146.15118Q429.35626 147.40118 427.7469 149.15118L425.46564 151.61993L429.7469 151.61993L429.7469 152.51056ZM436.5125 148.86993Q436.5125 150.77618 435.85626 151.71368Q435.21564 152.63556 433.825 152.63556Q432.46564 152.63556 431.8094 151.72931Q431.15314 150.82306 431.1219 149.01056L431.1219 147.57306Q431.1219 145.68243 431.7625 144.77618Q432.41876 143.85431 433.8094 143.85431Q435.1844 143.85431 435.84064 144.74493Q436.4969 145.61993 436.5125 147.46368L436.5125 148.86993ZM435.41876 147.38556Q435.41876 146.01056 435.02814 145.38556Q434.65314 144.74493 433.8094 144.74493Q432.98126 144.74493 432.59064 145.38556Q432.21564 146.01056 432.21564 147.30743L432.21564 149.04181Q432.21564 150.41681 432.60626 151.08868Q433.0125 151.74493 433.825 151.74493Q434.6219 151.74493 435.0125 151.11993Q435.40314 150.49493 435.41876 149.16681L435.41876 147.38556ZM438.29376 151.94806Q438.29376 151.66681 438.45 151.47931Q438.6219 151.29181 438.95 151.29181Q439.29376 151.29181 439.46564 151.47931Q439.6375 151.66681 439.6375 151.94806Q439.6375 152.21368 439.46564 152.40118Q439.29376 152.57306 438.95 152.57306Q438.6219 152.57306 438.45 152.40118Q438.29376 152.21368 438.29376 151.94806ZM444.71564 152.51056L443.6375 152.51056L443.6375 145.29181L441.45 146.08868L441.45 145.10431L444.5594 143.93243L444.71564 143.93243L444.71564 152.51056ZM448.0594 145.61993Q448.0594 144.85431 448.54376 144.35431Q449.04376 143.85431 449.8094 143.85431Q450.59064 143.85431 451.075 144.35431Q451.5594 144.85431 451.5594 145.65118L451.5594 146.07306Q451.5594 146.83868 451.0594 147.33868Q450.575 147.82306 449.825 147.82306Q449.0594 147.82306 448.5594 147.33868Q448.0594 146.83868 448.0594 146.02618L448.0594 145.61993ZM448.8719 146.07306Q448.8719 146.52618 449.1219 146.82306Q449.3875 147.11993 449.825 147.11993Q450.2469 147.11993 450.4969 146.83868Q450.7469 146.54181 450.7469 146.04181L450.7469 145.61993Q450.7469 145.16681 450.4969 144.86993Q450.2469 144.55743 449.8094 144.55743Q449.3719 144.55743 449.1219 144.86993Q448.8719 145.16681 448.8719 145.63556L448.8719 146.07306ZM452.21564 150.41681Q452.21564 149.65118 452.7 149.16681Q453.2 148.66681 453.96564 148.66681Q454.73126 148.66681 455.21564 149.16681Q455.71564 149.65118 455.71564 150.46368L455.71564 150.86993Q455.71564 151.63556 455.23126 152.13556Q454.7469 152.63556 453.98126 152.63556Q453.21564 152.63556 452.71564 152.15118Q452.21564 151.65118 452.21564 150.83868L452.21564 150.41681ZM453.02814 150.86993Q453.02814 151.33868 453.27814 151.63556Q453.54376 151.93243 453.98126 151.93243Q454.40314 151.93243 454.65314 151.65118Q454.90314 151.35431 454.90314 150.85431L454.90314 150.41681Q454.90314 149.94806 454.6375 149.66681Q454.3875 149.36993 453.96564 149.36993Q453.54376 149.36993 453.27814 149.66681Q453.02814 149.94806 453.02814 150.44806L453.02814 150.86993ZM450.075 151.86993L449.45 151.47931L453.6219 144.80743L454.23126 145.19806L450.075 151.86993Z" fill-rule="nonzero"/><path stroke="#757575" stroke-width="1.0" stroke-linecap="butt" d="M456.45 139.01056L355.6 139.01056L341.35248 139.01056" fill-rule="nonzero"/><path fill="#9e9e9e" d="M343.35248 139.01056C343.35248 137.90599 342.45703 137.01056 341.35248 137.01056C340.2479 137.01056 339.35248 137.90599 339.35248 139.01056C339.35248 140.11513 340.2479 141.01056 341.35248 141.01056C342.45703 141.01056 343.35248 140.11513 343.35248 139.01056" fill-rule="nonzero"/><path fill="#434343" d="M410.95 251.65312Q409.5125 251.23125 408.84064 250.62187Q408.1844 250.0125 408.1844 249.12187Q408.1844 248.12187 408.98126 247.46562Q409.79376 246.79375 411.09064 246.79375Q411.96564 246.79375 412.65314 247.1375Q413.34064 247.48125 413.71564 248.075Q414.10626 248.66875 414.10626 249.3875L412.96564 249.3875Q412.96564 248.60625 412.46564 248.16875Q411.98126 247.73125 411.09064 247.73125Q410.2625 247.73125 409.79376 248.10625Q409.325 248.46562 409.325 249.10625Q409.325 249.6375 409.7625 249.99687Q410.21564 250.35625 411.27814 250.65312Q412.34064 250.95 412.9344 251.30937Q413.54376 251.66875 413.825 252.15312Q414.1219 252.6375 414.1219 253.27812Q414.1219 254.325 413.3094 254.95Q412.4969 255.575 411.15314 255.575Q410.2625 255.575 409.4969 255.23125Q408.7469 254.8875 408.325 254.30937Q407.91876 253.71562 407.91876 252.98125L409.04376 252.98125Q409.04376 253.74687 409.6219 254.2Q410.2 254.65312 411.15314 254.65312Q412.04376 254.65312 412.5125 254.29375Q412.98126 253.91875 412.98126 253.29375Q412.98126 252.66875 412.54376 252.325Q412.10626 251.98125 410.95 251.65312ZM419.1844 255.45Q419.09064 255.2625 419.02814 254.77812Q418.27814 255.575 417.23126 255.575Q416.29376 255.575 415.6844 255.04375Q415.09064 254.5125 415.09064 253.68437Q415.09064 252.7 415.84064 252.15312Q416.59064 251.60625 417.96564 251.60625L419.0125 251.60625L419.0125 251.10625Q419.0125 250.54375 418.66876 250.21562Q418.34064 249.87187 417.66876 249.87187Q417.09064 249.87187 416.7 250.16875Q416.3094 250.45 416.3094 250.87187L415.21564 250.87187Q415.21564 250.3875 415.54376 249.95Q415.8875 249.5125 416.46564 249.2625Q417.04376 248.99687 417.73126 248.99687Q418.84064 248.99687 419.45 249.54375Q420.075 250.09062 420.10626 251.04375L420.10626 253.96562Q420.10626 254.84062 420.325 255.35625L420.325 255.45L419.1844 255.45ZM417.3875 254.62187Q417.90314 254.62187 418.35626 254.35625Q418.8094 254.09062 419.0125 253.66875L419.0125 252.37187L418.16876 252.37187Q416.16876 252.37187 416.16876 253.54375Q416.16876 254.04375 416.5125 254.34062Q416.85626 254.62187 417.3875 254.62187ZM423.7469 247.575L423.7469 249.10625L424.91876 249.10625L424.91876 249.95L423.7469 249.95L423.7469 253.87187Q423.7469 254.2625 423.90314 254.45Q424.0594 254.6375 424.4344 254.6375Q424.6219 254.6375 424.95 254.575L424.95 255.45Q424.52814 255.575 424.1219 255.575Q423.40314 255.575 423.02814 255.1375Q422.65314 254.68437 422.65314 253.87187L422.65314 249.95L421.4969 249.95L421.4969 249.10625L422.65314 249.10625L422.65314 247.575L423.7469 247.575ZM430.1844 254.825Q429.5594 255.575 428.325 255.575Q427.3094 255.575 426.77814 254.98125Q426.2469 254.3875 426.2469 253.23125L426.2469 249.10625L427.325 249.10625L427.325 253.2Q427.325 254.65312 428.4969 254.65312Q429.7469 254.65312 430.15314 253.71562L430.15314 249.10625L431.2469 249.10625L431.2469 255.45L430.21564 255.45L430.1844 254.825ZM436.34064 250.075Q436.09064 250.04375 435.8094 250.04375Q434.73126 250.04375 434.35626 250.95L434.35626 255.45L433.27814 255.45L433.27814 249.10625L434.325 249.10625L434.34064 249.84062Q434.8719 248.99687 435.85626 248.99687Q436.16876 248.99687 436.34064 249.075L436.34064 250.075ZM437.0125 252.23125Q437.0125 250.7625 437.7 249.8875Q438.3875 248.99687 439.5125 248.99687Q440.6219 248.99687 441.27814 249.74687L441.27814 246.45L442.35626 246.45L442.35626 255.45L441.35626 255.45L441.3094 254.7625Q440.65314 255.575 439.4969 255.575Q438.40314 255.575 437.7 254.66875Q437.0125 253.7625 437.0125 252.30937L437.0125 252.23125ZM438.09064 252.35625Q438.09064 253.43437 438.52814 254.04375Q438.98126 254.65312 439.7625 254.65312Q440.79376 254.65312 441.27814 253.71562L441.27814 250.80937Q440.79376 249.91875 439.77814 249.91875Q438.98126 249.91875 438.52814 250.52812Q438.09064 251.1375 438.09064 252.35625ZM448.1844 255.45Q448.09064 255.2625 448.02814 254.77812Q447.27814 255.575 446.23126 255.575Q445.29376 255.575 444.6844 255.04375Q444.09064 254.5125 444.09064 253.68437Q444.09064 252.7 444.84064 252.15312Q445.59064 251.60625 446.96564 251.60625L448.0125 251.60625L448.0125 251.10625Q448.0125 250.54375 447.66876 250.21562Q447.34064 249.87187 446.66876 249.87187Q446.09064 249.87187 445.7 250.16875Q445.3094 250.45 445.3094 250.87187L444.21564 250.87187Q444.21564 250.3875 444.54376 249.95Q444.8875 249.5125 445.46564 249.2625Q446.04376 248.99687 446.73126 248.99687Q447.84064 248.99687 448.45 249.54375Q449.075 250.09062 449.10626 251.04375L449.10626 253.96562Q449.10626 254.84062 449.325 255.35625L449.325 255.45L448.1844 255.45ZM446.3875 254.62187Q446.90314 254.62187 447.35626 254.35625Q447.8094 254.09062 448.0125 253.66875L448.0125 252.37187L447.16876 252.37187Q445.16876 252.37187 445.16876 253.54375Q445.16876 254.04375 445.5125 254.34062Q445.85626 254.62187 446.3875 254.62187ZM453.34064 253.85625L454.825 249.10625L455.98126 249.10625L453.4344 256.4344Q452.84064 258.0125 451.5594 258.0125L451.34064 257.9969L450.95 257.91876L450.95 257.04376L451.23126 257.0594Q451.79376 257.0594 452.09064 256.84064Q452.40314 256.6219 452.60626 256.02814L452.84064 255.37187L450.575 249.10625L451.7625 249.10625L453.34064 253.85625Z" fill-rule="nonzero"/><path fill="#9e9e9e" d="M429.7469 273.45L424.15314 273.45L424.15314 272.66876L427.10626 269.3875Q427.7625 268.6375 428.0125 268.1844Q428.2625 267.71564 428.2625 267.21564Q428.2625 266.54376 427.85626 266.1219Q427.46564 265.6844 426.77814 265.6844Q425.98126 265.6844 425.52814 266.15314Q425.075 266.60626 425.075 267.4344L423.9969 267.4344Q423.9969 266.2469 424.7469 265.52814Q425.5125 264.79376 426.77814 264.79376Q427.98126 264.79376 428.66876 265.41876Q429.35626 266.04376 429.35626 267.09064Q429.35626 268.34064 427.7469 270.09064L425.46564 272.5594L429.7469 272.5594L429.7469 273.45ZM435.41876 264.91876L435.41876 265.825L435.21564 265.825Q433.95 265.85626 433.2 266.59064Q432.45 267.3094 432.325 268.6219Q433.0125 267.85626 434.16876 267.85626Q435.27814 267.85626 435.95 268.6375Q436.6219 269.41876 436.6219 270.66876Q436.6219 271.98126 435.90314 272.77814Q435.1844 273.575 433.96564 273.575Q432.7469 273.575 431.98126 272.6375Q431.23126 271.6844 431.23126 270.2L431.23126 269.79376Q431.23126 267.4344 432.23126 266.1844Q433.23126 264.9344 435.21564 264.91876L435.41876 264.91876ZM433.9969 268.7625Q433.4344 268.7625 432.96564 269.09064Q432.4969 269.41876 432.3094 269.9344L432.3094 270.325Q432.3094 271.3875 432.77814 272.02814Q433.2625 272.66876 433.96564 272.66876Q434.7 272.66876 435.1219 272.1375Q435.54376 271.59064 435.54376 270.71564Q435.54376 269.84064 435.1219 269.3094Q434.7 268.7625 433.9969 268.7625ZM438.29376 272.8875Q438.29376 272.60626 438.45 272.41876Q438.6219 272.23126 438.95 272.23126Q439.29376 272.23126 439.46564 272.41876Q439.6375 272.60626 439.6375 272.8875Q439.6375 273.15314 439.46564 273.34064Q439.29376 273.5125 438.95 273.5125Q438.6219 273.5125 438.45 273.34064Q438.29376 273.15314 438.29376 272.8875ZM442.73126 268.65314L443.54376 268.65314Q444.325 268.6375 444.7625 268.2469Q445.2 267.85626 445.2 267.1844Q445.2 265.6844 443.7 265.6844Q442.9969 265.6844 442.575 266.09064Q442.16876 266.4969 442.16876 267.15314L441.075 267.15314Q441.075 266.1375 441.8094 265.46564Q442.5594 264.79376 443.7 264.79376Q444.90314 264.79376 445.59064 265.4344Q446.27814 266.075 446.27814 267.21564Q446.27814 267.77814 445.91876 268.29376Q445.5594 268.8094 444.9344 269.075Q445.6375 269.29376 446.0125 269.8094Q446.40314 270.325 446.40314 271.075Q446.40314 272.21564 445.65314 272.90314Q444.90314 273.575 443.7 273.575Q442.5125 273.575 441.7469 272.91876Q440.9969 272.2625 440.9969 271.2L442.09064 271.2Q442.09064 271.8719 442.52814 272.27814Q442.96564 272.6844 443.71564 272.6844Q444.4969 272.6844 444.90314 272.27814Q445.325 271.85626 445.325 271.09064Q445.325 270.35626 444.8719 269.96564Q444.41876 269.5594 443.54376 269.54376L442.73126 269.54376L442.73126 268.65314ZM448.0594 266.5594Q448.0594 265.79376 448.54376 265.29376Q449.04376 264.79376 449.8094 264.79376Q450.59064 264.79376 451.075 265.29376Q451.5594 265.79376 451.5594 266.59064L451.5594 267.0125Q451.5594 267.77814 451.0594 268.27814Q450.575 268.7625 449.825 268.7625Q449.0594 268.7625 448.5594 268.27814Q448.0594 267.77814 448.0594 266.96564L448.0594 266.5594ZM448.8719 267.0125Q448.8719 267.46564 449.1219 267.7625Q449.3875 268.0594 449.825 268.0594Q450.2469 268.0594 450.4969 267.77814Q450.7469 267.48126 450.7469 266.98126L450.7469 266.5594Q450.7469 266.10626 450.4969 265.8094Q450.2469 265.4969 449.8094 265.4969Q449.3719 265.4969 449.1219 265.8094Q448.8719 266.10626 448.8719 266.575L448.8719 267.0125ZM452.21564 271.35626Q452.21564 270.59064 452.7 270.10626Q453.2 269.60626 453.96564 269.60626Q454.73126 269.60626 455.21564 270.10626Q455.71564 270.59064 455.71564 271.40314L455.71564 271.8094Q455.71564 272.575 455.23126 273.075Q454.7469 273.575 453.98126 273.575Q453.21564 273.575 452.71564 273.09064Q452.21564 272.59064 452.21564 271.77814L452.21564 271.35626ZM453.02814 271.8094Q453.02814 272.27814 453.27814 272.575Q453.54376 272.8719 453.98126 272.8719Q454.40314 272.8719 454.65314 272.59064Q454.90314 272.29376 454.90314 271.79376L454.90314 271.35626Q454.90314 270.8875 454.6375 270.60626Q454.3875 270.3094 453.96564 270.3094Q453.54376 270.3094 453.27814 270.60626Q453.02814 270.8875 453.02814 271.3875L453.02814 271.8094ZM450.075 272.8094L449.45 272.41876L453.6219 265.7469L454.23126 266.1375L450.075 272.8094Z" fill-rule="nonzero"/><path stroke="#757575" stroke-width="1.0" stroke-linecap="butt" d="M456.45 259.95L355.6 259.95L270.6958 264.87186" fill-rule="nonzero"/><path fill="#9e9e9e" d="M272.6958 264.87186C272.6958 263.7673 271.80035 262.87186 270.6958 262.87186C269.59122 262.87186 268.6958 263.7673 268.6958 264.87186C268.6958 265.97644 269.59122 266.87186 270.6958 266.87186C271.80035 266.87186 272.6958 265.97644 272.6958 264.87186" fill-rule="nonzero"/><path fill="#757575" d="M22.01875 29.55L19.440624 29.55L18.659374 33.55L17.26875 33.55L18.05 29.55L15.70625 29.55L15.70625 28.20625L18.3 28.20625L18.971874 24.753124L16.45625 24.753124L16.45625 23.39375L19.2375 23.39375L20.034374 19.33125L21.440624 19.33125L20.628124 23.39375L23.20625 23.39375L24.01875 19.33125L25.425 19.33125L24.6125 23.39375L26.6125 23.39375L26.6125 24.753124L24.3625 24.753124L23.675 28.20625L25.878124 28.20625L25.878124 29.55L23.425 29.55L22.64375 33.55L21.2375 33.55L22.01875 29.55ZM19.690624 28.20625L22.26875 28.20625L22.95625 24.753124L20.378124 24.753124L19.690624 28.20625ZM32.440624 28.175Q32.440624 26.6125 33.05 25.378124Q33.659374 24.128124 34.7375 23.45625Q35.83125 22.784374 37.2375 22.784374Q39.39375 22.784374 40.721874 24.284374Q42.065624 25.76875 42.065624 28.253124L42.065624 28.378124Q42.065624 29.925 41.471874 31.159374Q40.878124 32.378124 39.76875 33.065624Q38.675 33.753124 37.253124 33.753124Q35.1125 33.753124 33.76875 32.253124Q32.440624 30.753124 32.440624 28.3L32.440624 28.175ZM34.253124 28.378124Q34.253124 30.14375 35.065624 31.20625Q35.89375 32.26875 37.253124 32.26875Q38.628124 32.26875 39.440624 31.190624Q40.253124 30.1125 40.253124 28.175Q40.253124 26.425 39.425 25.346874Q38.596874 24.26875 37.2375 24.26875Q35.89375 24.26875 35.065624 25.33125Q34.253124 26.39375 34.253124 28.378124ZM44.8 33.55L44.8 24.378124L43.14375 24.378124L43.14375 22.9875L44.8 22.9875L44.8 21.89375Q44.8 20.20625 45.70625 19.284374Q46.628124 18.346874 48.284374 18.346874Q48.909374 18.346874 49.51875 18.503124L49.425 19.971874Q48.971874 19.89375 48.45625 19.89375Q47.565624 19.89375 47.08125 20.409374Q46.6125 20.909374 46.6125 21.8625L46.6125 22.9875L48.8625 22.9875L48.8625 24.378124L46.6125 24.378124L46.6125 33.55L44.8 33.55ZM60.159374 32.26875Q61.128124 32.26875 61.846874 31.690624Q62.565624 31.096874 62.64375 30.221874L64.3625 30.221874Q64.3 31.128124 63.721874 31.95625Q63.159374 32.76875 62.190624 33.26875Q61.2375 33.753124 60.159374 33.753124Q58.003124 33.753124 56.721874 32.315624Q55.45625 30.8625 55.45625 28.3625L55.45625 28.065624Q55.45625 26.51875 56.01875 25.315624Q56.58125 24.1125 57.64375 23.45625Q58.70625 22.784374 60.14375 22.784374Q61.925 22.784374 63.096874 23.846874Q64.28438 24.909374 64.3625 26.6125L62.64375 26.6125Q62.565624 25.596874 61.8625 24.940624Q61.175 24.26875 60.14375 24.26875Q58.76875 24.26875 58.003124 25.26875Q57.253124 26.253124 57.253124 28.128124L57.253124 28.471874Q57.253124 30.3 58.003124 31.284374Q58.753124 32.26875 60.159374 32.26875ZM72.44063 33.55Q72.28438 33.2375 72.19063 32.440624Q70.925 33.753124 69.175 33.753124Q67.6125 33.753124 66.6125 32.8625Q65.6125 31.971874 65.6125 30.6125Q65.6125 28.971874 66.8625 28.065624Q68.12813 27.14375 70.39375 27.14375L72.15938 27.14375L72.15938 26.315624Q72.15938 25.3625 71.58125 24.8Q71.01875 24.2375 69.925 24.2375Q68.95625 24.2375 68.3 24.7375Q67.64375 25.221874 67.64375 25.909374L65.83125 25.909374Q65.83125 25.128124 66.39375 24.39375Q66.95625 23.64375 67.90938 23.221874Q68.87813 22.784374 70.03438 22.784374Q71.8625 22.784374 72.89375 23.70625Q73.925 24.6125 73.97188 26.221874L73.97188 31.08125Q73.97188 32.534374 74.33125 33.39375L74.33125 33.55L72.44063 33.55ZM69.44063 32.175Q70.3 32.175 71.05 31.7375Q71.81563 31.3 72.15938 30.596874L72.15938 28.425L70.7375 28.425Q67.425 28.425 67.425 30.3625Q67.425 31.221874 67.9875 31.70625Q68.55 32.175 69.44063 32.175ZM85.8625 28.378124Q85.8625 30.8 84.75313 32.284374Q83.64375 33.753124 81.76875 33.753124Q79.75313 33.753124 78.65938 32.33125L78.58125 33.55L76.925 33.55L76.925 18.55L78.72188 18.55L78.72188 24.14375Q79.81563 22.784374 81.7375 22.784374Q83.65938 22.784374 84.75313 24.2375Q85.8625 25.690624 85.8625 28.221874L85.8625 28.378124ZM84.05 28.175Q84.05 26.33125 83.33125 25.33125Q82.62813 24.315624 81.3 24.315624Q79.50313 24.315624 78.72188 25.9875L78.72188 30.55Q79.55 32.20625 81.31563 32.20625Q82.6125 32.20625 83.33125 31.20625Q84.05 30.20625 84.05 28.175ZM94.06563 30.753124Q94.06563 30.01875 93.51875 29.6125Q92.97188 29.20625 91.59688 28.909374Q90.22188 28.6125 89.40938 28.20625Q88.6125 27.8 88.22188 27.2375Q87.84688 26.659374 87.84688 25.878124Q87.84688 24.58125 88.94063 23.690624Q90.03438 22.784374 91.75313 22.784374Q93.55 22.784374 94.65938 23.721874Q95.78438 24.64375 95.78438 26.08125L93.95625 26.08125Q93.95625 25.346874 93.33125 24.815624Q92.70625 24.26875 91.75313 24.26875Q90.75313 24.26875 90.19063 24.70625Q89.64375 25.128124 89.64375 25.83125Q89.64375 26.471874 90.15938 26.815624Q90.675 27.14375 92.03438 27.45625Q93.39375 27.753124 94.22188 28.175Q95.06563 28.58125 95.47188 29.175Q95.87813 29.76875 95.87813 30.6125Q95.87813 32.034374 94.7375 32.89375Q93.6125 33.753124 91.8 33.753124Q90.53438 33.753124 89.55 33.3Q88.58125 32.846874 88.01875 32.05Q87.47188 31.2375 87.47188 30.3L89.28438 30.3Q89.33125 31.20625 90.00313 31.7375Q90.69063 32.26875 91.8 32.26875Q92.83125 32.26875 93.44063 31.8625Q94.06563 31.440624 94.06563 30.753124ZM105.20625 33.55L103.33125 33.55L103.33125 19.33125L105.20625 19.33125L105.20625 33.55ZM115.3625 20.425L115.3625 22.9875L117.34688 22.9875L117.34688 24.378124L115.3625 24.378124L115.3625 30.925Q115.3625 31.565624 115.62813 31.89375Q115.89375 32.20625 116.53438 32.20625Q116.84688 32.20625 117.39375 32.08125L117.39375 33.55Q116.675 33.753124 116.00313 33.753124Q114.8 33.753124 114.175 33.01875Q113.56563 32.284374 113.56563 30.925L113.56563 24.378124L111.64375 24.378124L111.64375 22.9875L113.56563 22.9875L113.56563 20.425L115.3625 20.425ZM119.44063 28.175Q119.44063 26.6125 120.05 25.378124Q120.65938 24.128124 121.7375 23.45625Q122.83125 22.784374 124.2375 22.784374Q126.39375 22.784374 127.72188 24.284374Q129.06563 25.76875 129.06563 28.253124L129.06563 28.378124Q129.06563 29.925 128.47188 31.159374Q127.87813 32.378124 126.76875 33.065624Q125.675 33.753124 124.25313 33.753124Q122.1125 33.753124 120.76875 32.253124Q119.44063 30.753124 119.44063 28.3L119.44063 28.175ZM121.25313 28.378124Q121.25313 30.14375 122.06563 31.20625Q122.89375 32.26875 124.25313 32.26875Q125.62813 32.26875 126.44063 31.190624Q127.25313 30.1125 127.25313 28.175Q127.25313 26.425 126.425 25.346874Q125.59688 24.26875 124.2375 24.26875Q122.89375 24.26875 122.06563 25.33125Q121.25313 26.39375 121.25313 28.378124ZM130.44063 28.175Q130.44063 26.6125 131.05 25.378124Q131.65938 24.128124 132.7375 23.45625Q133.83125 22.784374 135.2375 22.784374Q137.39375 22.784374 138.72188 24.284374Q140.06563 25.76875 140.06563 28.253124L140.06563 28.378124Q140.06563 29.925 139.47188 31.159374Q138.87813 32.378124 137.76875 33.065624Q136.675 33.753124 135.25313 33.753124Q133.1125 33.753124 131.76875 32.253124Q130.44063 30.753124 130.44063 28.3L130.44063 28.175ZM132.25313 28.378124Q132.25313 30.14375 133.06563 31.20625Q133.89375 32.26875 135.25313 32.26875Q136.62813 32.26875 137.44063 31.190624Q138.25313 30.1125 138.25313 28.175Q138.25313 26.425 137.425 25.346874Q136.59688 24.26875 135.2375 24.26875Q133.89375 24.26875 133.06563 25.33125Q132.25313 26.39375 132.25313 28.378124ZM144.8625 28.659374L143.7375 29.83125L143.7375 33.55L141.925 33.55L141.925 18.55L143.7375 18.55L143.7375 27.628124L144.70625 26.45625L147.9875 22.9875L150.19063 22.9875L146.08125 27.39375L150.675 33.55L148.55 33.55L144.8625 28.659374ZM156.47188 28.175Q156.47188 25.753124 157.62813 24.26875Q158.78438 22.784374 160.64375 22.784374Q162.50313 22.784374 163.58125 24.05L163.58125 18.55L165.39375 18.55L165.39375 33.55L163.7375 33.55L163.64375 32.409374Q162.56563 33.753124 160.62813 33.753124Q158.8 33.753124 157.62813 32.253124Q156.47188 30.7375 156.47188 28.315624L156.47188 28.175ZM158.28438 28.378124Q158.28438 30.175 159.01875 31.190624Q159.76875 32.20625 161.08125 32.20625Q162.8 32.20625 163.58125 30.675L163.58125 25.815624Q162.78438 24.315624 161.09688 24.315624Q159.76875 24.315624 159.01875 25.346874Q158.28438 26.378124 158.28438 28.378124ZM174.44063 32.503124Q173.39375 33.753124 171.34688 33.753124Q169.65938 33.753124 168.76875 32.76875Q167.89375 31.784374 167.87813 29.8625L167.87813 22.9875L169.69063 22.9875L169.69063 29.815624Q169.69063 32.20625 171.64375 32.20625Q173.70625 32.20625 174.39375 30.675L174.39375 22.9875L176.20625 22.9875L176.20625 33.55L174.4875 33.55L174.44063 32.503124ZM184.01875 24.596874Q183.6125 24.534374 183.14375 24.534374Q181.3625 24.534374 180.72188 26.05L180.72188 33.55L178.925 33.55L178.925 22.9875L180.675 22.9875L180.70625 24.20625Q181.59688 22.784374 183.22188 22.784374Q183.75313 22.784374 184.01875 22.925L184.01875 24.596874ZM187.87813 33.55L186.08125 33.55L186.08125 22.9875L187.87813 22.9875L187.87813 33.55ZM185.925 20.175Q185.925 19.7375 186.19063 19.440624Q186.47188 19.128124 186.9875 19.128124Q187.51875 19.128124 187.78438 19.440624Q188.06563 19.7375 188.06563 20.175Q188.06563 20.6125 187.78438 20.909374Q187.51875 21.20625 186.9875 21.20625Q186.47188 21.20625 186.19063 20.909374Q185.925 20.6125 185.925 20.175ZM192.62813 22.9875L192.69063 24.315624Q193.89375 22.784374 195.84688 22.784374Q199.20625 22.784374 199.22188 26.565624L199.22188 33.55L197.425 33.55L197.425 26.55Q197.40938 25.409374 196.89375 24.8625Q196.39375 24.315624 195.3 24.315624Q194.425 24.315624 193.75313 24.784374Q193.09688 25.253124 192.72188 26.01875L192.72188 33.55L190.925 33.55L190.925 22.9875L192.62813 22.9875ZM201.4875 28.175Q201.4875 25.70625 202.62813 24.253124Q203.76875 22.784374 205.65938 22.784374Q207.59688 22.784374 208.675 24.159374L208.76875 22.9875L210.40938 22.9875L210.40938 33.3Q210.40938 35.346874 209.19063 36.51875Q207.9875 37.70625 205.925 37.70625Q204.78438 37.70625 203.69063 37.221874Q202.59688 36.7375 202.01875 35.878124L202.95625 34.8Q204.12813 36.2375 205.8 36.2375Q207.12813 36.2375 207.8625 35.4875Q208.59688 34.753124 208.59688 33.409374L208.59688 32.4875Q207.51875 33.753124 205.64375 33.753124Q203.78438 33.753124 202.62813 32.253124Q201.4875 30.753124 201.4875 28.175ZM203.3 28.378124Q203.3 30.175 204.03438 31.190624Q204.76875 32.20625 206.08125 32.20625Q207.8 32.20625 208.59688 30.659374L208.59688 25.83125Q207.76875 24.315624 206.1125 24.315624Q204.78438 24.315624 204.03438 25.346874Q203.3 26.378124 203.3 28.378124ZM220.3625 20.425L220.3625 22.9875L222.34688 22.9875L222.34688 24.378124L220.3625 24.378124L220.3625 30.925Q220.3625 31.565624 220.62813 31.89375Q220.89375 32.20625 221.53438 32.20625Q221.84688 32.20625 222.39375 32.08125L222.39375 33.55Q221.675 33.753124 221.00313 33.753124Q219.8 33.753124 219.175 33.01875Q218.56563 32.284374 218.56563 30.925L218.56563 24.378124L216.64375 24.378124L216.64375 22.9875L218.56563 22.9875L218.56563 20.425L220.3625 20.425ZM226.72188 24.26875Q227.925 22.784374 229.84688 22.784374Q233.20625 22.784374 233.22188 26.565624L233.22188 33.55L231.425 33.55L231.425 26.55Q231.40938 25.409374 230.89375 24.8625Q230.39375 24.315624 229.3 24.315624Q228.425 24.315624 227.75313 24.784374Q227.09688 25.253124 226.72188 26.01875L226.72188 33.55L224.925 33.55L224.925 18.55L226.72188 18.55L226.72188 24.26875ZM240.3 33.753124Q238.15938 33.753124 236.8 32.346874Q235.45625 30.925 235.45625 28.565624L235.45625 28.221874Q235.45625 26.659374 236.05 25.425Q236.65938 24.190624 237.7375 23.4875Q238.81563 22.784374 240.08125 22.784374Q242.14375 22.784374 243.28438 24.14375Q244.425 25.503124 244.425 28.034374L244.425 28.784374L237.26875 28.784374Q237.3 30.346874 238.175 31.315624Q239.05 32.26875 240.39375 32.26875Q241.3625 32.26875 242.01875 31.878124Q242.69063 31.4875 243.19063 30.846874L244.28438 31.70625Q242.95625 33.753124 240.3 33.753124ZM240.08125 24.26875Q238.9875 24.26875 238.2375 25.065624Q237.50313 25.8625 237.33125 27.3L242.6125 27.3L242.6125 27.159374Q242.53438 25.784374 241.8625 25.034374Q241.20625 24.26875 240.08125 24.26875ZM261.26874 31.065624L263.3 22.9875L265.1125 22.9875L262.03436 33.55L260.5656 33.55L258.0031 25.534374L255.50313 33.55L254.03438 33.55L250.97188 22.9875L252.76875 22.9875L254.84688 30.89375L257.3156 22.9875L258.76874 22.9875L261.26874 31.065624ZM271.3 33.753124Q269.15936 33.753124 267.8 32.346874Q266.45624 30.925 266.45624 28.565624L266.45624 28.221874Q266.45624 26.659374 267.05 25.425Q267.65936 24.190624 268.7375 23.4875Q269.8156 22.784374 271.08124 22.784374Q273.14374 22.784374 274.28436 24.14375Q275.425 25.503124 275.425 28.034374L275.425 28.784374L268.26874 28.784374Q268.3 30.346874 269.175 31.315624Q270.05 32.26875 271.39374 32.26875Q272.3625 32.26875 273.01874 31.878124Q273.6906 31.4875 274.1906 30.846874L275.28436 31.70625Q273.95624 33.753124 271.3 33.753124ZM271.08124 24.26875Q269.9875 24.26875 269.2375 25.065624Q268.5031 25.8625 268.33124 27.3L273.6125 27.3L273.6125 27.159374Q273.53436 25.784374 272.8625 25.034374Q272.20624 24.26875 271.08124 24.26875ZM282.3 33.753124Q280.15936 33.753124 278.8 32.346874Q277.45624 30.925 277.45624 28.565624L277.45624 28.221874Q277.45624 26.659374 278.05 25.425Q278.65936 24.190624 279.7375 23.4875Q280.8156 22.784374 282.08124 22.784374Q284.14374 22.784374 285.28436 24.14375Q286.425 25.503124 286.425 28.034374L286.425 28.784374L279.26874 28.784374Q279.3 30.346874 280.175 31.315624Q281.05 32.26875 282.39374 32.26875Q283.3625 32.26875 284.01874 31.878124Q284.6906 31.4875 285.1906 30.846874L286.28436 31.70625Q284.95624 33.753124 282.3 33.753124ZM282.08124 24.26875Q280.9875 24.26875 280.2375 25.065624Q279.5031 25.8625 279.33124 27.3L284.6125 27.3L284.6125 27.159374Q284.53436 25.784374 283.8625 25.034374Q283.20624 24.26875 282.08124 24.26875ZM291.8625 28.659374L290.7375 29.83125L290.7375 33.55L288.925 33.55L288.925 18.55L290.7375 18.55L290.7375 27.628124L291.70624 26.45625L294.9875 22.9875L297.1906 22.9875L293.08124 27.39375L297.675 33.55L295.55 33.55L291.8625 28.659374Z" fill-rule="nonzero"/></svg>