<?xml version="1.0" encoding="utf-8"?>
<!-- Generator: Adobe Illustrator 21.1.0, SVG Export Plug-In . SVG Version: 6.00 Build 0)  -->
<svg version="1.1" id="Layer_1" xmlns="http://www.w3.org/2000/svg" xmlns:xlink="http://www.w3.org/1999/xlink" x="0px" y="0px"
	 viewBox="0 0 280 80" style="enable-background:new 0 0 280 80;" xml:space="preserve">
<style type="text/css">
	.st0{opacity:0.1;}
	.st1{fill:#F04B4B;}
	.st2{fill:#A53231;}
	.st3{fill:#FFF7E1;}
</style>
<g>
	<g class="st0">
		<polygon points="274.9,80 0,80 0,0 280,0 		"/>
	</g>
	<g>
		<polygon class="st1" points="266,73.3 0,73.3 0,0 271,0 		"/>
	</g>
	<g>
		<path class="st2" d="M47.5,38.6c-0.6,2.3-1.4,4.7-2.5,7c-1.1,2.3-2.4,4.5-4,6.6c-1.6,2.1-3.4,3.9-5.4,5.5c-2,1.6-4.2,2.9-6.6,3.8
			c-2.4,1-4.9,1.4-7.6,1.4c-0.6,0-1.1,0-1.7-0.1c-0.6-0.1-1.1-0.1-1.7-0.2c1.1-5.5,2.1-10.9,3.2-16.1c0.4-2.2,0.8-4.5,1.3-6.9
			c0.4-2.4,0.9-4.7,1.3-7.1c0.4-2.3,0.8-4.5,1.2-6.7c0.4-2.1,0.7-4,0.9-5.8c1.7-0.3,3.5-0.6,5.2-0.9c1.8-0.3,3.6-0.4,5.4-0.4
			c2.2,0,4,0.3,5.5,1c1.5,0.7,2.7,1.6,3.7,2.8c0.9,1.2,1.6,2.6,2.1,4.2c0.4,1.6,0.7,3.3,0.7,5.1C48.4,34,48.1,36.2,47.5,38.6z
			 M32.9,34c-0.5,2.2-1,4.3-1.4,6.5c-0.5,2.2-1,4.5-1.4,6.9s-0.9,5-1.4,7.9c1-0.6,1.9-1.5,2.8-2.6c0.9-1.1,1.7-2.4,2.6-3.8
			c0.8-1.4,1.5-3,2.2-4.6c0.7-1.6,1.2-3.2,1.7-4.7c0.5-1.5,0.8-2.9,1.1-4.3c0.3-1.3,0.4-2.5,0.4-3.4c0-1.5-0.4-2.6-1.2-3.5
			c-0.8-0.8-2.1-1.3-3.9-1.3C33.8,29.6,33.4,31.9,32.9,34z"/>
		<path class="st2" d="M63.1,61.9c-1.2,0.2-2.3,0.4-3.2,0.5c0.2-1.3,0.3-2.6,0.5-3.9c0.1-1.1,0.2-2.2,0.3-3.4
			c0.1-1.1,0.2-2.1,0.3-2.9h-5.2L53.4,61c-0.9,0.1-1.9,0.3-3.1,0.4c-1.2,0.1-2.3,0.3-3.4,0.4c-1.3,0.2-2.5,0.3-3.8,0.5
			c1.6-5.3,3.2-10.6,4.7-15.7c0.6-2.2,1.3-4.4,2-6.8c0.7-2.4,1.4-4.7,2.1-7.1c0.7-2.3,1.4-4.6,2-6.8c0.6-2.2,1.2-4.1,1.7-5.9
			c2.7-0.2,5.5-0.4,8.3-0.7c2.8-0.3,5.6-0.7,8.2-1.1c-0.1,1.3-0.2,2.9-0.4,4.8c-0.1,1.9-0.3,4-0.4,6.2c-0.1,2.2-0.2,4.6-0.4,7
			c-0.1,2.4-0.2,4.8-0.4,7.2c-0.2,5.5-0.4,11.4-0.7,17.6c-1.2,0.2-2.4,0.4-3.6,0.5C65.4,61.5,64.3,61.7,63.1,61.9z M57.2,46.3
			c0.2,0,0.5,0,0.9,0c0.4,0,0.9,0,1.3-0.1c0.5,0,0.9,0,1.3-0.1c0.4,0,0.7,0,0.8-0.1c0-0.2,0-0.6,0.1-1.2c0.1-0.6,0.1-1.2,0.2-2
			c0.1-0.7,0.1-1.5,0.2-2.4c0.1-0.9,0.2-1.7,0.2-2.6c0.2-2,0.4-4.2,0.6-6.6l0.4-5.2l-0.9,0.1l-1.4,5.2L57.2,46.3z"/>
		<path class="st2" d="M75,61.7l2.8-12.1c0-1.7,0-3.6-0.1-5.6c-0.1-2-0.1-4.1-0.3-6.1s-0.2-4-0.4-5.9c-0.1-1.9-0.2-3.6-0.3-5
			c-0.1-1.5-0.2-3.1-0.4-4.8l9.8-3.7v7.3c0,1,0,2,0,3.1c0,1,0,2.1,0,3.1c0,1,0,1.9,0,2.8c0,0.9,0,1.6,0,2.2c0.5-1.4,1.1-3,1.9-5
			c0.7-2,1.4-3.9,2.1-5.8c0.8-2.2,1.5-4.5,2.3-7l9.3,2.1c-1.7,3.4-3.4,6.9-5,10.3c-0.7,1.5-1.4,3-2.2,4.6c-0.8,1.6-1.5,3.2-2.3,4.7
			c-0.8,1.6-1.5,3.1-2.2,4.6c-0.7,1.5-1.4,2.9-2,4.1c-0.2,1-0.5,2.2-0.8,3.4c-0.3,1.2-0.6,2.4-0.9,3.5c-0.4,1.3-0.7,2.6-1.1,4
			L75,61.7z"/>
		<path class="st2" d="M98.8,62.6c0.9-4.4,1.8-8.7,2.6-13c0.4-1.8,0.7-3.7,1.1-5.6c0.4-2,0.7-3.9,1-5.8c0.3-1.9,0.6-3.7,0.9-5.5
			c0.3-1.8,0.5-3.4,0.7-4.9c-0.9-0.1-1.9-0.2-2.8-0.1c-0.9,0-1.9-0.1-2.8-0.4c0-0.6,0.1-1.4,0.1-2.2s0-1.7,0.1-2.5
			c0-0.9,0.1-1.9,0.1-2.9c1,0.1,2.1,0.1,3.1,0.2c1,0,2.1,0.1,3.1,0.1c2,0,4,0,5.9-0.1c1.9-0.1,3.7-0.2,5.3-0.4
			c1.6-0.1,3.2-0.3,4.8-0.5l-0.7,3.2c-0.2,0.9-0.4,1.9-0.6,2.8c-0.2,1-0.4,1.8-0.5,2.5c-0.9,0.2-1.8,0.4-2.7,0.5
			c-0.9,0.1-1.8,0.2-2.7,0.4c-0.3,1.4-0.6,2.9-0.9,4.5c-0.3,1.7-0.6,3.4-0.9,5.2c-0.3,1.8-0.6,3.6-0.9,5.4c-0.3,1.8-0.6,3.6-0.8,5.3
			c-0.6,4-1.2,8.1-1.8,12.3L98.8,62.6z"/>
		<path class="st2" d="M115.3,62.6c1.1-5.3,2.1-10.5,3.1-15.6c0.4-2.2,0.8-4.4,1.2-6.8c0.4-2.3,0.8-4.7,1.2-7
			c0.4-2.3,0.7-4.5,1.1-6.7c0.3-2.1,0.6-4.1,0.8-5.8c2.3-0.7,4.7-1.2,7.4-1.6c2.6-0.3,5.3-0.5,7.9-0.5c1.6,0,2.9,0.2,3.9,0.5
			c1,0.4,1.8,0.9,2.4,1.5c0.6,0.7,1,1.4,1.2,2.3c0.2,0.9,0.4,1.9,0.4,2.9c0,1.6-0.3,3.2-0.8,4.7c-0.6,1.5-1.3,3-2.2,4.4
			c-0.9,1.4-2,2.6-3.2,3.8c-1.2,1.1-2.5,2.1-3.9,2.8c0.7,1.6,1.5,3.4,2.3,5.2c0.8,1.9,1.6,3.7,2.3,5.4c0.8,2,1.6,4,2.5,6l-9.3,3.2
			c-0.8-2.6-1.5-5-2.2-7.2c-0.3-0.9-0.6-1.9-0.8-2.8c-0.3-1-0.5-1.9-0.8-2.8c-0.2-0.9-0.4-1.7-0.6-2.4c-0.2-0.7-0.3-1.3-0.3-1.7
			l-0.8,0.2c-0.2,1.3-0.5,2.8-0.9,4.5c-0.3,1.7-0.7,3.4-0.9,5c-0.4,1.9-0.7,3.8-1.1,5.7L115.3,62.6z M129.4,36.6
			c0.8-0.1,1.7-0.4,2.8-1c1.1-0.6,2.1-1.2,3.1-2c1-0.8,1.9-1.6,2.6-2.4c0.7-0.8,1.1-1.6,1.1-2.2c0-0.4-0.1-0.8-0.4-1
			c-0.3-0.3-0.7-0.5-1.2-0.6c-0.5-0.1-1.1-0.2-1.6-0.3c-0.6,0-1.2-0.1-1.9-0.1c-0.4,0-0.9,0-1.3,0c-0.5,0-0.9,0-1.2,0L129.4,36.6z"
			/>
		<path class="st2" d="M149.8,61.5c-1.1,0.1-2.2,0.2-3.3,0.4c-1.1,0.1-2.1,0.3-3,0.4c-0.9,0.1-1.4,0.2-1.5,0.2
			c0.4-1.7,0.8-3.6,1.2-5.7c0.4-2.1,0.8-4.3,1.3-6.6c0.4-2.3,0.9-4.6,1.3-7c0.4-2.4,0.8-4.6,1.1-6.8c0.8-5.1,1.7-10.4,2.5-15.8
			l9.4-1.5c-0.9,5.4-1.8,10.6-2.7,15.8c-0.4,2.2-0.7,4.5-1.1,6.8c-0.4,2.4-0.8,4.7-1.1,7c-0.4,2.3-0.7,4.6-1,6.8
			c-0.3,2.2-0.6,4.2-0.9,5.9C151.6,61.4,150.9,61.4,149.8,61.5z"/>
		<path class="st2" d="M153.7,62.6c1.2-5.4,2.3-10.7,3.4-15.8c0.4-2.2,0.9-4.4,1.4-6.8s0.9-4.8,1.4-7.1c0.4-2.3,0.9-4.6,1.3-6.7
			c0.4-2.2,0.7-4.1,1-5.9c1.2-0.4,2.3-0.7,3.4-0.9c1.1-0.3,2.3-0.5,3.4-0.7c1.2-0.2,2.3-0.3,3.3-0.3c1.8,0,3.3,0.3,4.5,0.9
			c1.2,0.6,2.2,1.4,3,2.4c0.8,1,1.3,2.2,1.6,3.6c0.3,1.4,0.5,2.8,0.5,4.4c0,2.2-0.4,4.4-1.2,6.5c-0.8,2.1-1.9,3.9-3.3,5.5
			c-1.4,1.6-3,2.9-4.7,3.9c-1.8,1-3.6,1.4-5.6,1.4h-0.7c-0.3,1.4-0.6,2.8-0.9,4.4c-0.3,1.6-0.5,3.1-0.7,4.4
			c-0.3,1.6-0.5,3.2-0.8,4.8L153.7,62.6z M169.1,33.1c-0.4,2.4-0.9,4.9-1.4,7.6c0.6-0.2,1.3-0.5,2-1.1c0.7-0.6,1.4-1.3,1.9-2.3
			c0.6-0.9,1.1-2,1.4-3.3c0.4-1.2,0.5-2.5,0.5-3.9c0-1.5-0.3-2.6-1-3.4c-0.7-0.8-1.4-1.1-2.2-1.1C170,28.2,169.5,30.7,169.1,33.1z"
			/>
		<path class="st2" d="M176.4,62.6c1.2-5.4,2.3-10.7,3.4-15.8c0.4-2.2,0.9-4.4,1.4-6.8s0.9-4.8,1.4-7.1c0.4-2.3,0.9-4.6,1.3-6.7
			c0.4-2.2,0.7-4.1,1-5.9c1.2-0.4,2.3-0.7,3.4-0.9c1.1-0.3,2.3-0.5,3.4-0.7c1.2-0.2,2.3-0.3,3.3-0.3c1.8,0,3.3,0.3,4.5,0.9
			c1.2,0.6,2.2,1.4,3,2.4c0.8,1,1.3,2.2,1.6,3.6c0.3,1.4,0.5,2.8,0.5,4.4c0,2.2-0.4,4.4-1.2,6.5c-0.8,2.1-1.9,3.9-3.3,5.5
			c-1.4,1.6-3,2.9-4.7,3.9c-1.8,1-3.6,1.4-5.6,1.4h-0.7c-0.3,1.4-0.6,2.8-0.9,4.4c-0.3,1.6-0.5,3.1-0.7,4.4
			c-0.3,1.6-0.5,3.2-0.8,4.8L176.4,62.6z M191.8,33.1c-0.4,2.4-0.9,4.9-1.4,7.6c0.6-0.2,1.3-0.5,2-1.1c0.7-0.6,1.4-1.3,1.9-2.3
			c0.6-0.9,1.1-2,1.4-3.3c0.4-1.2,0.5-2.5,0.5-3.9c0-1.5-0.3-2.6-1-3.4c-0.7-0.8-1.4-1.1-2.2-1.1C192.7,28.2,192.3,30.7,191.8,33.1z
			"/>
		<path class="st2" d="M199.6,62.6c1.1-5.3,2.1-10.5,3.1-15.6c0.4-2.2,0.8-4.4,1.2-6.8c0.4-2.3,0.8-4.7,1.2-7
			c0.4-2.3,0.7-4.5,1.1-6.7c0.3-2.1,0.6-4.1,0.8-5.8c2.3-0.7,4.7-1.2,7.4-1.6c2.6-0.3,5.3-0.5,7.9-0.5c1.6,0,2.9,0.2,3.9,0.5
			c1,0.4,1.8,0.9,2.4,1.5c0.6,0.7,1,1.4,1.2,2.3c0.2,0.9,0.4,1.9,0.4,2.9c0,1.6-0.3,3.2-0.8,4.7c-0.6,1.5-1.3,3-2.2,4.4
			c-0.9,1.4-2,2.6-3.2,3.8c-1.2,1.1-2.5,2.1-3.9,2.8c0.7,1.6,1.5,3.4,2.3,5.2c0.8,1.9,1.6,3.7,2.3,5.4c0.8,2,1.6,4,2.5,6l-9.3,3.2
			c-0.8-2.6-1.5-5-2.2-7.2c-0.3-0.9-0.6-1.9-0.8-2.8c-0.3-1-0.5-1.9-0.8-2.8c-0.2-0.9-0.4-1.7-0.6-2.4c-0.2-0.7-0.3-1.3-0.3-1.7
			l-0.8,0.2c-0.2,1.3-0.5,2.8-0.9,4.5c-0.3,1.7-0.7,3.4-0.9,5c-0.4,1.9-0.7,3.8-1.1,5.7L199.6,62.6z M213.7,36.6
			c0.8-0.1,1.7-0.4,2.8-1c1.1-0.6,2.1-1.2,3.1-2c1-0.8,1.9-1.6,2.6-2.4c0.7-0.8,1.1-1.6,1.1-2.2c0-0.4-0.1-0.8-0.4-1
			c-0.3-0.3-0.7-0.5-1.2-0.6c-0.5-0.1-1.1-0.2-1.6-0.3c-0.6,0-1.2-0.1-1.9-0.1c-0.4,0-0.9,0-1.3,0c-0.5,0-0.9,0-1.2,0L213.7,36.6z"
			/>
		<path class="st2" d="M240.1,21.5c0.3-1,0.6-2.1,0.9-3.1c0.1-0.4,0.2-0.9,0.4-1.3c0.1-0.5,0.2-0.9,0.3-1.4c0.1-0.5,0.2-0.9,0.3-1.3
			c0.1-0.4,0.2-0.8,0.3-1.2c-0.3,0-0.6,0-0.9,0c-0.3,0-0.6,0-0.9-0.1c0-0.1,0-0.3,0-0.5c0-0.2,0-0.4,0-0.6c0-0.2,0-0.5,0-0.7
			c0.7,0,1.4,0.1,2.1,0.1c0.7,0,1.3,0,1.9,0c0.6,0,1.2,0,1.7-0.1c0.5,0,1-0.1,1.6-0.1l-0.2,0.7c-0.1,0.2-0.1,0.4-0.2,0.7
			c-0.1,0.2-0.1,0.4-0.2,0.6c-0.3,0.1-0.6,0.1-0.9,0.1c-0.3,0-0.6,0.1-0.9,0.1c-0.2,0.7-0.4,1.4-0.6,2.3c-0.2,0.9-0.4,1.7-0.6,2.6
			c-0.2,1-0.4,1.9-0.6,2.9L240.1,21.5z M245.1,21.6c0.5-1.3,1.1-2.5,1.6-3.7c0.2-0.5,0.4-1,0.6-1.6s0.5-1.1,0.7-1.6
			c0.2-0.5,0.4-1.1,0.6-1.6c0.2-0.5,0.3-1,0.5-1.4c0.8,0,1.5,0,2.2-0.1c0.7-0.1,1.4-0.1,2.2-0.2c-0.1,0.4-0.2,0.8-0.3,1.3
			c-0.1,0.5-0.2,1-0.3,1.5c-0.1,0.5-0.2,1.1-0.4,1.7h0.2c0.3-0.6,0.6-1.2,0.9-1.7c0.3-0.5,0.6-1,0.9-1.5c0.3-0.5,0.6-0.9,0.8-1.3
			c0.7-0.1,1.4-0.2,2.1-0.3s1.4-0.2,2.1-0.4c-0.2,0.4-0.4,0.9-0.6,1.4c-0.2,0.5-0.3,1.1-0.5,1.6s-0.3,1.1-0.4,1.7
			c-0.1,0.6-0.2,1.1-0.3,1.6c-0.2,1.2-0.4,2.5-0.5,3.8l-3.7,0.4c0-0.1,0-0.3,0.1-0.7c0.1-0.4,0.2-0.8,0.3-1.3c0.1-0.5,0.2-1,0.4-1.5
			s0.2-1,0.3-1.3h-0.2l-2.1,4.7c-0.4,0-0.9,0-1.4,0c-0.5,0-0.9,0-1.3,0.1l0.7-4.8h-0.1c0,0.1-0.1,0.3-0.2,0.6
			c-0.1,0.3-0.2,0.6-0.3,0.9c-0.1,0.3-0.3,0.7-0.4,1.1c-0.1,0.4-0.3,0.7-0.4,1c-0.1,0.3-0.2,0.6-0.3,0.8c-0.1,0.2-0.1,0.3-0.1,0.3
			L245.1,21.6z"/>
	</g>
	<g>
		<path class="st3" d="M43.5,34.6c-0.6,2.3-1.4,4.7-2.5,7c-1.1,2.3-2.4,4.5-4,6.6c-1.6,2.1-3.4,3.9-5.4,5.5c-2,1.6-4.2,2.9-6.6,3.8
			c-2.4,1-4.9,1.4-7.6,1.4c-0.6,0-1.1,0-1.7-0.1c-0.6-0.1-1.1-0.1-1.7-0.2c1.1-5.5,2.1-10.9,3.2-16.1c0.4-2.2,0.8-4.5,1.3-6.9
			c0.4-2.4,0.9-4.7,1.3-7.1c0.4-2.3,0.8-4.5,1.2-6.7c0.4-2.1,0.7-4,0.9-5.8c1.7-0.3,3.5-0.6,5.2-0.9c1.8-0.3,3.6-0.4,5.4-0.4
			c2.2,0,4,0.3,5.5,1c1.5,0.7,2.7,1.6,3.7,2.8c0.9,1.2,1.6,2.6,2.1,4.2c0.4,1.6,0.7,3.3,0.7,5.1C44.4,30,44.1,32.2,43.5,34.6z
			 M28.9,30c-0.5,2.2-1,4.3-1.4,6.5c-0.5,2.2-1,4.5-1.4,6.9s-0.9,5-1.4,7.9c1-0.6,1.9-1.5,2.8-2.6c0.9-1.1,1.7-2.4,2.6-3.8
			c0.8-1.4,1.5-3,2.2-4.6c0.7-1.6,1.2-3.2,1.7-4.7c0.5-1.5,0.8-2.9,1.1-4.3c0.3-1.3,0.4-2.5,0.4-3.4c0-1.5-0.4-2.6-1.2-3.5
			c-0.8-0.8-2.1-1.3-3.9-1.3C29.8,25.6,29.4,27.9,28.9,30z"/>
		<path class="st3" d="M59.1,57.9c-1.2,0.2-2.3,0.4-3.2,0.5c0.2-1.3,0.3-2.6,0.5-3.9c0.1-1.1,0.2-2.2,0.3-3.4
			c0.1-1.1,0.2-2.1,0.3-2.9h-5.2L49.4,57c-0.9,0.1-1.9,0.3-3.1,0.4c-1.2,0.1-2.3,0.3-3.4,0.4c-1.3,0.2-2.5,0.3-3.8,0.5
			c1.6-5.3,3.2-10.6,4.7-15.7c0.6-2.2,1.3-4.4,2-6.8c0.7-2.4,1.4-4.7,2.1-7.1c0.7-2.3,1.4-4.6,2-6.8c0.6-2.2,1.2-4.1,1.7-5.9
			c2.7-0.2,5.5-0.4,8.3-0.7c2.8-0.3,5.6-0.7,8.2-1.1c-0.1,1.3-0.2,2.9-0.4,4.8c-0.1,1.9-0.3,4-0.4,6.2c-0.1,2.2-0.2,4.6-0.4,7
			c-0.1,2.4-0.2,4.8-0.4,7.2c-0.2,5.5-0.4,11.4-0.7,17.6c-1.2,0.2-2.4,0.4-3.6,0.5C61.4,57.5,60.3,57.7,59.1,57.9z M53.2,42.3
			c0.2,0,0.5,0,0.9,0c0.4,0,0.9,0,1.3-0.1c0.5,0,0.9,0,1.3-0.1c0.4,0,0.7,0,0.8-0.1c0-0.2,0-0.6,0.1-1.2c0.1-0.6,0.1-1.2,0.2-2
			c0.1-0.7,0.1-1.5,0.2-2.4c0.1-0.9,0.2-1.7,0.2-2.6c0.2-2,0.4-4.2,0.6-6.6l0.4-5.2l-0.9,0.1l-1.4,5.2L53.2,42.3z"/>
		<path class="st3" d="M71,57.7l2.8-12.1c0-1.7,0-3.6-0.1-5.6c-0.1-2-0.1-4.1-0.3-6.1s-0.2-4-0.4-5.9c-0.1-1.9-0.2-3.6-0.3-5
			c-0.1-1.5-0.2-3.1-0.4-4.8l9.8-3.7v7.3c0,1,0,2,0,3.1c0,1,0,2.1,0,3.1c0,1,0,1.9,0,2.8c0,0.9,0,1.6,0,2.2c0.5-1.4,1.1-3,1.9-5
			c0.7-2,1.4-3.9,2.1-5.8c0.8-2.2,1.5-4.5,2.3-7l9.3,2.1c-1.7,3.4-3.4,6.9-5,10.3c-0.7,1.5-1.4,3-2.2,4.6c-0.8,1.6-1.5,3.2-2.3,4.7
			c-0.8,1.6-1.5,3.1-2.2,4.6c-0.7,1.5-1.4,2.9-2,4.1c-0.2,1-0.5,2.2-0.8,3.4c-0.3,1.2-0.6,2.4-0.9,3.5c-0.4,1.3-0.7,2.6-1.1,4
			L71,57.7z"/>
		<path class="st3" d="M94.8,58.6c0.9-4.4,1.8-8.7,2.6-13c0.4-1.8,0.7-3.7,1.1-5.6c0.4-2,0.7-3.9,1-5.8c0.3-1.9,0.6-3.7,0.9-5.5
			c0.3-1.8,0.5-3.4,0.7-4.9c-0.9-0.1-1.9-0.2-2.8-0.1c-0.9,0-1.9-0.1-2.8-0.4c0-0.6,0.1-1.4,0.1-2.2s0-1.7,0.1-2.5
			c0-0.9,0.1-1.9,0.1-2.9c1,0.1,2.1,0.1,3.1,0.2c1,0,2.1,0.1,3.1,0.1c2,0,4,0,5.9-0.1c1.9-0.1,3.7-0.2,5.3-0.4
			c1.6-0.1,3.2-0.3,4.8-0.5l-0.7,3.2c-0.2,0.9-0.4,1.9-0.6,2.8c-0.2,1-0.4,1.8-0.5,2.5c-0.9,0.2-1.8,0.4-2.7,0.5
			c-0.9,0.1-1.8,0.2-2.7,0.4c-0.3,1.4-0.6,2.9-0.9,4.5c-0.3,1.7-0.6,3.4-0.9,5.2c-0.3,1.8-0.6,3.6-0.9,5.4c-0.3,1.8-0.6,3.6-0.8,5.3
			c-0.6,4-1.2,8.1-1.8,12.3L94.8,58.6z"/>
		<path class="st3" d="M111.3,58.6c1.1-5.3,2.1-10.5,3.1-15.6c0.4-2.2,0.8-4.4,1.2-6.8c0.4-2.3,0.8-4.7,1.2-7
			c0.4-2.3,0.7-4.5,1.1-6.7c0.3-2.1,0.6-4.1,0.8-5.8c2.3-0.7,4.7-1.2,7.4-1.6c2.6-0.3,5.3-0.5,7.9-0.5c1.6,0,2.9,0.2,3.9,0.5
			c1,0.4,1.8,0.9,2.4,1.5c0.6,0.7,1,1.4,1.2,2.3c0.2,0.9,0.4,1.9,0.4,2.9c0,1.6-0.3,3.2-0.8,4.7c-0.6,1.5-1.3,3-2.2,4.4
			c-0.9,1.4-2,2.6-3.2,3.8c-1.2,1.1-2.5,2.1-3.9,2.8c0.7,1.6,1.5,3.4,2.3,5.2c0.8,1.9,1.6,3.7,2.3,5.4c0.8,2,1.6,4,2.5,6l-9.3,3.2
			c-0.8-2.6-1.5-5-2.2-7.2c-0.3-0.9-0.6-1.9-0.8-2.8c-0.3-1-0.5-1.9-0.8-2.8c-0.2-0.9-0.4-1.7-0.6-2.4c-0.2-0.7-0.3-1.3-0.3-1.7
			l-0.8,0.2c-0.2,1.3-0.5,2.8-0.9,4.5c-0.3,1.7-0.7,3.4-0.9,5c-0.4,1.9-0.7,3.8-1.1,5.7L111.3,58.6z M125.4,32.6
			c0.8-0.1,1.7-0.4,2.8-1c1.1-0.6,2.1-1.2,3.1-2c1-0.8,1.9-1.6,2.6-2.4c0.7-0.8,1.1-1.6,1.1-2.2c0-0.4-0.1-0.8-0.4-1
			c-0.3-0.3-0.7-0.5-1.2-0.6c-0.5-0.1-1.1-0.2-1.6-0.3c-0.6,0-1.2-0.1-1.9-0.1c-0.4,0-0.9,0-1.3,0c-0.5,0-0.9,0-1.2,0L125.4,32.6z"
			/>
		<path class="st3" d="M145.8,57.5c-1.1,0.1-2.2,0.2-3.3,0.4c-1.1,0.1-2.1,0.3-3,0.4c-0.9,0.1-1.4,0.2-1.5,0.2
			c0.4-1.7,0.8-3.6,1.2-5.7c0.4-2.1,0.8-4.3,1.3-6.6c0.4-2.3,0.9-4.6,1.3-7c0.4-2.4,0.8-4.6,1.1-6.8c0.8-5.1,1.7-10.4,2.5-15.8
			l9.4-1.5c-0.9,5.4-1.8,10.6-2.7,15.8c-0.4,2.2-0.7,4.5-1.1,6.8c-0.4,2.4-0.8,4.7-1.1,7c-0.4,2.3-0.7,4.6-1,6.8
			c-0.3,2.2-0.6,4.2-0.9,5.9C147.6,57.4,146.9,57.4,145.8,57.5z"/>
		<path class="st3" d="M149.7,58.6c1.2-5.4,2.3-10.7,3.4-15.8c0.4-2.2,0.9-4.4,1.4-6.8s0.9-4.8,1.4-7.1c0.4-2.3,0.9-4.6,1.3-6.7
			c0.4-2.2,0.7-4.1,1-5.9c1.2-0.4,2.3-0.7,3.4-0.9c1.1-0.3,2.3-0.5,3.4-0.7c1.2-0.2,2.3-0.3,3.3-0.3c1.8,0,3.3,0.3,4.5,0.9
			c1.2,0.6,2.2,1.4,3,2.4c0.8,1,1.3,2.2,1.6,3.6c0.3,1.4,0.5,2.8,0.5,4.4c0,2.2-0.4,4.4-1.2,6.5c-0.8,2.1-1.9,3.9-3.3,5.5
			c-1.4,1.6-3,2.9-4.7,3.9c-1.8,1-3.6,1.4-5.6,1.4h-0.7c-0.3,1.4-0.6,2.8-0.9,4.4c-0.3,1.6-0.5,3.1-0.7,4.4
			c-0.3,1.6-0.5,3.2-0.8,4.8L149.7,58.6z M165.1,29.1c-0.4,2.4-0.9,4.9-1.4,7.6c0.6-0.2,1.3-0.5,2-1.1c0.7-0.6,1.4-1.3,1.9-2.3
			c0.6-0.9,1.1-2,1.4-3.3c0.4-1.2,0.5-2.5,0.5-3.9c0-1.5-0.3-2.6-1-3.4c-0.7-0.8-1.4-1.1-2.2-1.1C166,24.2,165.5,26.7,165.1,29.1z"
			/>
		<path class="st3" d="M172.4,58.6c1.2-5.4,2.3-10.7,3.4-15.8c0.4-2.2,0.9-4.4,1.4-6.8s0.9-4.8,1.4-7.1c0.4-2.3,0.9-4.6,1.3-6.7
			c0.4-2.2,0.7-4.1,1-5.9c1.2-0.4,2.3-0.7,3.4-0.9c1.1-0.3,2.3-0.5,3.4-0.7c1.2-0.2,2.3-0.3,3.3-0.3c1.8,0,3.3,0.3,4.5,0.9
			c1.2,0.6,2.2,1.4,3,2.4c0.8,1,1.3,2.2,1.6,3.6c0.3,1.4,0.5,2.8,0.5,4.4c0,2.2-0.4,4.4-1.2,6.5c-0.8,2.1-1.9,3.9-3.3,5.5
			c-1.4,1.6-3,2.9-4.7,3.9c-1.8,1-3.6,1.4-5.6,1.4h-0.7c-0.3,1.4-0.6,2.8-0.9,4.4c-0.3,1.6-0.5,3.1-0.7,4.4
			c-0.3,1.6-0.5,3.2-0.8,4.8L172.4,58.6z M187.8,29.1c-0.4,2.4-0.9,4.9-1.4,7.6c0.6-0.2,1.3-0.5,2-1.1c0.7-0.6,1.4-1.3,1.9-2.3
			c0.6-0.9,1.1-2,1.4-3.3c0.4-1.2,0.5-2.5,0.5-3.9c0-1.5-0.3-2.6-1-3.4c-0.7-0.8-1.4-1.1-2.2-1.1C188.7,24.2,188.3,26.7,187.8,29.1z
			"/>
		<path class="st3" d="M195.6,58.6c1.1-5.3,2.1-10.5,3.1-15.6c0.4-2.2,0.8-4.4,1.2-6.8c0.4-2.3,0.8-4.7,1.2-7
			c0.4-2.3,0.7-4.5,1.1-6.7c0.3-2.1,0.6-4.1,0.8-5.8c2.3-0.7,4.7-1.2,7.4-1.6c2.6-0.3,5.3-0.5,7.9-0.5c1.6,0,2.9,0.2,3.9,0.5
			c1,0.4,1.8,0.9,2.4,1.5c0.6,0.7,1,1.4,1.2,2.3c0.2,0.9,0.4,1.9,0.4,2.9c0,1.6-0.3,3.2-0.8,4.7c-0.6,1.5-1.3,3-2.2,4.4
			c-0.9,1.4-2,2.6-3.2,3.8c-1.2,1.1-2.5,2.1-3.9,2.8c0.7,1.6,1.5,3.4,2.3,5.2c0.8,1.9,1.6,3.7,2.3,5.4c0.8,2,1.6,4,2.5,6l-9.3,3.2
			c-0.8-2.6-1.5-5-2.2-7.2c-0.3-0.9-0.6-1.9-0.8-2.8c-0.3-1-0.5-1.9-0.8-2.8c-0.2-0.9-0.4-1.7-0.6-2.4c-0.2-0.7-0.3-1.3-0.3-1.7
			l-0.8,0.2c-0.2,1.3-0.5,2.8-0.9,4.5c-0.3,1.7-0.7,3.4-0.9,5c-0.4,1.9-0.7,3.8-1.1,5.7L195.6,58.6z M209.7,32.6
			c0.8-0.1,1.7-0.4,2.8-1c1.1-0.6,2.1-1.2,3.1-2c1-0.8,1.9-1.6,2.6-2.4c0.7-0.8,1.1-1.6,1.1-2.2c0-0.4-0.1-0.8-0.4-1
			c-0.3-0.3-0.7-0.5-1.2-0.6c-0.5-0.1-1.1-0.2-1.6-0.3c-0.6,0-1.2-0.1-1.9-0.1c-0.4,0-0.9,0-1.3,0c-0.5,0-0.9,0-1.2,0L209.7,32.6z"
			/>
		<path class="st3" d="M236.1,17.5c0.3-1,0.6-2.1,0.9-3.1c0.1-0.4,0.2-0.9,0.4-1.3c0.1-0.5,0.2-0.9,0.3-1.4c0.1-0.5,0.2-0.9,0.3-1.3
			c0.1-0.4,0.2-0.8,0.3-1.2c-0.3,0-0.6,0-0.9,0c-0.3,0-0.6,0-0.9-0.1c0-0.1,0-0.3,0-0.5c0-0.2,0-0.4,0-0.6c0-0.2,0-0.5,0-0.7
			c0.7,0,1.4,0.1,2.1,0.1c0.7,0,1.3,0,1.9,0c0.6,0,1.2,0,1.7-0.1c0.5,0,1-0.1,1.6-0.1l-0.2,0.7c-0.1,0.2-0.1,0.4-0.2,0.7
			c-0.1,0.2-0.1,0.4-0.2,0.6c-0.3,0.1-0.6,0.1-0.9,0.1c-0.3,0-0.6,0.1-0.9,0.1c-0.2,0.7-0.4,1.4-0.6,2.3c-0.2,0.9-0.4,1.7-0.6,2.6
			c-0.2,1-0.4,1.9-0.6,2.9L236.1,17.5z M241.1,17.6c0.5-1.3,1.1-2.5,1.6-3.7c0.2-0.5,0.4-1,0.6-1.6s0.5-1.1,0.7-1.6
			c0.2-0.5,0.4-1.1,0.6-1.6c0.2-0.5,0.3-1,0.5-1.4c0.8,0,1.5,0,2.2-0.1c0.7-0.1,1.4-0.1,2.2-0.2c-0.1,0.4-0.2,0.8-0.3,1.3
			c-0.1,0.5-0.2,1-0.3,1.5c-0.1,0.5-0.2,1.1-0.4,1.7h0.2c0.3-0.6,0.6-1.2,0.9-1.7c0.3-0.5,0.6-1,0.9-1.5c0.3-0.5,0.6-0.9,0.8-1.3
			c0.7-0.1,1.4-0.2,2.1-0.3s1.4-0.2,2.1-0.4c-0.2,0.4-0.4,0.9-0.6,1.4c-0.2,0.5-0.3,1.1-0.5,1.6s-0.3,1.1-0.4,1.7
			c-0.1,0.6-0.2,1.1-0.3,1.6c-0.2,1.2-0.4,2.5-0.5,3.8l-3.7,0.4c0-0.1,0-0.3,0.1-0.7c0.1-0.4,0.2-0.8,0.3-1.3c0.1-0.5,0.2-1,0.4-1.5
			s0.2-1,0.3-1.3h-0.2l-2.1,4.7c-0.4,0-0.9,0-1.4,0c-0.5,0-0.9,0-1.3,0.1l0.7-4.8h-0.1c0,0.1-0.1,0.3-0.2,0.6
			c-0.1,0.3-0.2,0.6-0.3,0.9c-0.1,0.3-0.3,0.7-0.4,1.1c-0.1,0.4-0.3,0.7-0.4,1c-0.1,0.3-0.2,0.6-0.3,0.8c-0.1,0.2-0.1,0.3-0.1,0.3
			L241.1,17.6z"/>
	</g>
</g>
</svg>
